<svg xmlns="http://www.w3.org/2000/svg" width="880" height="1200" viewBox="0 0 880 1200" version="1.1">
	<path d="M 481.773 12.257 C 480.056 12.958, 478.266 15.030, 476.938 17.855 C 474.732 22.549, 474.727 25.148, 476.901 37 C 478.793 47.313, 479.231 49.025, 480.115 49.571 C 480.602 49.872, 481 51.297, 481 52.738 C 481 55.165, 482.172 59.673, 484.059 64.500 C 484.489 65.600, 485.144 68.300, 485.515 70.500 C 485.887 72.700, 486.620 76.750, 487.145 79.500 C 489.157 90.028, 490.171 103.461, 489.155 106.112 C 487.951 109.255, 482.235 111, 473.140 111 C 469.388 111, 465.431 111.744, 462.500 113 C 459.934 114.100, 456.279 115, 454.377 115 C 452.476 115, 449.156 115.900, 447 117 C 444.844 118.100, 442.049 119.010, 440.790 119.022 C 439.530 119.034, 437.375 119.924, 436 121 C 434.625 122.076, 432.600 122.976, 431.500 123 C 430.400 123.024, 428.375 123.924, 427 125 C 425.625 126.076, 423.768 126.966, 422.872 126.978 C 421.977 126.990, 420.678 127.683, 419.985 128.518 C 419.292 129.354, 417.211 130.755, 415.362 131.632 C 413.513 132.510, 412 133.627, 412 134.114 C 412 134.601, 411.534 135, 410.965 135 C 407.995 135, 385.673 155.224, 379.470 163.536 C 377.843 165.716, 376.230 167.725, 375.885 168 C 375.541 168.275, 372.956 172.100, 370.140 176.500 C 367.324 180.900, 364.566 185.044, 364.010 185.708 C 363.455 186.372, 363 187.295, 363 187.758 C 363 189.241, 360.527 193.984, 359.750 193.992 C 359.337 193.996, 359 194.661, 359 195.470 C 359 196.278, 358.192 198.415, 357.204 200.220 C 356.216 202.024, 354.814 205.525, 354.090 208 C 353.365 210.475, 352.414 213.400, 351.977 214.500 C 350.451 218.336, 349.828 220.530, 348.995 225 C 348.533 227.475, 347.445 232.650, 346.578 236.500 C 345.710 240.349, 345 246.283, 345 249.684 C 345 253.086, 344.351 260.061, 343.557 265.185 C 342.763 270.308, 341.609 278.527, 340.992 283.448 C 339.062 298.835, 334.750 305.657, 320 316.663 C 312.043 322.600, 307.705 330.049, 308.447 336.500 C 309.292 343.843, 310.213 348.013, 311.110 348.568 C 311.600 348.871, 312 350.653, 312 352.529 C 312 354.404, 312.900 357.542, 314 359.500 C 315.100 361.458, 316 363.877, 316 364.875 C 316 365.873, 316.900 367.505, 318 368.500 C 319.100 369.495, 320 371.140, 320 372.155 C 320 373.170, 320.374 374, 320.831 374 C 321.288 374, 322.284 375.238, 323.044 376.750 C 327.618 385.852, 349.981 408.390, 358.405 412.388 C 360.231 413.254, 362.292 414.646, 362.985 415.482 C 363.678 416.317, 364.752 417.010, 365.372 417.022 C 365.993 417.034, 367.625 417.924, 369 419 C 370.375 420.076, 372.175 420.976, 373 421 C 373.825 421.024, 375.625 421.924, 377 423 C 378.375 424.076, 380.653 424.966, 382.061 424.978 C 383.470 424.990, 385.589 425.900, 386.770 427 C 388.012 428.158, 390.303 429.002, 392.208 429.004 C 394.019 429.006, 396.973 429.906, 398.774 431.004 C 400.575 432.102, 403.800 433, 405.941 433 C 408.082 433, 411.784 433.835, 414.167 434.856 C 416.858 436.008, 422.290 436.956, 428.500 437.358 C 434 437.713, 441.200 438.489, 444.500 439.081 C 447.800 439.674, 453.815 440.385, 457.868 440.662 C 462.463 440.977, 466.519 441.887, 468.648 443.083 C 470.525 444.137, 473.172 445, 474.530 445 C 475.889 445, 477 445.374, 477 445.831 C 477 446.288, 478.238 447.298, 479.750 448.075 C 482.932 449.709, 486.997 453.967, 486.999 455.667 C 486.999 456.308, 487.479 456.993, 488.065 457.188 C 489.556 457.685, 490.378 464.992, 489.558 470.462 C 489.018 474.059, 487.976 475.909, 484.733 479.025 C 482.458 481.211, 480.070 483, 479.426 483 C 478.781 483, 476.091 483.957, 473.446 485.127 C 468.933 487.123, 467.498 487.220, 450.069 486.702 C 438.809 486.368, 428.745 485.531, 424.500 484.576 C 418.856 483.305, 410.822 483.003, 383 483.017 C 351.945 483.033, 347.751 483.231, 341 485 C 336.875 486.081, 330.991 486.973, 327.925 486.983 C 324.648 486.993, 319.321 488.030, 315 489.500 C 310.957 490.875, 306.191 492, 304.408 492 C 302.625 492, 299.066 492.900, 296.500 494 C 293.934 495.100, 290.606 496, 289.105 496 C 287.604 496, 284.513 496.900, 282.236 498 C 279.959 499.100, 276.837 500.010, 275.298 500.022 C 273.759 500.034, 271.375 500.924, 270 502 C 268.625 503.076, 266.150 503.976, 264.500 504 C 262.850 504.024, 260.375 504.924, 259 506 C 257.625 507.076, 255.262 507.966, 253.750 507.978 C 252.238 507.990, 250.996 508.337, 250.992 508.750 C 250.982 509.697, 246.112 511.993, 244.051 512.022 C 243.198 512.034, 241.375 512.924, 240 514 C 238.625 515.076, 236.825 515.976, 236 516 C 235.175 516.024, 233.375 516.924, 232 518 C 230.625 519.076, 228.802 519.966, 227.950 519.978 C 227.097 519.990, 225.972 520.408, 225.450 520.906 C 224.927 521.404, 222.813 522.754, 220.750 523.906 C 218.688 525.058, 215.537 526.833, 213.750 527.850 C 210.210 529.865, 197.408 538.295, 193.020 541.500 C 191.513 542.600, 188.980 544.395, 187.391 545.489 C 176.818 552.764, 143.078 584.593, 142.951 587.411 C 142.924 588.010, 141.127 590.300, 138.958 592.500 C 136.789 594.700, 135.011 596.817, 135.007 597.205 C 135.003 597.592, 133.988 599.002, 132.750 600.339 C 129.365 603.993, 125.303 609.866, 118.500 620.940 C 112.555 630.617, 112.240 631.159, 110.047 635.500 C 108.935 637.700, 107.599 640.175, 107.077 641 C 106.556 641.825, 105.540 643.963, 104.820 645.750 C 104.101 647.538, 103.172 649, 102.756 649 C 102.340 649, 102 649.680, 102 650.511 C 102 651.342, 101.055 654.154, 99.900 656.761 C 98.746 659.367, 97.396 662.513, 96.900 663.750 C 96.405 664.987, 95.570 667.013, 95.045 668.250 C 94.196 670.250, 92.183 676.494, 86.423 695 C 85.481 698.025, 84.360 702.975, 83.931 706 C 83.503 709.025, 82.638 713.525, 82.008 716 C 77.623 733.249, 77.605 796.191, 81.981 813 C 82.625 815.475, 83.495 819.975, 83.913 823 C 84.331 826.025, 85.416 830.525, 86.322 833 C 87.229 835.475, 87.977 838.491, 87.985 839.703 C 87.993 840.915, 88.506 843.165, 89.125 844.703 C 90.894 849.103, 91.635 851.208, 92.928 855.500 C 93.590 857.700, 94.552 860.513, 95.066 861.750 C 95.580 862.987, 96.405 865.013, 96.900 866.250 C 97.396 867.487, 98.746 870.633, 99.900 873.239 C 101.055 875.846, 102 878.658, 102 879.489 C 102 880.320, 102.338 881.004, 102.750 881.008 C 103.648 881.017, 106 885.860, 106 887.699 C 106 888.415, 106.401 889, 106.891 889 C 107.382 889, 108.509 890.688, 109.397 892.750 C 111.357 897.305, 114.546 902.946, 115.960 904.360 C 116.532 904.932, 117 906.007, 117 906.748 C 117 908.134, 112.145 912.912, 110.680 912.968 C 110.229 912.986, 107.898 914.350, 105.500 916 C 103.102 917.650, 100.864 919, 100.527 919 C 97.369 919, 70.228 944.613, 67.678 950 C 67.287 950.825, 65.632 953.525, 64 956 C 62.367 958.475, 60.520 961.625, 59.894 963 C 59.268 964.375, 57.911 967.136, 56.878 969.136 C 55.845 971.136, 55 973.521, 55 974.436 C 55 975.351, 54.235 977.539, 53.299 979.300 C 52.364 981.060, 51.273 984.975, 50.876 988 C 50.478 991.025, 49.617 995.525, 48.963 998 C 46.865 1005.934, 46.641 1023.698, 48.554 1030.500 C 49.482 1033.800, 50.550 1038.750, 50.927 1041.500 C 51.304 1044.250, 52.375 1047.940, 53.306 1049.700 C 54.238 1051.461, 55.010 1053.711, 55.022 1054.700 C 55.034 1055.690, 55.924 1057.625, 57 1059 C 58.076 1060.375, 58.966 1061.903, 58.978 1062.396 C 59.007 1063.583, 66.155 1074.406, 67.192 1074.833 C 67.636 1075.017, 68 1075.715, 68 1076.385 C 68 1077.830, 84.575 1095, 85.969 1095 C 86.497 1095, 87.411 1095.900, 88 1097 C 88.589 1098.100, 89.726 1099, 90.527 1099 C 91.328 1099, 92.545 1099.900, 93.232 1101 C 93.919 1102.100, 95.218 1103, 96.118 1103 C 97.018 1103, 98.347 1103.713, 99.071 1104.585 C 99.795 1105.457, 102.100 1106.856, 104.193 1107.694 C 106.287 1108.532, 108 1109.618, 108 1110.109 C 108 1110.599, 108.787 1111.010, 109.750 1111.022 C 110.713 1111.034, 112.625 1111.924, 114 1113 C 115.375 1114.076, 117.114 1114.966, 117.864 1114.978 C 118.614 1114.990, 120.864 1115.835, 122.864 1116.855 C 126.961 1118.945, 133.643 1121.395, 142.500 1124.054 C 145.800 1125.045, 149.850 1126.307, 151.500 1126.857 C 153.150 1127.408, 156.975 1128.382, 160 1129.022 C 163.025 1129.662, 166.850 1130.576, 168.500 1131.053 C 173.034 1132.364, 190.478 1135.180, 199.500 1136.057 C 209.579 1137.038, 243.758 1139.032, 255 1139.295 C 268.392 1139.609, 326.904 1136.248, 354 1133.609 C 373.895 1131.671, 404.108 1131.659, 419 1133.584 C 425.325 1134.402, 433.875 1135.465, 438 1135.946 C 442.125 1136.428, 447.975 1137.339, 451 1137.970 C 454.025 1138.601, 458.750 1139.495, 461.500 1139.956 C 464.250 1140.418, 468.300 1141.103, 470.500 1141.478 C 472.700 1141.853, 475.400 1142.538, 476.500 1143 C 478.327 1143.768, 481.081 1144.332, 489.500 1145.662 C 491.150 1145.923, 493.400 1146.493, 494.500 1146.930 C 498.959 1148.698, 503.764 1150, 505.835 1150 C 507.040 1150, 508.809 1150.395, 509.764 1150.877 C 512.599 1152.310, 518.494 1154, 520.654 1154 C 521.761 1154, 522.975 1154.308, 523.352 1154.685 C 524.302 1155.636, 531.162 1157.967, 533.062 1157.985 C 533.921 1157.993, 536.487 1158.900, 538.764 1160 C 541.041 1161.100, 543.741 1162, 544.764 1162 C 545.787 1162, 548.487 1162.900, 550.764 1164 C 553.041 1165.100, 555.843 1166, 556.992 1166 C 558.140 1166, 560.844 1166.900, 563 1168 C 565.156 1169.100, 568.663 1170, 570.793 1170 C 572.924 1170, 574.975 1170.308, 575.352 1170.685 C 576.759 1172.092, 583.633 1173.970, 587.428 1173.985 C 592.288 1174.004, 606 1177.118, 606 1178.204 C 606 1178.642, 611.850 1179, 619 1179 C 626.236 1179, 632 1178.593, 632 1178.081 C 632 1177.146, 638.653 1175.233, 645 1174.342 C 649.007 1173.780, 655.476 1170.820, 662 1166.565 C 667.279 1163.121, 675 1155.412, 675 1153.584 C 675 1152.883, 675.900 1151.495, 677 1150.500 C 678.100 1149.505, 679 1147.854, 679 1146.831 C 679 1145.809, 679.397 1144.191, 679.883 1143.236 C 683.107 1136.900, 683.355 1135.380, 683.355 1121.962 C 683.355 1112.550, 682.969 1107.569, 682.177 1106.777 C 681.530 1106.130, 681 1104.784, 681 1103.786 C 681 1102.789, 680.550 1101.079, 680 1099.986 C 675.156 1090.364, 673.046 1086.769, 669.917 1082.809 C 668.312 1080.778, 667 1078.831, 667 1078.482 C 667 1075.944, 644.845 1058.843, 637 1055.325 C 625.885 1050.341, 616.780 1047.023, 611.500 1046.033 C 609.300 1045.620, 605.475 1044.551, 603 1043.656 C 600.525 1042.761, 597.268 1042.023, 595.761 1042.015 C 594.255 1042.007, 589.755 1041.111, 585.761 1040.025 C 581.768 1038.939, 574 1037.585, 568.500 1037.015 C 563 1036.445, 554 1035.331, 548.500 1034.538 C 534.156 1032.471, 438.098 1032.466, 423 1034.532 C 417.225 1035.323, 407.775 1036.433, 402 1037 C 396.225 1037.567, 388.232 1038.924, 384.239 1040.016 C 380.245 1041.107, 375.430 1042, 373.538 1042 C 371.646 1042, 367.488 1042.731, 364.299 1043.626 C 361.109 1044.520, 355.575 1045.616, 352 1046.063 C 348.425 1046.509, 343.700 1047.401, 341.500 1048.045 C 339.300 1048.689, 334.575 1049.564, 331 1049.989 C 322.083 1051.048, 316.869 1052.003, 314.500 1053.010 C 313.400 1053.477, 309.350 1054.125, 305.500 1054.449 C 301.650 1054.772, 295.575 1055.496, 292 1056.056 C 262.917 1060.615, 209.023 1060.647, 183 1056.121 C 179.975 1055.595, 175.475 1054.868, 173 1054.505 C 170.525 1054.143, 167.600 1053.463, 166.500 1052.994 C 165.400 1052.525, 161.800 1051.165, 158.500 1049.971 C 148.326 1046.292, 146.632 1045.533, 142.500 1042.804 C 140.300 1041.350, 136.731 1038.550, 134.568 1036.581 C 132.406 1034.611, 130.268 1033, 129.818 1033 C 129.368 1033, 129 1032.395, 129 1031.655 C 129 1030.915, 128.100 1029.495, 127 1028.500 C 125.900 1027.505, 125 1026.267, 125 1025.749 C 125 1025.232, 124.155 1023.614, 123.121 1022.154 C 118.603 1015.770, 118.599 990.211, 123.116 983.846 C 124.152 982.386, 125 980.318, 125 979.251 C 125 978.183, 125.900 976.495, 127 975.500 C 128.100 974.505, 129 973.241, 129 972.692 C 129 972.143, 132.501 968.221, 136.780 963.977 C 144.330 956.487, 152.414 951.242, 153.557 953.092 C 153.865 953.591, 155.104 954.002, 156.309 954.005 C 157.514 954.008, 160.300 955.119, 162.500 956.474 C 164.700 957.829, 167.625 958.962, 169 958.991 C 170.375 959.020, 172.625 959.924, 174 961 C 175.375 962.076, 177.850 962.967, 179.500 962.982 C 181.150 962.996, 183.973 963.906, 185.774 965.004 C 187.575 966.102, 190.377 967, 192 967 C 193.623 967, 196.425 967.898, 198.226 968.996 C 200.027 970.094, 202.850 970.996, 204.500 971 C 206.150 971.004, 208.973 971.906, 210.774 973.004 C 212.575 974.102, 215.634 975, 217.572 975 C 219.511 975, 222.959 975.900, 225.236 977 C 227.513 978.100, 230.604 979, 232.105 979 C 233.606 979, 236.934 979.900, 239.500 981 C 242.066 982.100, 245.666 983, 247.500 983 C 249.334 983, 252.934 983.900, 255.500 985 C 258.066 986.100, 261.559 987, 263.262 987 C 266.349 987, 271.942 988.459, 275.236 990.123 C 276.191 990.605, 278.548 991, 280.472 991 C 284.008 991, 291.821 992.595, 295.500 994.068 C 296.600 994.508, 299.975 995.123, 303 995.435 C 306.025 995.746, 311.425 996.478, 315 997.062 C 332.267 999.884, 385.748 1002.509, 424.500 1002.438 C 483.154 1002.330, 624.533 996.483, 651.500 993.049 C 655.900 992.489, 663.550 991.772, 668.500 991.455 C 673.450 991.139, 678.400 990.485, 679.500 990.002 C 681.861 988.966, 687.048 988.153, 696 987.417 C 699.575 987.123, 703.400 986.493, 704.500 986.016 C 707.370 984.774, 711.759 983.876, 717.500 983.356 C 720.250 983.107, 723.400 982.531, 724.500 982.076 C 730.934 979.415, 732.399 979, 735.359 979 C 737.155 979, 740.487 978.100, 742.764 977 C 745.041 975.900, 748.264 975, 749.928 975 C 751.591 975, 754.425 974.102, 756.226 973.004 C 758.027 971.906, 760.893 971.006, 762.595 971.004 C 764.416 971.002, 766.435 970.177, 767.500 969 C 768.495 967.900, 770.530 967, 772.020 967 C 773.511 967, 775.874 966.100, 777.273 965 C 778.671 963.900, 780.730 963, 781.849 963 C 782.967 963, 784.189 962.503, 784.564 961.896 C 784.940 961.289, 786.879 960.044, 788.873 959.129 C 797.436 955.204, 805.326 948.453, 807.575 943.128 C 810.379 936.490, 808.952 922.878, 804.819 916.846 C 803.818 915.386, 803 913.703, 803 913.107 C 803 912.511, 802.212 911.044, 801.250 909.848 C 798.242 906.110, 789.248 897, 788.566 897 C 788.209 897, 786.950 896.100, 785.770 895 C 784.589 893.900, 782.991 893, 782.219 893 C 781.447 893, 779.671 892.100, 778.273 891 C 776.874 889.900, 774.869 889, 773.815 889 C 772.762 889, 770.461 888.229, 768.700 887.287 C 766.940 886.345, 762.575 885.265, 759 884.888 C 755.425 884.510, 747.694 883.643, 741.819 882.962 C 731.480 881.762, 710.363 882.642, 705.879 884.458 C 704.948 884.836, 703.566 884.423, 702.631 883.488 C 700.702 881.559, 700.853 881.201, 708.637 869.302 C 711.587 864.794, 714 860.631, 714 860.052 C 714 859.474, 714.379 859, 714.843 859 C 715.306 859, 716.727 856.975, 718 854.500 C 719.273 852.025, 720.694 850, 721.157 850 C 721.621 850, 722.010 849.212, 722.022 848.250 C 722.034 847.288, 722.924 845.375, 724 844 C 725.076 842.625, 725.976 841.050, 726 840.500 C 726.024 839.950, 726.924 838.375, 728 837 C 729.076 835.625, 729.976 833.825, 730 833 C 730.024 832.175, 730.924 830.375, 732 829 C 733.076 827.625, 733.976 825.825, 734 825 C 734.024 824.175, 734.924 822.375, 736 821 C 737.076 819.625, 737.976 817.825, 738 817 C 738.024 816.175, 738.924 814.375, 740 813 C 741.076 811.625, 741.976 809.825, 742 809 C 742.024 808.175, 742.924 806.375, 744 805 C 745.076 803.625, 745.976 801.825, 746 801 C 746.024 800.175, 746.924 798.375, 748 797 C 749.076 795.625, 749.976 793.825, 750 793 C 750.024 792.175, 750.924 790.375, 752 789 C 753.076 787.625, 753.966 785.732, 753.978 784.794 C 753.990 783.856, 755.125 781.431, 756.500 779.405 C 757.875 777.379, 759.010 774.996, 759.022 774.110 C 759.034 773.225, 759.924 771.375, 761 770 C 762.076 768.625, 762.966 766.548, 762.978 765.385 C 762.990 764.222, 763.900 762.126, 765 760.727 C 766.100 759.329, 767 757.088, 767 755.747 C 767 754.407, 767.900 752.495, 769 751.500 C 770.195 750.418, 771 748.420, 771 746.534 C 771 744.759, 771.876 742.437, 773 741.230 C 774.100 740.050, 775 737.800, 775 736.230 C 775 734.661, 775.900 732.411, 777 731.230 C 778.100 730.050, 779 727.951, 779 726.566 C 779 725.181, 779.898 722.575, 780.996 720.774 C 782.094 718.973, 782.996 716.375, 783 715 C 783.004 713.625, 783.906 711.027, 785.004 709.226 C 786.102 707.425, 787 704.851, 787 703.506 C 787 702.161, 787.900 699.458, 789 697.500 C 790.100 695.542, 791 692.806, 791 691.421 C 791 690.036, 791.900 687.041, 793 684.764 C 794.100 682.487, 795.007 679.471, 795.015 678.062 C 795.031 675.374, 797.141 668.526, 798.315 667.352 C 798.692 666.975, 799 665.311, 799 663.654 C 799 660.875, 800.119 656.437, 802.066 651.500 C 802.499 650.400, 803.097 647.475, 803.395 645 C 803.692 642.525, 804.405 638.475, 804.979 636 C 805.554 633.525, 806.502 628.575, 807.088 625 C 807.673 621.425, 808.579 616.025, 809.102 613 C 809.625 609.975, 811.270 597.375, 812.757 585 C 815.236 564.371, 815.462 559.423, 815.480 525.500 C 815.497 493.586, 815.182 485.544, 813.185 467 C 811.911 455.175, 810.477 443.925, 809.997 442 C 809.518 440.075, 808.603 434.450, 807.964 429.500 C 807.326 424.550, 806.435 419.375, 805.985 418 C 805.534 416.625, 804.861 413.700, 804.488 411.500 C 802.690 400.892, 802.110 398.081, 800.613 392.701 C 799.726 389.512, 799 385.649, 799 384.118 C 799 382.586, 798.692 381.025, 798.315 380.648 C 797.102 379.435, 795.031 372.585, 795.015 369.736 C 795.007 368.216, 794.550 366.079, 794 364.986 C 793.450 363.894, 792.550 362.106, 792 361.014 C 791.450 359.921, 791 357.685, 791 356.044 C 791 354.403, 790.100 351.458, 789 349.500 C 787.900 347.542, 787 344.378, 787 342.470 C 787 340.561, 786.663 338.996, 786.250 338.992 C 785.137 338.981, 783 333.940, 783 331.325 C 783 330.073, 782.102 327.575, 781.004 325.774 C 779.906 323.973, 778.996 321.150, 778.982 319.500 C 778.967 317.850, 778.076 315.375, 777 314 C 775.924 312.625, 775.024 310.375, 775 309 C 774.976 307.625, 774.076 305.375, 773 304 C 771.924 302.625, 771.034 300.323, 771.022 298.885 C 771.010 297.447, 770.100 295.126, 769 293.727 C 767.900 292.329, 766.990 290.131, 766.978 288.842 C 766.966 287.554, 766.076 285.375, 765 284 C 763.924 282.625, 763.024 280.600, 763 279.500 C 762.976 278.400, 762.076 276.375, 761 275 C 759.924 273.625, 759.034 271.775, 759.022 270.890 C 759.010 270.004, 757.875 267.621, 756.500 265.595 C 755.125 263.569, 753.990 261.144, 753.978 260.206 C 753.966 259.268, 753.076 257.375, 752 256 C 750.924 254.625, 750.024 252.825, 750 252 C 749.976 251.175, 749.076 249.375, 748 248 C 746.924 246.625, 746.034 244.797, 746.022 243.939 C 746.010 243.080, 745.100 241.411, 744 240.230 C 742.900 239.050, 742 237.450, 742 236.677 C 742 235.903, 741.100 234.126, 740 232.727 C 738.900 231.329, 738 229.651, 738 229 C 738 228.349, 737.100 226.671, 736 225.273 C 734.900 223.874, 734 221.891, 734 220.865 C 734 219.839, 733.601 219, 733.114 219 C 732.627 219, 731.490 217.444, 730.587 215.542 C 729.685 213.641, 728.537 211.832, 728.037 211.523 C 727.536 211.213, 726.506 209.732, 725.747 208.230 C 724.450 205.662, 722.435 201.849, 721.095 199.425 C 719.392 196.346, 704.058 174.346, 698.579 167.122 C 696.335 164.165, 693.827 160.790, 693.005 159.622 C 690.122 155.529, 674.145 135.985, 667.854 128.855 C 649.975 108.592, 628.370 86.785, 615.500 76.011 C 611.100 72.327, 606.882 68.568, 606.128 67.657 C 605.373 66.746, 604.344 66, 603.842 66 C 603.340 66, 601.932 65.093, 600.714 63.986 C 596.824 60.446, 588.090 54, 587.184 54 C 586.703 54, 585.495 53.100, 584.500 52 C 583.505 50.900, 582.155 50, 581.500 50 C 580.845 50, 579.495 49.100, 578.500 48 C 577.505 46.900, 576.301 46, 575.825 46 C 575.349 46, 573.171 44.870, 570.984 43.490 C 568.797 42.109, 564.551 39.651, 561.548 38.026 C 558.546 36.402, 555.282 34.636, 554.295 34.102 C 553.308 33.568, 551.038 32.542, 549.250 31.821 C 547.462 31.101, 546 30.172, 546 29.756 C 546 29.340, 545.319 29, 544.486 29 C 543.654 29, 542.191 28.587, 541.236 28.082 C 537.637 26.178, 529.982 23, 528.997 23 C 528.434 23, 526.966 22.480, 525.736 21.844 C 520.867 19.327, 519.942 19, 517.680 19 C 516.389 19, 515.025 18.692, 514.648 18.315 C 513.277 16.944, 506.410 15.030, 502.809 15.015 C 500.779 15.007, 498.877 14.610, 498.582 14.133 C 498.287 13.656, 496.123 12.995, 493.773 12.664 C 491.423 12.333, 488.375 11.856, 487 11.604 C 485.625 11.352, 483.273 11.646, 481.773 12.257 M 406.641 272.085 C 404.088 274.332, 402 276.623, 402 277.177 C 402 277.731, 401.100 279.329, 400 280.727 C 398.488 282.650, 398 284.784, 398 289.480 C 398 294.420, 398.409 296.060, 400 297.500 C 401.100 298.495, 402 299.750, 402 300.289 C 402 302.224, 407.335 305.798, 411.129 306.405 C 413.258 306.745, 416.802 306.735, 419.005 306.383 C 424.250 305.545, 431.506 299.277, 432.456 294.767 C 433.908 287.865, 434.188 281.788, 433.103 280.703 C 432.496 280.096, 432 278.449, 432 277.043 C 432 275.395, 430.744 273.334, 428.466 271.243 C 425.202 268.248, 424.412 268, 418.107 268 C 411.544 268, 411.103 268.157, 406.641 272.085" stroke="none" fill="black" fill-rule="evenodd"/>
</svg>