<svg xmlns="http://www.w3.org/2000/svg" width="512" height="512" viewBox="0 0 512 512" version="1.1">
	<path d="M 235.500 0.642 C 211.079 3.425, 196.220 6.413, 178.304 12.140 C 79.968 43.578, 10.394 130.364, 0.903 233.429 C -0.532 249.019, 0.255 278.232, 2.496 292.500 C 11.403 349.231, 35.947 398.031, 75.250 437.158 C 114.773 476.502, 164.444 501.277, 220.500 509.603 C 246.846 513.516, 281.447 512.254, 309.500 506.355 C 398.611 487.619, 471.883 421.206, 499.806 333.863 C 505.660 315.554, 511 288.934, 511 278.066 C 511 275.894, 511.450 273.840, 512 273.500 C 512.608 273.124, 512.994 265.757, 512.985 254.691 C 512.974 242.577, 512.646 237.001, 512 238 C 511.299 239.085, 511.026 238.183, 511.015 234.743 C 511.007 232.127, 510.310 225.377, 509.467 219.743 C 497.627 140.621, 451.444 73.043, 382 33.227 C 352.493 16.309, 314.935 4.397, 280.576 1.061 C 270.555 0.088, 242.637 -0.172, 235.500 0.642 M 157.597 172.929 C 143.062 177.729, 132.316 189.757, 129.124 204.799 C 125.877 220.102, 130.310 228.847, 143.152 232.475 C 148.303 233.929, 153.367 234.272, 170 234.290 C 197.370 234.320, 204.504 232.647, 210.285 224.841 C 213.364 220.684, 213.770 209.895, 211.170 201.335 C 207.397 188.913, 199.995 180.362, 188.142 174.731 C 179.677 170.709, 166.645 169.940, 157.597 172.929 M 330.746 172.086 C 319.555 174.723, 308.046 184.433, 302.726 195.726 C 299.831 201.871, 299.533 203.398, 299.517 212.170 C 299.503 220.430, 299.805 222.252, 301.592 224.670 C 307.500 232.662, 314.465 234.320, 342 234.290 C 365.630 234.264, 372.794 232.946, 378.485 227.579 C 389.737 216.967, 382.690 190.295, 365.507 178.460 C 356.061 171.955, 342.136 169.401, 330.746 172.086 M 0.415 256 C 0.415 266.175, 0.564 270.337, 0.745 265.250 C 0.927 260.162, 0.927 251.837, 0.745 246.750 C 0.564 241.662, 0.415 245.825, 0.415 256 M 163.145 300.070 C 154.999 303.333, 149.800 311.003, 149.800 319.760 C 149.800 337.013, 172.710 369.768, 195.417 384.982 C 215.702 398.573, 241.247 406.134, 261.922 404.666 C 300.946 401.896, 337.182 377.233, 355.483 340.988 C 361.167 329.731, 363.219 322.666, 362.398 317.177 C 361.485 311.078, 356.466 304.102, 351 301.334 L 346.500 299.056 256 299.092 C 201.722 299.113, 164.557 299.504, 163.145 300.070" stroke="none" fill="black" fill-rule="evenodd"/>
</svg>