<svg xmlns="http://www.w3.org/2000/svg" width="512" height="512" viewBox="0 0 512 512" version="1.1">
	<path d="M 251.452 205.406 C 249.776 206.136, 247.714 207.806, 246.871 209.117 C 244.631 212.596, 164.922 419.500, 163.317 426 C 159.154 442.861, 163.675 466.438, 173.612 479.683 C 174.925 481.434, 176 483.122, 176 483.433 C 176 483.745, 148.532 484, 114.960 484 C 56.182 484, 53.777 483.927, 50.055 482.028 C 33.069 473.362, 39.509 447, 58.611 447 C 60.800 447, 75.722 449.925, 91.771 453.500 C 107.821 457.075, 122.522 460, 124.441 460 C 129.120 460, 134.691 455.164, 135.601 450.312 C 136.410 446.002, 134.201 440.833, 130.520 438.421 C 126.220 435.604, 67.800 423.038, 58.907 423.017 C 37.657 422.969, 19.990 438.300, 17.077 459.316 C 14.701 476.459, 22.181 492.560, 36.848 501.871 C 46.819 508.200, 43.372 508, 142.459 508 C 241.475 508, 235.194 508.393, 238.506 501.989 C 240.532 498.071, 240.378 494.132, 238.050 490.314 C 235.420 486.001, 233.321 485.063, 223.894 483.988 C 213.505 482.803, 206.473 479.547, 199.086 472.501 C 188.721 462.614, 183.523 448.252, 185.703 435.524 C 186.366 431.652, 201.053 392.141, 223.564 333.667 L 260.341 238.135 266.880 244.127 C 284.685 260.442, 308.121 268.925, 332 267.698 C 352.755 266.632, 371.603 259.089, 387.167 245.623 C 394.228 239.513, 395.952 238.437, 396.475 239.812 C 396.828 240.740, 413.609 284.250, 433.767 336.500 L 470.419 431.500 470.397 441 C 470.380 448.367, 469.887 451.735, 468.200 456 C 463.883 466.913, 453.987 476.558, 442 481.538 C 438.257 483.093, 434.220 483.467, 418 483.761 L 398.500 484.115 396.208 478.742 C 385.990 454.789, 354.535 446.692, 333.031 462.477 L 328 466.170 322.969 462.477 C 297.874 444.056, 262.521 458.039, 256.830 488.639 C 255.437 496.128, 256.302 501.029, 259.597 504.324 C 266.339 511.067, 278.075 507.422, 279.516 498.138 C 280.738 490.269, 282.347 486.417, 285.897 482.868 C 293.739 475.025, 308.491 477.314, 313.585 487.164 C 314.434 488.807, 315.542 492.688, 316.047 495.788 C 317.347 503.774, 321.149 507.500, 328 507.500 C 334.906 507.500, 338.651 503.786, 339.981 495.619 C 341.128 488.567, 343.524 484.237, 347.916 481.278 C 356.991 475.162, 368.829 478.228, 373.750 487.970 C 374.988 490.420, 376 493.723, 376 495.311 C 376 499.949, 378.814 504.684, 382.653 506.506 C 385.715 507.959, 389.537 508.116, 413.326 507.770 C 438.259 507.407, 441.077 507.187, 447.500 505.099 C 479.942 494.552, 500.131 461.427, 493.640 429.393 C 492.567 424.100, 478.604 386.589, 452.524 318.939 C 430.804 262.598, 412.129 214.583, 411.024 212.240 C 408.414 206.701, 403.776 203.739, 398.688 204.361 C 395.401 204.762, 393.058 206.601, 381.688 217.696 C 367.128 231.905, 360.400 236.537, 348.540 240.518 C 332.156 246.018, 315.025 244.748, 299 236.847 C 291.674 233.234, 288.620 230.819, 276.889 219.356 C 260.862 203.696, 258.434 202.365, 251.452 205.406 M 283.500 324.903 C 279.049 326.858, 276.500 330.921, 276.500 336.061 C 276.500 340.262, 276.966 341.428, 279.769 344.231 C 282.583 347.045, 283.730 347.500, 288 347.500 C 292.270 347.500, 293.417 347.045, 296.231 344.231 C 299.045 341.417, 299.500 340.270, 299.500 336 C 299.500 331.787, 299.033 330.572, 296.407 327.945 C 293.105 324.643, 287.239 323.261, 283.500 324.903 M 363.500 324.903 C 359.049 326.858, 356.500 330.921, 356.500 336.061 C 356.500 340.262, 356.966 341.428, 359.769 344.231 C 362.583 347.045, 363.730 347.500, 368 347.500 C 372.270 347.500, 373.417 347.045, 376.231 344.231 C 379.045 341.417, 379.500 340.270, 379.500 336 C 379.500 331.787, 379.033 330.572, 376.407 327.945 C 373.105 324.643, 367.239 323.261, 363.500 324.903" stroke="none" fill="black" fill-rule="evenodd"/>
</svg>