<svg xmlns="http://www.w3.org/2000/svg" width="512" height="512" viewBox="0 0 512 512" version="1.1">
	<path d="M 223.500 13.598 C 167.843 19.170, 120.900 39.868, 81.569 76.178 C 71.746 85.246, 59.434 99.230, 56.901 104.194 C 51.982 113.837, 56.804 126.096, 67.232 130.452 C 75.890 134.070, 82.195 131.584, 94 119.898 C 109.646 104.409, 124.165 91.964, 134.877 84.860 C 155.009 71.510, 178.739 61.767, 204 56.480 C 228.960 51.255, 263.723 52.093, 289.118 58.530 C 357.407 75.840, 411.226 127.804, 429.958 194.513 C 447.381 256.564, 433.662 322.860, 393.173 372.268 C 385.394 381.760, 369.400 397.169, 360 404.227 C 351.691 410.466, 333.189 422, 331.490 422 C 330.888 422, 329.400 416.513, 328.156 409.708 C 325.361 394.412, 319.733 377.433, 312.968 363.884 C 306.324 350.578, 303.144 345.226, 289.614 324.579 C 281.349 311.968, 278.904 307.533, 280.012 307.166 C 280.831 306.896, 285.550 304.619, 290.500 302.107 C 297.734 298.435, 301.276 295.770, 308.551 288.519 C 318.312 278.793, 322.811 271.599, 325.502 261.419 C 327.401 254.231, 327.621 242.623, 326.012 234.458 C 325.127 229.968, 325.101 226.903, 325.911 222.524 C 327.308 214.964, 327.313 194.961, 325.918 185.692 C 323.626 170.446, 317.637 150.293, 311.012 135.526 C 308.061 128.950, 307.920 128.808, 305.740 130.230 C 301.528 132.976, 286.376 151.083, 280.811 160.021 C 277.754 164.931, 274.184 172.344, 272.877 176.493 L 270.500 184.038 265 183.269 C 258.735 182.393, 242.765 182.260, 232.695 183 L 225.890 183.500 222.674 175 C 220.905 170.325, 216.941 162.675, 213.865 158 C 207.733 148.680, 195.923 134.758, 191.219 131.305 L 188.228 129.109 184.729 136.805 C 180.352 146.429, 174.492 164.522, 171.715 176.988 C 169.963 184.852, 169.603 189.706, 169.637 205 C 169.660 215.175, 170.113 224.822, 170.644 226.437 C 171.317 228.481, 171.214 230.902, 170.305 234.405 C 168.581 241.051, 168.665 254.152, 170.475 260.955 C 175.229 278.816, 188.316 293.733, 207.212 302.826 C 212.554 305.397, 216.941 307.849, 216.962 308.276 C 216.983 308.703, 212.925 315.142, 207.944 322.584 C 181.184 362.566, 172.392 382.830, 166.330 418.500 C 163.917 432.696, 163.900 459.226, 166.299 468 C 171.212 485.971, 181.334 495.873, 198.069 499.078 C 206.987 500.786, 288.964 500.814, 297.784 499.112 C 306.548 497.421, 312.190 494.787, 317.463 489.927 C 322.900 484.916, 325.666 480.617, 328.512 472.758 L 330.646 466.863 340.073 462.606 C 388.810 440.595, 429.242 401.134, 453.404 352 C 496.931 263.485, 480.668 157.893, 412.459 86.162 C 376.542 48.389, 329.065 23.630, 277 15.519 C 266.986 13.959, 232.326 12.715, 223.500 13.598" stroke="none" fill="black" fill-rule="evenodd"/>
</svg>