<svg xmlns="http://www.w3.org/2000/svg" width="512" height="512" viewBox="0 0 512 512" version="1.1">
	<path d="M 70.500 1.146 C 34.821 7.731, 7.423 35.460, 1.051 71.434 C 0.432 74.930, 0 93.946, 0 117.726 C 0 150.606, 0.293 159.501, 1.579 165.730 C 8.323 198.379, 31.584 222.959, 64.500 232.219 C 72.261 234.402, 73.847 234.469, 117.500 234.456 C 160.863 234.443, 162.791 234.362, 170.500 232.227 C 196.513 225.023, 217.102 207.308, 227.681 183.028 C 234.237 167.983, 234.503 165.380, 234.476 116.500 C 234.452 74.004, 234.375 72.227, 232.210 64.500 C 222.997 31.622, 198.381 8.324, 165.730 1.579 C 159.425 0.277, 150.845 0.020, 116.792 0.112 C 94.081 0.173, 73.250 0.639, 70.500 1.146 M 345.624 1.609 C 313.808 8.563, 290.312 30.529, 280.274 62.703 L 277.529 71.500 277.539 117 C 277.548 160.916, 277.626 162.778, 279.769 170.500 C 286.991 196.530, 304.694 217.103, 328.972 227.681 C 344.023 234.239, 346.616 234.504, 395.500 234.466 C 437.914 234.434, 439.788 234.352, 447.500 232.200 C 480.338 223.038, 503.676 198.384, 510.421 165.730 C 511.707 159.501, 512 150.606, 512 117.726 C 512 93.946, 511.568 74.930, 510.949 71.434 C 505.886 42.850, 487.862 19.488, 461.622 7.497 C 446.745 0.699, 446.185 0.637, 397 0.359 C 360.422 0.151, 351.276 0.374, 345.624 1.609 M 73.315 277.970 C 43.034 282.617, 16.096 304.160, 5.598 332.124 C 0.211 346.477, -0.149 350.904, 0.241 398.093 C 0.623 444.266, 0.576 443.775, 5.937 458.101 C 13.623 478.645, 33.355 498.377, 53.899 506.063 C 68.225 511.424, 67.734 511.377, 113.907 511.759 C 150.904 512.065, 158.491 511.879, 165.283 510.503 C 198.225 503.828, 222.950 480.552, 232.209 447.500 C 234.379 439.755, 234.450 438.067, 234.450 394.500 C 234.450 351.087, 234.372 349.218, 232.231 341.500 C 223.757 310.954, 201.042 288.265, 170.500 279.839 C 162.911 277.745, 160.343 277.620, 120.500 277.403 C 97.400 277.277, 76.167 277.532, 73.315 277.970 M 350.539 278.078 C 341.261 279.483, 334.268 281.753, 324.500 286.530 C 302.838 297.124, 286.478 317.228, 279.769 341.500 C 277.639 349.204, 277.557 351.166, 277.544 394.500 C 277.531 438.153, 277.598 439.739, 279.781 447.500 C 289.090 480.592, 313.777 503.828, 346.717 510.503 C 353.513 511.880, 361.077 512.064, 398.093 511.752 C 446.009 511.348, 446.853 511.251, 461.622 504.503 C 487.862 492.512, 505.886 469.150, 510.949 440.566 C 511.568 437.070, 512 418.054, 512 394.274 C 512 350.728, 511.561 345.869, 506.378 332.062 C 496.985 307.039, 474.811 287.365, 447.500 279.822 C 439.912 277.727, 437.360 277.602, 398 277.395 C 375.175 277.274, 353.818 277.582, 350.539 278.078" stroke="none" fill="black" fill-rule="evenodd"/>
</svg>