<svg xmlns="http://www.w3.org/2000/svg" width="512" height="512" viewBox="0 0 512 512" version="1.1">
	<path d="M 231.500 0.605 C 204.671 4.469, 187.551 9.604, 167.758 19.724 C 125.719 41.219, 93.261 79.989, 79.623 125 C 78.206 129.675, 65.362 171.525, 51.079 218 C 36.796 264.475, 24.646 304.525, 24.080 307 C 22.568 313.600, 22.806 327.548, 24.557 335 C 29.416 355.677, 45.650 373.291, 66.722 380.748 L 74.500 383.500 251 383.779 C 448.498 384.091, 434.918 384.562, 449.848 376.886 C 459.795 371.772, 467.706 364.719, 473.927 355.418 C 483.072 341.744, 486.872 323.358, 483.664 308.304 C 482.820 304.346, 468.343 262.984, 451.492 216.389 C 434.641 169.793, 419.295 126.906, 417.390 121.085 C 403.602 78.961, 371.500 41.194, 331.969 20.590 C 314.556 11.515, 298.786 6.127, 278.500 2.324 C 270.822 0.885, 237.915 -0.319, 231.500 0.605 M 152 428.872 C 152 432.356, 157.093 446.373, 161.297 454.459 C 177.174 485, 206.834 506.082, 240.911 511.051 C 252.083 512.680, 271.161 511.755, 281.330 509.092 C 311.476 501.196, 335.711 482.379, 350 455.772 C 354.227 447.900, 360 432.401, 360 428.922 C 360 427.038, 357.926 427, 256 427 C 155.030 427, 152 427.055, 152 428.872" stroke="none" fill="black" fill-rule="evenodd"/>
</svg>