<svg xmlns="http://www.w3.org/2000/svg" width="512" height="512" viewBox="0 0 512 512" version="1.1">
	<path d="M 270 18.166 C 240.205 20.969, 206.804 32.112, 180.419 48.049 C 152.644 64.826, 124.204 92.676, 105.254 121.656 C 87.867 148.247, 75.448 181.124, 70.359 214.036 C 67.879 230.078, 67.887 263.178, 70.374 279 C 78.471 330.497, 100.978 375.003, 137.070 410.881 C 181.313 454.862, 245.203 480.265, 305 477.651 C 344.395 475.929, 382.536 464.210, 415.726 443.630 C 425.389 437.638, 427.056 435.930, 426.250 432.847 C 425.494 429.955, 422.238 429.733, 413 431.944 C 408.325 433.063, 398.200 434.712, 390.500 435.610 C 331.279 442.515, 268.644 420.529, 223.632 377.035 C 186.962 341.602, 164.955 296.360, 158.943 244.045 C 157.253 229.339, 158.230 201.794, 161.002 186 C 168.359 144.077, 188.163 104.826, 217.372 74.273 C 235.213 55.611, 253.542 42.187, 277.729 30.071 C 288.918 24.466, 290.781 22.560, 288.396 19.155 C 286.710 16.749, 285.661 16.692, 270 18.166 M 379.745 168.043 L 360.128 187.500 358.062 194.500 C 356.925 198.350, 354.908 206.998, 353.578 213.717 C 350.832 227.591, 347.683 234.404, 341.611 239.601 C 336.908 243.627, 328.439 247, 323.035 247 C 316.399 247, 303.781 249.081, 297.500 251.210 C 275.422 258.697, 258.199 276.074, 251.123 298 C 248.920 304.826, 245.352 327.794, 242.404 354.129 L 240.654 369.758 244.490 373.129 C 268.255 394.015, 300.265 409.671, 333.231 416.530 C 348.531 419.714, 371.718 420.816, 387 419.087 C 401.314 417.467, 401 417.607, 401 412.867 C 401 407.903, 399.726 405.432, 396.220 403.596 C 391.993 401.383, 386.869 395.902, 384.905 391.492 C 382.037 385.050, 377.754 357.742, 378.242 349 C 378.799 339.017, 381 334.489, 390.875 323 C 396.338 316.645, 400.514 310.521, 403.491 304.500 C 411.246 288.814, 411.653 276.474, 404.934 260.686 C 399.775 248.561, 401.217 235.730, 408.566 228.381 C 413.262 223.686, 417.761 222.014, 425.727 222.006 C 431.608 221.999, 432.848 220.843, 435.051 213.320 C 436.248 209.229, 436.197 209.048, 432.663 204.919 C 428.693 200.281, 426.674 195.506, 424.969 186.724 C 423.573 179.532, 419.248 174.944, 411.121 172.034 C 398.979 167.687, 397.393 165.651, 399.072 156.570 C 399.651 153.437, 399.953 150.359, 399.743 149.730 C 399.534 149.101, 390.535 157.342, 379.745 168.043 M 133 452.641 C 112.659 456.397, 95.273 464.914, 82.300 477.480 C 77.760 481.877, 77 483.150, 77 486.352 C 77 491.035, 80.585 495, 84.820 495 C 87.861 495, 90.260 493.456, 98.383 486.273 C 104.010 481.298, 118.752 473.758, 127.500 471.382 C 132.136 470.123, 138.843 469.712, 157 469.574 C 169.925 469.476, 181.742 469.032, 183.261 468.587 C 185.904 467.812, 185.639 467.552, 176.980 462.435 C 172.007 459.496, 166.490 456.059, 164.719 454.796 C 161.793 452.709, 160.316 452.485, 148.500 452.340 C 141.350 452.252, 134.375 452.387, 133 452.641" stroke="none" fill="black" fill-rule="evenodd"/>
</svg>