<svg xmlns="http://www.w3.org/2000/svg" width="512" height="512" viewBox="0 0 512 512" version="1.1">
	<path d="M 384.810 53.990 C 368.157 56.064, 353.896 63.016, 339.723 75.970 C 328.378 86.339, 328.507 98.785, 340.007 103.386 C 347.446 106.363, 352.686 104.893, 364.379 96.549 C 367.881 94.050, 373.391 90.767, 376.623 89.253 C 381.868 86.796, 383.631 86.500, 393.021 86.500 C 402.882 86.500, 403.959 86.705, 410.180 89.768 C 422.562 95.863, 432.265 109.425, 437.175 127.500 C 440.290 138.966, 440.343 165.378, 437.278 178.559 C 429.804 210.703, 410.056 234.996, 391.398 234.999 C 385.719 235, 386.810 235.641, 368.139 221.342 C 344.475 203.220, 325.951 193.951, 285.569 180.026 C 261.967 171.888, 252.257 166.976, 240.160 157.058 C 233.628 151.703, 224.840 140.294, 218.382 128.787 C 195.315 87.682, 176.245 74.316, 123 61.933 C 101.605 56.957, 95 56.974, 95 62.003 C 95 62.971, 98.600 68.737, 103 74.817 C 107.400 80.897, 111 86.722, 111 87.762 C 111 88.801, 109.811 90.742, 108.358 92.076 C 103.852 96.209, 98.028 106.097, 95.823 113.356 C 93.965 119.473, 93.814 121.490, 94.544 130.397 C 95.857 146.415, 95.607 151.029, 93.055 157.852 C 89.809 166.533, 90.646 168.027, 101.650 173.183 C 113.377 178.679, 120.969 179.931, 128.664 177.638 C 139.006 174.557, 140.548 174.289, 142.903 175.160 C 145.505 176.122, 145.488 177.008, 142.634 189.500 C 138.956 205.596, 142.558 228.414, 151.049 242.807 C 154.746 249.075, 157.011 247.869, 122.500 258 C 86.732 268.499, 80.237 271.201, 75.341 277.620 C 73.299 280.297, 72.509 282.645, 72.196 286.964 C 71.665 294.314, 73.872 299.225, 79.333 302.839 C 82.735 305.090, 84.443 305.500, 90.427 305.500 C 96.841 305.500, 98.420 305.052, 107.371 300.694 C 112.800 298.051, 121.350 294.813, 126.371 293.499 C 146.303 288.283, 188.364 284.061, 200.722 286.036 C 204.214 286.593, 210.993 288.876, 215.786 291.108 C 237.330 301.142, 275.473 315, 281.546 315 C 283.963 315, 284.150 314.739, 283.515 312.250 C 281.195 303.158, 280.033 295.679, 280.017 289.750 C 280.001 283.231, 280.085 283, 282.474 283 C 285.563 283, 286.720 285.182, 290.958 299 C 300.600 330.441, 314.641 349.387, 350.961 379.967 C 357.567 385.530, 363.429 390.933, 363.986 391.975 C 365.689 395.155, 365.121 398.245, 361.738 404.206 C 356.248 413.880, 349.490 421.572, 339.481 429.541 C 334.201 433.744, 329.458 438.297, 328.940 439.657 C 326.601 445.809, 329.402 452.579, 335.844 456.341 C 340.674 459.162, 350.932 459.070, 357.460 456.147 C 365.500 452.548, 386.122 429.995, 398.743 411 C 406.650 399.099, 407.431 397.215, 407.448 390 C 407.462 384.332, 406.989 382.661, 403.759 376.952 C 399.218 368.926, 397.297 363.619, 396.004 355.524 C 394.556 346.462, 396.157 339.505, 403.025 325 C 410.816 308.544, 412.128 303.357, 412.557 287.288 C 412.950 272.578, 413.871 269.624, 419.235 265.877 C 421.031 264.622, 426.201 260.467, 430.725 256.643 C 461.567 230.569, 477.405 192.455, 475.662 148.500 C 474.398 116.613, 466.511 95.021, 449.636 77.251 C 434.922 61.758, 420.380 54.910, 399.500 53.642 C 395.100 53.375, 388.490 53.531, 384.810 53.990 M 49.764 204.996 C 44.775 206.498, 40.453 209.849, 38.096 214.043 C 33.545 222.140, 36.893 233.153, 45.302 237.751 C 47.959 239.204, 51.293 239.515, 65 239.591 C 78.458 239.665, 84.266 240.191, 96.500 242.445 C 119.279 246.642, 119.875 246.662, 127.708 243.532 C 137.210 239.734, 137.132 239.843, 134.779 233.718 C 133.676 230.848, 132.035 224.225, 131.132 219 L 129.490 209.500 114.995 208.833 C 107.023 208.466, 92.514 207.229, 82.753 206.083 C 64.297 203.917, 54.427 203.592, 49.764 204.996 M 275.253 327.784 C 274.071 330.864, 279.097 351.425, 284.649 366.219 C 288.792 377.261, 290.011 381.674, 289.526 383.881 C 287.997 390.841, 264.299 408.469, 247.521 415.127 C 235.706 419.815, 230.867 427.962, 234.921 436.337 C 238.042 442.784, 241.738 444.500, 252.500 444.500 C 261.072 444.500, 261.833 444.316, 268.500 440.638 C 272.350 438.513, 282.690 432.049, 291.477 426.271 C 325.034 404.210, 334.989 394.413, 333.691 384.731 C 333.231 381.300, 331.411 379.027, 319.221 366.653 C 310.423 357.722, 303.232 349.364, 299.731 344 C 292.203 332.464, 288.923 329.710, 279.694 327.175 C 276.460 326.287, 275.792 326.379, 275.253 327.784" stroke="none" fill="black" fill-rule="evenodd"/>
</svg>