<svg xmlns="http://www.w3.org/2000/svg" width="512" height="512" viewBox="0 0 512 512" version="1.1">
	<path d="M 235.500 34.499 C 185.006 41.686, 143.632 62.105, 109.447 96.711 C 63.198 143.530, 38.571 213.859, 45.063 280.576 C 53.133 363.503, 103.755 430.245, 183.914 463.640 C 227.693 481.879, 273.581 484.788, 321.974 472.394 C 374.058 459.054, 421.197 425.765, 450.840 381.388 C 456.758 372.528, 464 359.990, 464 358.604 C 464 358.202, 460.856 360.688, 457.013 364.128 C 436.153 382.806, 405.122 400.105, 377.413 408.506 C 325.550 424.230, 271.427 417.345, 224.615 389.069 C 187.094 366.406, 157.142 328.444, 143.688 286.500 C 137.672 267.747, 135.790 255.975, 135.247 233.708 C 134.703 211.360, 136.118 197.823, 141.051 178.190 C 156.963 114.866, 217.137 58.850, 290.914 38.683 C 306.768 34.349, 305.614 34.040, 271.500 33.493 C 252.412 33.187, 242.842 33.454, 235.500 34.499 M 365.610 189.520 C 348.057 195.569, 326.893 223.229, 316.897 253.184 C 315.188 258.308, 313.709 262.590, 313.612 262.699 C 313.515 262.809, 309.095 263.838, 303.791 264.988 C 286.477 268.739, 270.826 274.926, 260.180 282.229 C 257.804 283.859, 255.741 285.037, 255.597 284.846 C 255.453 284.656, 254.302 281.680, 253.040 278.234 C 250.164 270.384, 244.394 262.238, 239.120 258.583 C 236.894 257.040, 232.018 254.623, 228.286 253.212 C 222.273 250.939, 219.649 250.598, 205.253 250.221 L 189.005 249.795 185.503 253.297 C 182.612 256.188, 182 257.533, 182 260.996 C 182 269.063, 188.391 274.214, 200.533 275.933 C 210.637 277.364, 213.943 280.257, 215.998 289.469 C 218.521 300.778, 212.471 317.237, 200.603 331.352 C 196.909 335.745, 194 340.160, 194 341.373 C 194 343.611, 206.692 356.768, 216.500 364.698 C 240.510 384.112, 274.762 398.050, 304.608 400.553 L 312.716 401.233 315.771 393.867 C 321.123 380.964, 321.763 371.146, 317.660 364.885 C 315.042 360.889, 307.251 357.223, 297.946 355.608 C 291.642 354.514, 289.096 353.602, 287.770 351.964 C 285.429 349.073, 285.533 345.863, 288.073 342.635 C 289.971 340.221, 290.748 340.002, 297.323 340.021 C 314.719 340.072, 330.288 350.556, 335.014 365.404 C 336.850 371.172, 335.748 386.035, 332.913 393.726 C 331.651 397.150, 330.817 400.126, 331.059 400.339 C 331.623 400.834, 343.510 399.509, 352.250 397.978 L 359 396.795 359 382.584 L 359 368.374 362.102 365.437 C 370.450 357.532, 377.591 344.719, 381.065 331.410 C 383.303 322.834, 383.833 304.087, 382.161 292.640 L 381.305 286.780 386.402 283.560 C 389.206 281.789, 395.100 278.388, 399.500 276.002 C 412.610 268.891, 415.561 266.522, 418.400 260.824 C 423.764 250.062, 420.074 241.768, 408.191 237.873 C 404.326 236.606, 403.650 235.892, 401.644 230.956 C 396.898 219.279, 387.870 210.031, 377.313 206.031 L 372.500 204.208 372.208 197.191 C 371.858 188.779, 370.921 187.690, 365.610 189.520" stroke="none" fill="black" fill-rule="evenodd"/>
</svg>