<svg xmlns="http://www.w3.org/2000/svg" width="512" height="512" viewBox="0 0 512 512" version="1.1">
	<path d="M 148.016 51.250 C 148.025 79.438, 148.445 107.481, 148.949 113.568 C 149.944 125.598, 152.667 137.650, 156.622 147.528 L 159.141 153.821 154.413 162.154 C 149.546 170.730, 141.284 188.578, 139.058 195.325 C 138.096 198.239, 137.411 198.983, 136.150 198.485 C 135.242 198.126, 127.837 195.331, 119.693 192.273 C 111.549 189.216, 105.249 186.364, 105.693 185.935 C 106.137 185.506, 112.310 182.844, 119.412 180.019 C 126.514 177.195, 133.637 174.205, 135.241 173.375 C 138.724 171.574, 141.358 165.905, 140.508 162.037 C 139.606 157.930, 134.830 153.823, 130.845 153.727 C 127.651 153.650, 71.363 175.743, 68.074 178.364 C 65.164 180.684, 1.020 267.071, 0.414 269.489 C -0.383 272.663, 0.475 276.138, 2.737 278.896 C 3.881 280.290, 14.865 285.009, 34 292.327 L 63.500 303.608 64 369.282 L 64.500 434.955 67 437.402 C 68.685 439.051, 99.151 451.501, 160.500 475.612 C 232.127 503.762, 252.458 511.377, 256 511.383 C 259.564 511.390, 279.430 503.953, 351.500 475.633 C 413.405 451.308, 443.299 439.089, 445 437.415 L 447.500 434.955 448 369.332 L 448.500 303.709 466.500 296.810 C 510.813 279.824, 507.882 281.148, 510.554 276.915 C 512.965 273.095, 513.964 267.286, 512 268.500 C 511.450 268.840, 511 268.649, 511 268.077 C 511 266.907, 446.152 180.151, 443.926 178.342 C 441.041 175.998, 390.311 158, 386.590 158 C 381.044 158, 377 162.338, 377 168.287 C 377 174.718, 379.741 176.941, 394.018 182.089 C 400.604 184.464, 405.657 186.711, 405.246 187.083 C 404.355 187.890, 385.338 195, 384.070 195 C 383.585 195, 380.901 190.466, 378.108 184.925 C 375.314 179.383, 370.488 170.953, 367.384 166.192 L 361.741 157.534 363.524 153.017 C 373.504 127.734, 373.249 130.046, 373.716 60.750 L 374.126 0 363.313 0.004 L 352.500 0.009 320.500 18.987 L 288.500 37.964 261.198 37.982 L 233.897 38 202 19 L 170.103 0 159.052 0 L 148 0 148.016 51.250 M 170 69.701 C 170 96.678, 170.420 117.004, 171.051 120.566 C 172.556 129.061, 175.714 138.361, 180.029 147.005 L 183.776 154.511 176.959 165.852 C 170.540 176.531, 159.882 198.639, 158.502 204.135 C 157.885 206.595, 158.486 206.856, 206.188 224.826 C 232.760 234.836, 255.175 243.031, 256 243.036 C 257.339 243.045, 361.803 204.202, 362.981 203.258 C 363.574 202.781, 356.184 188.249, 351.980 181.625 L 348.886 176.750 341.193 184.522 C 320.628 205.298, 291.450 218, 264.292 218 C 257.396 218, 256.630 217.784, 253.923 215.077 C 251.633 212.787, 251 211.257, 251 208.011 C 251 199.826, 254.166 197.608, 267.314 196.576 C 290.476 194.760, 311.157 184.994, 327.061 168.362 C 341.971 152.770, 349.892 135.254, 351.977 113.268 C 352.929 103.228, 353.482 25, 352.600 25 C 352.381 25, 339.325 32.650, 323.587 42 L 294.974 59 261.295 59 L 227.615 59 201.058 43.321 C 186.451 34.698, 173.488 26.996, 172.250 26.206 L 170 24.770 170 69.701 M 211.718 94.376 C 201.029 98.362, 194 107.811, 194 118.195 C 194 124.784, 200.124 128.808, 206.455 126.379 C 208.432 125.620, 211 120.871, 211 117.973 C 211 114.949, 216.276 110, 219.500 110 C 223.274 110, 228 114.987, 228 118.969 C 228 125.013, 235.342 129.028, 240.929 126.038 C 247.287 122.635, 245.561 109.589, 237.638 101.162 C 231.179 94.293, 219.877 91.334, 211.718 94.376 M 297.994 93.875 C 290.354 96.380, 284.362 101.738, 281.079 109 C 276.676 118.736, 279.626 127, 287.502 127 C 291.974 127, 296 123.104, 296 118.777 C 296 114.989, 300.832 110, 304.500 110 C 308.274 110, 313 114.987, 313 118.969 C 313 126.360, 322.503 129.784, 327.656 124.250 C 329.908 121.830, 330.153 120.883, 329.692 116.363 C 328.801 107.628, 323.475 99.872, 315.572 95.801 C 311.285 93.593, 301.968 92.572, 297.994 93.875 M 254.073 148.635 C 247.866 156.525, 258.476 166.615, 265.545 159.545 C 270.827 154.264, 267.297 146, 259.758 146 C 257.046 146, 255.628 146.657, 254.073 148.635 M 53.135 233.154 C 39.371 251.494, 28.423 266.798, 28.805 267.162 C 29.616 267.934, 186.728 328, 187.937 328 C 189.369 328, 239.212 260.807, 238.339 260.054 C 237.501 259.332, 83.512 201.208, 80.008 200.292 C 78.541 199.908, 72.994 206.691, 53.135 233.154 M 352.681 229.969 C 309.331 246.378, 273.635 260.032, 273.357 260.310 C 272.685 260.982, 322.986 328, 324.163 328 C 325.444 328, 482.343 267.981, 483.195 267.166 C 484.140 266.260, 434.306 199.983, 432.743 200.067 C 432.059 200.104, 396.032 213.560, 352.681 229.969 M 0.232 272 C 0.232 273.925, 0.438 274.712, 0.689 273.750 C 0.941 272.788, 0.941 271.212, 0.689 270.250 C 0.438 269.288, 0.232 270.075, 0.232 272 M 221.758 319.319 C 199.871 348.531, 196.709 352, 191.964 352 C 190.517 352, 130.329 329.384, 86.742 312.462 C 85.075 311.815, 84.997 314.678, 85.242 367.464 L 85.500 423.148 164.817 454.174 C 208.441 471.238, 244.331 485.002, 244.572 484.762 C 244.813 484.521, 244.895 440.368, 244.755 386.645 L 244.500 288.966 221.758 319.319 M 267 386.800 C 267 440.810, 267.337 485, 267.750 484.999 C 268.163 484.999, 304.050 471.090, 347.500 454.089 L 426.500 423.180 426.758 367.480 C 427.003 314.674, 426.926 311.816, 425.258 312.478 C 400.591 322.269, 321.435 352, 320.032 352 C 315.317 352, 312.152 348.536, 290.875 320.092 C 278.700 303.816, 268.348 290.072, 267.869 289.550 C 267.376 289.011, 267 331.108, 267 386.800" stroke="none" fill="black" fill-rule="evenodd"/>
</svg>