<svg xmlns="http://www.w3.org/2000/svg" width="512" height="512" viewBox="0 0 512 512" version="1.1">
	<path d="M 140.500 1.832 C 138.300 2.886, 135.286 5.042, 133.803 6.624 C 128.992 11.754, 128 15.728, 128 29.865 L 128 42.795 107.750 43.278 C 84.458 43.833, 77.764 45.189, 62.302 52.484 C 49.676 58.441, 42.977 63.060, 32.829 72.806 C 18.149 86.903, 8.430 103.357, 3.301 122.794 C 1.113 131.087, 0.669 135.302, 0.252 151.752 L -0.237 171.004 256.131 170.752 L 512.500 170.500 512.775 153.676 C 512.959 142.380, 512.712 137.060, 512.025 137.485 C 511.414 137.862, 511 136.933, 511 135.187 C 511 129.829, 506.192 113.204, 502.144 104.567 C 496.501 92.525, 489.215 82.451, 479.171 72.806 C 469.027 63.064, 462.330 58.446, 449.698 52.480 C 434.094 45.110, 427.522 43.776, 404.250 43.251 L 384 42.795 383.978 29.647 C 383.953 14.624, 382.765 10.635, 376.743 5.347 C 371.965 1.152, 366.951 -0.378, 360.248 0.314 C 353.267 1.034, 347.969 4.495, 344.305 10.728 C 341.663 15.223, 341.480 16.298, 341.154 29.250 L 340.808 43 256 43 L 171.192 43 170.846 29.250 C 170.520 16.298, 170.337 15.223, 167.695 10.728 C 163.761 4.035, 158.622 0.881, 150.780 0.346 C 145.991 0.019, 143.550 0.372, 140.500 1.832 M 0.409 154.500 C 0.408 163.850, 0.558 167.810, 0.743 163.299 C 0.928 158.789, 0.929 151.139, 0.745 146.299 C 0.562 141.460, 0.410 145.150, 0.409 154.500 M 0.252 317.750 C 0.563 421.652, 0.583 422.566, 2.740 430.635 C 8.019 450.383, 17.160 466.286, 31.437 480.564 C 47.882 497.009, 66.327 506.616, 89 510.544 C 96.055 511.766, 109.765 511.973, 169.668 511.758 L 241.836 511.500 234.339 505.061 C 207.981 482.423, 185.153 444.428, 176.478 408.757 C 165.316 362.858, 171.308 313.972, 193.104 273.127 C 203.206 254.194, 214.422 239.563, 231.042 223.638 L 242.143 213 121.041 213 L -0.062 213 0.252 317.750 M 350 213.603 C 337.482 215.125, 325.975 217.610, 315.888 220.971 C 292.524 228.754, 275.491 239.380, 257.436 257.436 C 239.375 275.496, 228.743 292.541, 220.976 315.888 C 215.346 332.810, 213.647 343.597, 213.634 362.500 C 213.617 387.701, 217.675 405.539, 228.421 427.500 C 237.846 446.761, 248.677 461.191, 263.500 474.231 C 283.944 492.217, 308.131 504.117, 335.536 509.673 C 348.893 512.380, 378.863 512.121, 392.266 509.181 C 405.973 506.174, 415.764 502.763, 428.500 496.557 C 443.316 489.337, 455.395 480.605, 468 468 C 489.374 446.626, 502.588 422.326, 509.181 392.266 C 512.121 378.863, 512.380 348.893, 509.673 335.536 C 504.248 308.780, 493.197 285.844, 475.857 265.357 C 454.183 239.748, 421.916 221.407, 388.013 215.426 C 379.440 213.913, 356.498 212.813, 350 213.603 M 352.907 301.307 C 350.240 302.703, 347.248 305.464, 345.330 308.300 C 341.243 314.343, 340.676 319.599, 341.196 346.624 C 341.522 363.579, 341.922 368.239, 343.324 371.432 C 345.607 376.632, 376.302 407.392, 381.286 409.475 C 388.634 412.545, 399.277 410.843, 404.868 405.702 C 410.457 400.564, 412.704 389.014, 409.572 381.518 C 408.787 379.639, 402.712 372.519, 396.072 365.696 L 384 353.291 384 335.511 C 384 325.082, 383.528 316.157, 382.859 313.922 C 379.151 301.547, 364.354 295.315, 352.907 301.307" stroke="none" fill="black" fill-rule="evenodd"/>
</svg>