<svg xmlns="http://www.w3.org/2000/svg" width="512" height="512" viewBox="0 0 512 512" version="1.1">
	<path d="M 168.500 48.010 C 148.412 51.231, 132.194 66.356, 127.506 86.240 C 126.654 89.852, 126.023 97.426, 126.015 104.146 L 126 115.792 86.750 116.271 C 54.795 116.660, 46.479 117.047, 42.008 118.348 C 22.036 124.162, 6.145 140.557, 1.537 160.103 C -0.702 169.602, -0.735 411.259, 1.502 420.745 C 6.177 440.571, 21.369 456.492, 41.500 462.661 C 47.243 464.421, 56.439 464.500, 256 464.500 C 455.561 464.500, 464.757 464.421, 470.500 462.661 C 489.991 456.688, 505.894 440.470, 510.026 422.355 C 510.634 419.685, 511.553 416.719, 512.066 415.764 C 513.285 413.497, 513.330 163.678, 512.112 164.431 C 511.624 164.733, 510.920 162.955, 510.549 160.480 C 508.597 147.462, 495.117 129.904, 481.945 123.223 C 469.519 116.921, 468.323 116.774, 425.250 116.268 L 386 115.807 385.985 104.153 C 385.977 97.427, 385.346 89.853, 384.494 86.240 C 380.480 69.212, 368.773 56.362, 351.202 49.696 C 345.530 47.544, 345.042 47.532, 259.500 47.370 C 212.200 47.281, 171.250 47.569, 168.500 48.010 M 0.485 290.500 C 0.485 359.800, 0.604 388.003, 0.750 353.172 C 0.896 318.342, 0.896 261.642, 0.750 227.172 C 0.604 192.703, 0.485 221.200, 0.485 290.500 M 237.500 167.066 C 206.838 172.920, 185.330 184.277, 165.482 205.091 C 148.849 222.534, 137.476 245.185, 132.891 270 C 131.100 279.691, 131.352 302.850, 133.361 313.210 C 136.762 330.754, 144.955 349.803, 155.092 363.741 C 168.875 382.691, 190.457 399.171, 212.205 407.351 C 227.211 412.995, 236.180 414.449, 256 414.449 C 272.090 414.449, 275.738 414.142, 284 412.089 C 301.234 407.808, 318.345 399.882, 330.955 390.339 C 354.455 372.554, 372.028 344.723, 378.145 315.600 C 380.894 302.510, 381.124 280.528, 378.645 267.790 C 368.990 218.168, 331.461 179.611, 282 168.496 C 273.192 166.516, 245.104 165.614, 237.500 167.066 M 241.500 209.069 C 216.835 213.181, 193.966 230.392, 182.461 253.500 C 176.296 265.883, 173.865 275.868, 173.696 289.500 C 173.520 303.748, 175.721 313.565, 181.993 326.500 C 190.387 343.815, 202.344 355.905, 219.500 364.427 C 233.038 371.151, 238.942 372.449, 256 372.449 C 273.058 372.449, 278.962 371.151, 292.500 364.427 C 309.681 355.893, 321.642 343.790, 329.983 326.500 C 336.473 313.047, 338.441 304.433, 338.322 290 C 337.941 243.806, 301.023 207.529, 255 208.125 C 250.325 208.186, 244.250 208.610, 241.500 209.069" stroke="none" fill="black" fill-rule="evenodd"/>
</svg>