<svg xmlns="http://www.w3.org/2000/svg" width="512" height="512" viewBox="0 0 512 512" version="1.1">
	<path d="M 291.545 69.250 C 289.808 70.774, 286.897 76.906, 282.530 88.244 C 276.798 103.129, 275.376 105.855, 269.730 112.792 C 258.938 126.050, 254.535 135.297, 251.060 152 L 249.292 160.500 235.502 161.193 C 139.280 166.024, 78.931 216.960, 78.833 293.423 C 78.801 318.881, 83.666 339.343, 95.251 362.479 C 117.324 406.558, 155.897 436.163, 200.892 443.560 C 209.053 444.901, 214.851 445.147, 227.892 444.704 C 252.860 443.856, 270.738 439.109, 296.568 426.468 C 316.236 416.842, 323.361 409.409, 323.377 398.500 C 323.388 391.576, 320.634 386.358, 315.126 382.865 C 307.112 377.783, 299.161 379.026, 287.178 387.234 C 280.079 392.098, 265.072 398.673, 256 400.895 C 232.460 406.660, 211.524 403.455, 190.251 390.831 C 178.603 383.918, 160.431 363.455, 155.535 351.739 L 154.182 348.500 270.341 348.500 C 380.753 348.500, 386.632 348.411, 389.164 346.691 C 392.802 344.221, 395.336 338.604, 394.594 334.653 C 394.238 332.757, 391.155 328.157, 386.861 323.116 L 379.721 314.732 380.318 302.616 C 381.185 285.037, 384.889 270.131, 392.587 253.239 C 396.637 244.352, 406.791 228.785, 413.942 220.500 C 421.298 211.977, 425.461 204.725, 428.898 194.446 C 434.008 179.160, 434.703 161.706, 430.928 143.432 C 429.985 138.863, 429.927 133.266, 430.688 119.966 C 431.823 100.104, 431.289 97.235, 425.940 94.469 C 420.207 91.505, 417.658 92.888, 404.281 106.225 L 392.063 118.407 389.781 116.299 C 383.040 110.067, 365.161 103.157, 350.071 100.950 C 342.254 99.807, 327.296 100.124, 320.995 101.566 C 318.577 102.120, 318.302 101.627, 313.027 87.320 C 306.703 70.164, 304.384 67, 298.133 67 C 295.390 67, 293.296 67.715, 291.545 69.250 M 296.070 79.250 C 295.450 81.037, 292.476 88.800, 289.459 96.500 C 284.878 108.195, 283.059 111.570, 278.412 117 C 267.441 129.820, 262.549 140.421, 259.503 157.983 C 258.598 163.199, 257.442 167.967, 256.934 168.579 C 256.381 169.246, 249.921 169.967, 240.811 170.378 C 179.609 173.140, 135.767 191.657, 110.075 225.595 C 83.418 260.807, 80.932 312.832, 103.724 358.500 C 116.948 384.997, 139.333 408.385, 163.836 421.304 C 201.725 441.282, 246.124 440.471, 290.500 418.991 C 308.788 410.139, 313.988 405.532, 313.996 398.173 C 314.001 393.942, 309.386 389, 305.430 389 C 303.852 389, 297.828 391.897, 291.104 395.890 C 268.853 409.103, 252.834 413.589, 231 412.721 C 216.275 412.136, 208.900 410.377, 196.148 404.408 C 184.485 398.948, 176.017 392.951, 166.901 383.694 C 141.490 357.891, 130.799 319.578, 139.567 285.740 C 142.803 273.253, 145.092 269.947, 149.368 271.588 C 152.053 272.618, 152.274 276.279, 150.094 283.606 C 145.963 297.492, 145.033 310.416, 147.143 324.603 C 148.036 330.611, 148.892 332.967, 151.061 335.394 L 153.835 338.500 234.804 338.767 C 308.124 339.009, 315.831 338.884, 316.384 337.441 C 316.792 336.379, 315.208 333.955, 311.634 330.174 C 308.684 327.053, 305.760 323.517, 305.136 322.316 C 304.471 321.037, 304 315.111, 304 308.024 C 304 284.305, 298.355 268.385, 285.486 255.810 C 276.638 247.164, 264.942 243, 249.507 243 C 242.159 243, 240.933 242.743, 239.667 240.935 C 237.701 238.128, 238.686 235.134, 241.869 234.239 C 246.210 233.019, 260.168 233.672, 267.053 235.417 C 284.729 239.897, 297.595 250.867, 305.975 268.603 C 311.054 279.352, 313.155 289.666, 313.457 305.329 L 313.724 319.158 318.748 324.329 C 324.468 330.218, 326 332.778, 326 336.449 L 326 339.030 355.237 338.765 C 380.379 338.537, 384.514 338.288, 384.764 336.990 C 384.924 336.159, 381.955 331.816, 378.168 327.339 C 371.810 319.824, 371.231 318.749, 370.631 313.349 C 369.223 300.691, 373.305 276.334, 379.651 259.518 C 385.330 244.470, 395.477 227.588, 406.410 215 C 412.820 207.620, 419.174 195.577, 421.712 186 C 424.074 177.086, 424.054 155.160, 421.675 145.598 C 420.150 139.465, 420.079 136.753, 421.044 121.246 C 421.641 111.648, 421.845 103.512, 421.498 103.165 C 421.151 102.817, 414.768 108.713, 407.315 116.267 C 399.861 123.820, 393.169 130, 392.442 130 C 391.716 130, 389.052 128.209, 386.523 126.020 C 377.994 118.638, 369.208 114.612, 354.500 111.346 C 345.276 109.298, 329.010 109.320, 322.500 111.389 C 315.302 113.677, 313.282 113.464, 311.683 110.250 C 310.931 108.737, 307.697 100.412, 304.497 91.750 C 301.296 83.088, 298.344 76, 297.937 76 C 297.529 76, 296.689 77.463, 296.070 79.250 M 309 142.706 C 306.219 143.723, 303.108 147.233, 302.488 150.053 C 301.771 153.319, 304.068 158.431, 306.945 159.970 C 314.960 164.260, 324.260 154.960, 319.970 146.945 C 318.126 143.499, 312.635 141.377, 309 142.706 M 373.923 159.923 C 365.633 168.213, 377.079 181.232, 386.288 173.988 C 391.360 169.998, 390.596 161.394, 384.909 158.453 C 380.567 156.208, 377.186 156.660, 373.923 159.923 M 331.571 173.571 C 330.707 174.436, 330 175.707, 330 176.396 C 330 178.411, 334.860 192.127, 336.107 193.628 C 338.622 196.659, 341.773 195.155, 347.953 187.974 C 351.279 184.110, 354 180.355, 354 179.629 C 354 177.182, 350.537 175.234, 343.303 173.613 C 334.399 171.618, 333.528 171.615, 331.571 173.571" stroke="none" fill="black" fill-rule="evenodd"/>
</svg>