<svg xmlns="http://www.w3.org/2000/svg" width="512" height="512" viewBox="0 0 512 512" version="1.1">
	<path d="M 247.018 199.077 C 244.553 200.195, 241.781 201.794, 240.857 202.629 C 239.934 203.465, 234.600 205.206, 229.005 206.499 C 222.539 207.993, 218.294 209.515, 217.360 210.675 C 211.487 217.967, 210.288 229.172, 214.481 237.586 C 217.763 244.173, 239.880 266.139, 246.046 268.936 C 251.994 271.634, 261.011 271.632, 266.963 268.931 C 269.828 267.632, 275.814 262.519, 283.675 254.659 C 298.370 239.963, 301.585 234.387, 300.739 225.058 C 300.151 218.575, 297.039 211.706, 293.737 209.607 C 292.507 208.824, 287.900 207.420, 283.500 206.485 C 279.036 205.537, 273.866 203.685, 271.802 202.293 C 263.598 196.762, 254.674 195.604, 247.018 199.077 M 39.009 213.239 C 36.164 214.736, 35.294 217.445, 36.999 219.499 C 38.344 221.119, 41.035 221.503, 61.500 222.992 C 94.667 225.406, 130.585 232.595, 166.592 244.029 C 173.560 246.242, 180.090 247.789, 181.104 247.467 C 184.092 246.518, 187 242.007, 187 238.320 C 187 233.122, 183.679 230.575, 172.358 227.092 C 150.801 220.460, 127.811 216.815, 93.500 214.591 C 54.667 212.074, 41.828 211.756, 39.009 213.239 M 450 212.693 C 429.453 213.501, 393.961 216.301, 381.500 218.096 C 355.674 221.816, 331.704 228.205, 327.392 232.517 C 323.159 236.750, 325.251 245.675, 330.896 247.467 C 331.910 247.789, 338.535 246.211, 345.620 243.960 C 379.133 233.314, 411.095 226.657, 443.911 223.488 C 452.386 222.670, 461.836 221.993, 464.911 221.985 C 471.919 221.967, 475.500 220.281, 475.500 217 C 475.500 212.271, 472.708 211.799, 450 212.693 M 138.197 253.099 C 111.224 255.041, 78.358 260.065, 37 268.570 C 6.618 274.817, 1.347 276.331, 0.482 279.056 C -0.365 281.726, 0.515 282.772, 4.544 283.885 C 7.256 284.633, 11.025 284.220, 21.758 281.996 C 59.481 274.182, 106.871 270, 157.712 270 C 180.420 270, 182.989 269.641, 185.718 266.087 C 187.929 263.207, 187.257 257.530, 184.364 254.636 L 181.727 252 165.614 252.143 C 156.751 252.221, 144.414 252.652, 138.197 253.099 M 327.750 254.498 C 324.745 257.530, 324.032 263.156, 326.282 266.087 C 329.011 269.641, 331.580 270, 354.288 270 C 405.129 270, 452.519 274.182, 490.242 281.996 C 500.975 284.220, 504.744 284.633, 507.456 283.885 C 511.485 282.772, 512.365 281.726, 511.518 279.056 C 510.689 276.446, 505.572 274.905, 480 269.564 C 424.169 257.902, 390.780 253.374, 353 252.340 L 330.500 251.724 327.750 254.498 M 166 276.419 C 154.853 279.354, 134.024 286.280, 121.500 291.216 C 106.771 297.022, 86.757 306.048, 84.750 307.791 C 81.048 311.004, 83.676 315, 89.491 315 C 90.933 315, 95.800 313.487, 100.307 311.637 C 118.334 304.238, 125.022 302.433, 158.269 295.999 C 171.892 293.362, 184.148 290.478, 185.503 289.590 C 188.626 287.544, 189.581 283.817, 187.975 279.941 C 185.290 273.457, 180.292 272.656, 166 276.419 M 326.495 276.414 C 321.509 281.400, 322.308 287.857, 328.232 290.440 C 330.029 291.224, 342.525 293.968, 356 296.539 C 381.700 301.442, 397.314 305.656, 411.430 311.499 C 416.081 313.425, 421.067 315, 422.509 315 C 428.324 315, 430.952 311.004, 427.250 307.791 C 425.412 306.195, 406.116 297.402, 392.500 291.955 C 380.350 287.095, 356.664 279.238, 345.819 276.470 C 333.400 273.301, 329.619 273.290, 326.495 276.414" stroke="none" fill="black" fill-rule="evenodd"/>
</svg>