<svg xmlns="http://www.w3.org/2000/svg" width="512" height="512" viewBox="0 0 512 512" version="1.1">
	<path d="M 86 2.578 C 66.363 11.714, 35.764 44.649, 15.038 78.956 C 1.349 101.617, -2.196 115.043, 1.435 130.478 C 5.248 146.684, 14.988 155.316, 33.376 158.788 L 41.657 160.351 33.898 166.198 C 17.772 178.349, 5.711 193.932, 1.596 207.932 C -1.601 218.811, 0.450 239.014, 6.140 252.681 C 21.472 289.511, 61.094 312.032, 122 318.537 C 139.677 320.425, 180.323 320.425, 198 318.537 C 225.118 315.641, 247.713 309.674, 266.614 300.418 C 293.033 287.482, 311.102 266.705, 317.419 242 C 320.082 231.587, 320.621 215.646, 318.550 208.522 C 314.080 193.147, 302.149 177.896, 284.387 164.853 L 278.275 160.364 286.688 158.776 C 305.489 155.226, 315.659 145.618, 319.053 128.197 C 321.839 113.899, 318.029 100.587, 304.962 78.956 C 284.399 44.918, 254.107 12.204, 234.500 2.861 C 227.201 -0.618, 220.688 -0.861, 209.756 1.935 C 200.582 4.281, 195.223 6.926, 182.916 15.183 L 173.500 21.500 160 21.533 L 146.500 21.565 137.250 15.300 C 125.185 7.127, 119.452 4.290, 110.244 1.935 C 99.697 -0.763, 92.788 -0.580, 86 2.578 M 98 107.935 C 89.666 110.479, 82.092 116.898, 77.863 125 C 74.477 131.487, 74.460 145.388, 77.829 152.229 C 87.205 171.266, 112.236 176.146, 128.275 162.063 C 130.301 160.284, 133.339 156.025, 135.027 152.598 C 140.194 142.100, 139.045 129.265, 132.089 119.806 C 128.263 114.604, 122.077 110.128, 116.315 108.394 C 111.377 106.908, 102.124 106.676, 98 107.935 M 203.293 108.389 C 194.544 111.247, 186.366 119.373, 183.473 128.082 C 176.548 148.932, 191.249 170.074, 212.694 170.105 C 232.153 170.132, 246.154 155.339, 244.781 136.202 C 243.974 124.969, 237.661 115.487, 227.500 110.250 C 221.425 107.118, 209.897 106.232, 203.293 108.389 M 478 190.213 C 471.675 194.624, 457.856 204.108, 447.291 211.287 L 428.082 224.341 418.291 219.772 C 401 211.705, 385.059 207.081, 368.813 205.420 L 362.125 204.737 362.104 219.118 C 362.056 252.823, 352.209 279.497, 330.719 304.138 C 324.508 311.259, 324.200 311.841, 325.588 313.822 C 330.442 320.752, 331.606 334.581, 328.018 342.693 C 322.405 355.381, 312.091 362.143, 298.351 362.143 C 289.685 362.143, 283.436 359.506, 276.945 353.109 C 273.814 350.024, 271.067 346.891, 270.841 346.146 C 270.521 345.090, 268.495 345.475, 261.653 347.890 C 244.768 353.849, 220.874 359.041, 203.500 360.525 C 191.092 361.585, 192 360.774, 192 370.795 C 192 408.284, 207.022 443.889, 234.168 470.742 C 253.704 490.068, 275.825 502.238, 303.403 508.832 C 314.371 511.455, 314.929 511.486, 351.500 511.493 C 391.942 511.501, 394.814 511.202, 414.500 504.932 C 455.964 491.727, 491.727 455.964, 504.932 414.500 C 510.926 395.679, 511.503 390.959, 511.469 361 C 511.431 327.199, 508.726 292.929, 502.943 253 C 500.125 233.539, 490.776 181.983, 490.085 182.095 C 489.763 182.148, 484.325 185.801, 478 190.213 M 148 193.030 C 135.892 195.568, 127.953 201.994, 128.022 209.200 C 128.057 212.891, 131.809 220.188, 135.805 224.336 C 148.527 237.545, 171.473 237.545, 184.195 224.336 C 188.191 220.188, 191.943 212.891, 191.978 209.200 C 192.034 203.362, 186.235 197.476, 177.500 194.505 C 171.617 192.504, 154.576 191.652, 148 193.030 M 395.293 300.389 C 386.544 303.247, 378.366 311.373, 375.473 320.082 C 368.548 340.932, 383.249 362.074, 404.694 362.105 C 424.153 362.132, 438.154 347.339, 436.781 328.202 C 435.974 316.969, 429.661 307.487, 419.500 302.250 C 413.425 299.118, 401.897 298.232, 395.293 300.389 M 340 385.030 C 327.892 387.568, 319.953 393.994, 320.022 401.200 C 320.057 404.891, 323.809 412.188, 327.805 416.336 C 340.527 429.545, 363.473 429.545, 376.195 416.336 C 380.191 412.188, 383.943 404.891, 383.978 401.200 C 384.034 395.362, 378.235 389.476, 369.500 386.505 C 363.617 384.504, 346.576 383.652, 340 385.030" stroke="none" fill="black" fill-rule="evenodd"/>
</svg>