<svg xmlns="http://www.w3.org/2000/svg" width="512" height="512" viewBox="0 0 512 512" version="1.1">
	<path d="M 51.946 57.703 C 39.403 63.928, 30.496 77.608, 25.386 98.500 C 20.226 119.595, 22.165 137.719, 31.639 156.962 C 38.021 169.923, 49.212 181.190, 68 193.567 C 90.085 208.116, 96.503 215.497, 102.005 232.675 C 106.693 247.308, 106.274 251.437, 98.080 271.356 C 92.624 284.619, 91.585 291.582, 93.077 304.874 L 94.353 316.249 82.497 327.374 C 62.439 346.197, 49.506 363.321, 39.439 384.388 C 32.046 399.859, 29.613 407.896, 29.567 417 C 29.519 426.436, 31.873 433.514, 36.576 438.076 L 40.106 441.500 54.803 441.500 C 67.273 441.500, 69.475 441.273, 69.336 440 C 68.660 433.792, 67.465 430.644, 64.047 426.063 C 59.574 420.068, 57.596 412.879, 58.591 406.239 C 59.202 402.171, 59.868 401.391, 68.373 394.806 C 80.181 385.663, 92.663 377.260, 107 368.799 L 118.500 362.014 119.037 386.257 C 119.638 413.379, 119.668 413.517, 127.562 424.618 C 134.694 434.647, 147.166 444.861, 162.140 452.935 L 169.779 457.055 184.640 456.777 L 199.500 456.500 199.832 453.592 C 201.057 442.852, 192.557 434.046, 179.129 432.144 L 174.500 431.488 167.105 419.252 L 159.711 407.017 164.217 402.199 C 171.495 394.419, 177.404 385.804, 183.011 374.803 C 188.841 363.363, 190.238 361.445, 194.255 359.368 C 200.175 356.307, 221.022 352.767, 233.500 352.705 C 246.796 352.638, 252.388 353.513, 268.327 358.152 C 276.940 360.660, 279.060 361.631, 278.696 362.902 C 278.445 363.781, 276.602 369.840, 274.602 376.367 C 267.585 399.259, 264 422.291, 264 444.479 L 264 457.038 286.750 456.769 L 309.500 456.500 309.779 452 C 310.385 442.209, 303.169 436, 291.181 436 C 286.480 436, 284.911 435.669, 285.258 434.750 C 285.518 434.063, 289.886 422.025, 294.966 408 C 300.046 393.975, 305.264 380.649, 306.563 378.387 C 309.497 373.276, 314.503 368.817, 321.287 365.273 C 326.113 362.751, 327.538 362.525, 340.500 362.222 L 354.500 361.895 358.347 368.427 C 373.448 394.068, 402.939 423.968, 437.380 448.558 L 449.260 457.041 469.380 456.770 L 489.500 456.500 489.290 452.042 C 489.175 449.590, 488.251 446.440, 487.238 445.042 C 484.657 441.480, 477.582 438.183, 470.427 437.207 C 464.528 436.403, 464.151 436.165, 457.226 428.875 C 446.560 417.646, 431.622 399.588, 425.069 390 C 415.234 375.611, 409.739 362.893, 406.492 347 C 403.135 330.570, 405.683 303.344, 411.674 291.628 C 414.483 286.136, 419.114 280.982, 423.041 278.979 C 426.441 277.245, 428.188 277.102, 439.183 277.659 C 454.520 278.436, 461.107 276.893, 466.815 271.185 C 470.624 267.376, 475 257.852, 475 253.371 C 475 246.376, 468.218 238.550, 449.027 223.399 C 435.943 213.069, 433.595 210.775, 431.228 206 C 428.807 201.120, 428.515 199.459, 428.630 191.263 L 428.760 182.025 418.128 191.763 C 366.510 239.035, 362.858 242.039, 352.131 246.052 C 336.659 251.841, 322.288 250.818, 296 242.056 C 270.455 233.541, 239.972 227.304, 205.034 223.443 C 186.808 221.429, 157.612 221.901, 141.552 224.470 C 136.080 225.346, 131.086 225.863, 130.453 225.621 C 129.821 225.378, 129.025 222.513, 128.684 219.254 C 127.907 211.816, 123.399 198.946, 118.923 191.388 C 113.440 182.127, 104.528 173.839, 95.395 169.509 C 73.402 159.081, 72.562 158.572, 64.876 151.005 C 49.780 136.145, 45.542 119.654, 53.163 105.435 C 54.313 103.290, 57.678 98.855, 60.643 95.579 C 67.627 87.861, 72.007 79.171, 71.978 73.090 C 71.946 66.419, 67.965 58.640, 63.316 56.163 C 60.066 54.433, 57.961 54.718, 51.946 57.703" stroke="none" fill="black" fill-rule="evenodd"/>
</svg>