<svg xmlns="http://www.w3.org/2000/svg" width="512" height="512" viewBox="0 0 512 512" version="1.1">
	<path d="M 484 89.249 C 481.265 90.065, 447.373 123.365, 329 241.538 C 205.060 365.270, 176.799 393.006, 173.644 394.004 C 167.313 396.008, 159.167 394.899, 153.972 391.325 C 151.510 389.631, 124.158 362.567, 93.189 331.183 C 32.731 269.913, 31.658 268.976, 22.054 269.022 C 13.806 269.062, 5.383 274.578, 2.236 282 C 0.140 286.942, 0.418 294.954, 2.847 299.627 C 4.027 301.897, 30.238 328.791, 66.180 364.609 C 130.653 428.861, 132.225 430.249, 146 435.125 C 155.343 438.432, 175.309 438.511, 185.500 435.282 C 201.215 430.303, 193.816 437.241, 355.862 275.541 C 438.561 193.018, 507.524 123.499, 509.112 121.054 C 511.583 117.251, 512 115.618, 512 109.755 C 512 101.776, 510.718 98.785, 505.136 93.741 C 499.213 88.391, 492.008 86.859, 484 89.249" stroke="none" fill="black" fill-rule="evenodd"/>
</svg>