<svg xmlns="http://www.w3.org/2000/svg" width="512" height="512" viewBox="0 0 512 512" version="1.1">
	<path d="M 214.087 1.701 C 221.661 11.345, 271.823 67.120, 298.218 95.248 C 320.045 118.507, 390.976 189.436, 414.537 211.562 C 445.749 240.873, 505.712 294.850, 510.022 297.514 C 513.069 299.397, 488.903 257.792, 472.549 233 C 418.343 150.826, 345.816 78.807, 268.480 30.361 C 243.344 14.615, 210.734 -2.567, 214.087 1.701 M 6.099 6.750 C 9.144 9.912, 21.055 22.611, 32.568 34.968 C 147.198 158.010, 312.110 323.833, 440.500 445.156 C 481.855 484.234, 510.468 510.839, 510.800 510.521 C 511.305 510.037, 494.524 483.693, 478.935 460.500 C 423.637 378.227, 362.819 305.569, 283.871 227.463 C 207.741 152.143, 130.004 87.566, 46.358 30.156 C 25.757 16.017, 2.571 1, 1.340 1 C 0.913 1, 3.054 3.588, 6.099 6.750 M 3.652 196.250 C 5.326 198.037, 14.709 208.275, 24.502 219 C 100.205 301.907, 192.861 394.902, 280.065 475.500 C 312.041 505.054, 319 511.283, 319 510.354 C 319 508.842, 302.239 478.297, 292.837 462.675 C 232.315 362.115, 143.923 273.959, 45.035 215.533 C 30.819 207.134, 3.807 193, 1.971 193 C 1.165 193, 1.852 194.329, 3.652 196.250" stroke="none" fill="black" fill-rule="evenodd"/>
</svg>