<svg xmlns="http://www.w3.org/2000/svg" width="512" height="512" viewBox="0 0 512 512" version="1.1">
	<path d="M 132.907 124.327 C 126.521 127.698, 122.732 133.561, 122.202 140.889 C 121.395 152.042, 119.619 149.870, 174.850 205.255 L 225.464 256.009 175.274 306.255 C 140.767 340.800, 124.603 357.662, 123.542 360.218 C 117.897 373.826, 126.660 388.769, 140.889 389.798 C 152.042 390.605, 149.871 392.381, 205.250 337.155 L 256 286.545 306.750 337.155 C 362.129 392.381, 359.958 390.605, 371.111 389.798 C 385.340 388.769, 394.103 373.826, 388.458 360.218 C 387.397 357.662, 371.233 340.800, 336.726 306.255 L 286.536 256.009 337.150 205.255 C 392.381 149.870, 390.605 152.042, 389.798 140.889 C 388.769 126.660, 373.826 117.897, 360.218 123.542 C 357.662 124.603, 340.799 140.768, 306.250 175.279 L 256 225.473 205.750 175.279 C 171.201 140.768, 154.338 124.603, 151.782 123.542 C 146.190 121.222, 138.155 121.556, 132.907 124.327" stroke="none" fill="black" fill-rule="evenodd"/>
</svg>