<svg xmlns="http://www.w3.org/2000/svg" width="512" height="512" viewBox="0 0 512 512" version="1.1">
	<path d="M 230.761 1.019 C 209.650 3.431, 189.145 8.155, 169.452 15.144 C 156.247 19.830, 132.303 31.424, 121 38.603 C 76.527 66.854, 41.358 107.861, 21.174 155 C 0.018 204.410, -5.077 259.414, 6.631 312 C 30.518 419.291, 121.886 500.145, 231.424 510.925 C 238.612 511.632, 288.456 512, 377.174 512 L 512 512 512.250 388.250 C 512.547 240.997, 512.515 237.961, 510.487 223.106 C 504.207 177.095, 488.123 138.155, 459.640 100 C 449.837 86.869, 424.985 62.246, 411 51.808 C 376.473 26.041, 337.969 9.656, 296 2.873 C 281.810 0.579, 244.011 -0.495, 230.761 1.019 M 150 171 L 150 192 213.500 192 L 277 192 277 171 L 277 150 213.500 150 L 150 150 150 171 M 150 256 L 150 277 256 277 L 362 277 362 256 L 362 235 256 235 L 150 235 150 256 M 0.370 256 C 0.370 261.775, 0.535 264.137, 0.737 261.250 C 0.939 258.363, 0.939 253.637, 0.737 250.750 C 0.535 247.863, 0.370 250.225, 0.370 256 M 150 341 L 150 362 256 362 L 362 362 362 341 L 362 320 256 320 L 150 320 150 341" stroke="none" fill="black" fill-rule="evenodd"/>
</svg>