<svg xmlns="http://www.w3.org/2000/svg" width="512" height="512" viewBox="0 0 512 512" version="1.1">
	<path d="M 236.500 0.649 C 234.850 0.842, 229.225 1.485, 224 2.080 C 186.213 6.378, 145.303 21.794, 112.500 44.095 C 52.174 85.108, 13.182 147.585, 2.404 220.500 C 0.242 235.127, -0.488 264.175, 0.934 279 C 4.129 312.315, 14.738 346.970, 30.114 374.324 C 73.952 452.310, 157.721 503.449, 254 511.002 C 263.697 511.763, 294.007 512.026, 345.500 511.795 C 420.478 511.460, 422.698 511.395, 430.031 509.322 C 458.487 501.280, 480.139 485.818, 494.898 463 C 506.011 445.820, 510.979 429.589, 511.581 408.500 C 512.284 383.821, 512.598 237.331, 511.937 242 L 511.300 246.500 511.132 241.500 C 510.914 235.047, 508.449 217.592, 506.400 208 C 496.386 161.126, 473.838 117.070, 442.423 83 C 398.746 35.632, 342.520 7.171, 280.576 1.075 C 270.522 0.086, 243.569 -0.175, 236.500 0.649 M 140.951 225.300 C 118.454 231.674, 110.131 259.695, 125.618 276.920 C 128.212 279.806, 132.493 283.075, 135.797 284.695 C 143.550 288.496, 154.950 288.615, 162.500 284.975 C 181.921 275.611, 187.079 250.731, 172.931 234.658 C 165.537 226.258, 151.778 222.232, 140.951 225.300 M 246.300 225.801 C 235.437 229.682, 228.515 236.982, 225.339 247.905 C 221.180 262.214, 228.790 278.147, 243 284.881 C 247.406 286.968, 249.992 287.487, 256 287.487 C 268.943 287.487, 279.376 280.838, 284.874 269.086 C 290.270 257.551, 287.585 242.651, 278.467 233.533 C 270.333 225.400, 256.637 222.107, 246.300 225.801 M 355.500 224.869 C 331.501 231.164, 322.762 260.900, 339.893 277.973 C 346.818 284.874, 352.789 287.374, 362.500 287.438 C 369.297 287.483, 371.357 287.070, 376.203 284.695 C 383.359 281.186, 390.299 273.628, 392.530 266.911 C 399.266 246.629, 385.809 225.945, 364.951 224.522 C 361.403 224.280, 357.150 224.436, 355.500 224.869 M 0.413 256.500 C 0.414 266.400, 0.564 270.315, 0.746 265.199 C 0.928 260.084, 0.927 251.984, 0.744 247.199 C 0.561 242.415, 0.412 246.600, 0.413 256.500" stroke="none" fill="black" fill-rule="evenodd"/>
</svg>