<svg xmlns="http://www.w3.org/2000/svg" width="512" height="512" viewBox="0 0 512 512" version="1.1">
	<path d="M 204.500 123.659 C 199.847 126.107, 195.925 130.117, 193.896 134.500 C 192.125 138.324, 192.043 143.913, 192.022 261.601 C 192.006 351.021, 192.311 385.632, 193.138 388.101 C 194.867 393.264, 198.656 397.778, 203.308 400.214 C 208.678 403.027, 217.961 403.212, 223 400.607 C 224.925 399.611, 254.267 371.055, 288.204 337.149 C 352.479 272.932, 353.925 271.304, 353.978 263.116 C 354.040 253.620, 355.826 255.669, 289.087 188.643 C 246.419 145.790, 225.227 125.190, 222.500 123.915 C 217.568 121.608, 208.638 121.481, 204.500 123.659" stroke="none" fill="black" fill-rule="evenodd"/>
</svg>