<svg xmlns="http://www.w3.org/2000/svg" width="512" height="512" viewBox="0 0 512 512" version="1.1">
	<path d="M 31.024 1.574 C 20.974 4.329, 10.952 12.107, 5.527 21.364 C 0.358 30.185, -0.147 34.994, 0.190 72.257 L 0.500 106.500 3.701 113.259 C 9.784 126.099, 21.671 135.528, 34.886 137.995 C 42.315 139.381, 97.504 139.294, 104.201 137.885 C 121.200 134.310, 134.310 121.200, 137.885 104.201 C 139.294 97.504, 139.381 42.315, 137.995 34.886 C 135.528 21.671, 126.099 9.784, 113.259 3.701 L 106.500 0.500 71.500 0.286 C 42.979 0.112, 35.486 0.351, 31.024 1.574 M 216.656 1.975 C 204.882 5.736, 195.733 13.920, 190.277 25.570 L 187.500 31.500 187.500 69.521 L 187.500 107.542 190.742 114.127 C 196.585 125.995, 206.626 134.105, 219.693 137.508 C 227.969 139.664, 284.031 139.664, 292.307 137.508 C 305.453 134.084, 315.351 126.126, 321.173 114.301 L 324.500 107.542 324.500 69.521 L 324.500 31.500 321.374 25 C 315.670 13.137, 307.193 5.684, 295.187 1.976 C 289.343 0.171, 285.922 0.005, 255.645 0.054 C 226.133 0.102, 221.859 0.312, 216.656 1.975 M 405.618 1.112 C 390.531 4.654, 377.009 19.133, 374.008 34.960 C 372.619 42.280, 372.705 97.497, 374.115 104.201 C 377.690 121.200, 390.800 134.310, 407.799 137.885 C 414.496 139.294, 469.685 139.381, 477.114 137.995 C 490.329 135.528, 502.216 126.099, 508.299 113.259 L 511.500 106.500 511.810 71.626 C 512.101 38.819, 511.998 36.351, 510.068 29.997 C 506.085 16.885, 495.158 6.018, 481.765 1.850 C 476.454 0.197, 472.293 0.011, 442.661 0.100 C 424.422 0.156, 407.753 0.611, 405.618 1.112 M 30.500 188.375 C 16.529 192.876, 6.232 203.157, 1.975 216.855 C 0.178 222.639, -0 226.161, -0 256 C -0 285.839, 0.178 289.361, 1.975 295.145 C 5.695 307.114, 13.750 316.187, 25.570 321.723 L 31.500 324.500 69.521 324.500 L 107.542 324.500 114.301 321.173 C 126.126 315.351, 134.084 305.453, 137.508 292.307 C 139.664 284.031, 139.664 227.969, 137.508 219.693 C 134.085 206.550, 126.127 196.650, 114.304 190.827 L 107.548 187.500 71.024 187.293 C 43.481 187.138, 33.516 187.404, 30.500 188.375 M 215.329 188.934 C 204.886 192.693, 195.439 201.340, 190.263 211.876 L 187.500 217.500 187.500 256 L 187.500 294.500 190.263 300.124 C 195.557 310.900, 204.936 319.366, 215.673 323.060 C 220.832 324.834, 224.273 325, 256 325 C 287.843 325, 291.154 324.839, 296.382 323.041 C 308.772 318.778, 318.785 308.751, 323.060 296.327 C 324.834 291.168, 325 287.727, 325 256 C 325 224.273, 324.834 220.832, 323.060 215.673 C 318.785 203.249, 308.772 193.222, 296.382 188.959 C 291.140 187.156, 287.896 187.003, 255.593 187.036 C 223.944 187.069, 219.993 187.255, 215.329 188.934 M 402.214 188.867 C 388.266 193.748, 378.390 204.726, 374.495 219.680 C 372.336 227.968, 372.334 284.021, 374.492 292.307 C 377.895 305.374, 386.005 315.415, 397.873 321.258 L 404.458 324.500 442.479 324.500 L 480.500 324.500 486.430 321.723 C 498.250 316.187, 506.305 307.114, 510.025 295.145 C 511.822 289.361, 512 285.839, 512 256 C 512 226.161, 511.822 222.639, 510.025 216.855 C 506.305 204.886, 498.250 195.813, 486.430 190.277 L 480.500 187.500 444 187.259 C 410.685 187.039, 407.039 187.179, 402.214 188.867 M 34 374.098 C 21.621 376.515, 9.597 386.295, 3.701 398.741 L 0.500 405.500 0.190 439.743 C -0.067 468.196, 0.144 475.012, 1.436 480.058 C 5.252 494.953, 17.047 506.748, 31.942 510.564 C 36.988 511.856, 43.804 512.067, 72.257 511.810 L 106.500 511.500 113.259 508.299 C 126.099 502.216, 135.528 490.329, 137.995 477.114 C 139.381 469.685, 139.294 414.496, 137.885 407.799 C 134.310 390.800, 121.200 377.690, 104.201 374.115 C 97.896 372.788, 40.775 372.775, 34 374.098 M 219.265 374.542 C 206.482 377.984, 196.552 386.070, 190.827 397.699 L 187.500 404.458 187.500 442.479 L 187.500 480.500 190.277 486.430 C 195.813 498.250, 204.886 506.305, 216.855 510.025 C 222.639 511.822, 226.161 512, 256 512 C 285.832 512, 289.366 511.822, 295.187 510.024 C 307.193 506.316, 315.670 498.863, 321.374 487 L 324.500 480.500 324.500 442.479 L 324.500 404.458 321.173 397.699 C 315.351 385.874, 305.453 377.916, 292.307 374.492 C 284.304 372.407, 227.045 372.446, 219.265 374.542 M 406.459 374.395 C 390.049 378.382, 377.597 391.241, 374.115 407.799 C 372.706 414.496, 372.619 469.685, 374.005 477.114 C 376.472 490.329, 385.901 502.216, 398.741 508.299 L 405.500 511.500 439.743 511.810 C 468.196 512.067, 475.012 511.856, 480.058 510.564 C 494.953 506.748, 506.748 494.953, 510.564 480.058 C 511.856 475.012, 512.067 468.196, 511.810 439.743 L 511.500 405.500 508.299 398.741 C 502.216 385.901, 490.329 376.472, 477.114 374.005 C 469.319 372.551, 412.766 372.862, 406.459 374.395" stroke="none" fill="black" fill-rule="evenodd"/>
</svg>