<svg xmlns="http://www.w3.org/2000/svg" width="446" height="436" viewBox="0 0 446 436" version="1.1">
	<path d="M 210.500 7.914 C 207.200 9.516, 162.650 35.980, 111.500 66.723 C 26.742 117.665, 18.166 123.056, 14.734 127.559 C 7.600 136.920, 8 128.643, 8 266.971 C 8 402.616, 7.764 396.681, 13.608 408.213 C 19.509 419.858, 33.245 430.248, 46.330 432.965 C 49.937 433.713, 66.835 433.982, 98.092 433.788 C 143.290 433.508, 144.622 433.443, 149.196 431.330 C 155.198 428.557, 161.925 421.830, 165.052 415.474 L 167.500 410.500 168 359.500 C 168.555 302.868, 168.179 305.862, 175.382 300.724 C 178.495 298.504, 178.573 298.500, 224 298.500 L 269.500 298.500 272.765 300.829 C 279.654 305.743, 279.446 304.038, 280 360 L 280.500 410.500 282.948 415.474 C 286.069 421.818, 292.182 427.931, 298.526 431.052 L 303.500 433.500 349.908 433.788 C 380.137 433.976, 398.113 433.703, 401.473 433.006 C 419.535 429.256, 435.237 413.650, 438.944 395.763 C 439.706 392.084, 439.954 352.573, 439.767 264.500 L 439.500 138.500 437.024 133.500 C 435.662 130.750, 432.730 126.700, 430.508 124.500 C 426.516 120.547, 247.937 12.672, 236.814 7.494 C 228.896 3.807, 218.622 3.972, 210.500 7.914" stroke="none" fill="black" fill-rule="evenodd"/>
</svg>