<svg xmlns="http://www.w3.org/2000/svg" width="512" height="512" viewBox="0 0 512 512" version="1.1">
	<path d="M 472.318 54.938 C 461.411 58.864, 451.760 67.115, 443.962 79.180 C 436.092 91.356, 434.519 102.499, 436.124 134.700 C 437.313 158.538, 436.891 163.929, 433.031 174.207 C 425.791 193.489, 400.991 217.608, 381.236 224.580 C 373.233 227.405, 371.641 227.478, 362.500 225.438 C 352.710 223.254, 320.960 222.448, 302.436 223.915 C 294.221 224.565, 276.025 226.422, 262 228.043 C 220.255 232.865, 205.689 234, 185.589 233.997 C 155.329 233.993, 138.079 230.987, 120.723 222.695 C 106.727 216.009, 102.320 211.917, 91.562 195.617 C 73.982 168.982, 66.088 162.364, 56.315 166.067 C 50.030 168.448, 46.403 174.385, 42.918 188 C 41.585 193.207, 40.322 195.959, 38.787 197 C 25.172 206.239, 16 220.022, 16 231.241 C 16 233.322, 14.621 235.578, 11.023 239.382 C 3.025 247.839, 1.621 252.992, 4.589 262.987 C 5.800 267.066, 7.523 269.680, 11.839 273.988 C 17.637 279.776, 21.209 281.542, 37.856 286.856 C 46.348 289.566, 53.788 294.167, 62.165 301.887 C 70.885 309.925, 77.236 318.143, 81.088 326.374 L 84.089 332.786 83.007 354.143 C 80.559 402.478, 76.035 429.709, 69.676 434.387 C 62.747 439.485, 59.554 450.618, 63.356 456.421 C 65.042 458.994, 65.079 459, 79.349 459 C 95.938 459, 94.156 459.960, 103.491 446 C 110.624 435.332, 121.053 414.388, 124.569 403.668 C 126.043 399.176, 127.596 395.119, 128.021 394.653 C 130.044 392.436, 139.613 414.807, 143.469 430.768 L 145.224 438.036 142.739 439.991 C 137.596 444.036, 135.507 452.423, 138.557 456.777 C 140.050 458.910, 140.735 459, 155.453 459 L 170.793 459 173.794 455.582 C 177.107 451.809, 180.062 444.671, 182.107 435.500 C 184.255 425.872, 183.708 396.155, 181.117 381.651 C 179.953 375.133, 179 369.465, 179 369.053 C 179 368.642, 186.538 368.037, 195.750 367.709 C 204.963 367.381, 217.900 366.397, 224.500 365.523 C 237.210 363.840, 273.099 358.333, 276.537 357.539 C 278.278 357.137, 279.829 359.354, 287.199 372.784 C 300.104 396.299, 301.002 398.314, 300.985 403.717 C 300.955 413.553, 294.426 435.320, 290.370 439.109 C 284.520 444.573, 283.287 451.860, 287.452 456.354 C 289.826 458.916, 290.266 459, 301.249 459 L 312.594 459 316.183 455.250 C 320.525 450.714, 330.132 437.115, 335.878 427.374 C 341.733 417.446, 346.404 405.922, 348.392 396.500 C 349.320 392.100, 350.295 387.488, 350.559 386.250 C 350.822 385.012, 351.367 384, 351.769 384.001 C 353.120 384.002, 362.128 393.346, 363.690 396.367 C 365.929 400.697, 365.669 406.675, 362.541 422.769 C 360.159 435.020, 359.364 437.470, 356.915 440.091 C 352.165 445.175, 351.910 451.966, 356.289 456.750 C 358.199 458.836, 359.194 459, 369.986 459 C 380.209 459, 381.882 458.759, 383.752 457.016 C 391.833 449.487, 404.751 421.611, 408.415 403.792 C 410.653 392.907, 410.396 387.315, 406.973 372.500 C 402.781 354.355, 402.394 348.472, 404.568 335.957 C 406.808 323.063, 406.878 294.816, 404.702 282 C 403.909 277.325, 403.437 273.034, 403.655 272.463 C 403.872 271.893, 407.976 268.651, 412.775 265.259 C 442.633 244.151, 464.795 216.048, 473.284 188.527 C 475.322 181.920, 475.453 179.497, 475.476 148 C 475.497 118.849, 475.717 114.021, 477.173 110.811 C 478.810 107.203, 480.594 105.806, 494.775 97.025 C 506.624 89.689, 511.090 80.065, 507.928 68.679 C 506.572 63.798, 500.644 57.208, 495.500 54.866 C 490.144 52.426, 479.200 52.460, 472.318 54.938 M 474.041 67.561 C 466.351 71.140, 461.003 75.837, 455.660 83.704 C 448.119 94.809, 447.617 98.229, 448.418 133 C 449.051 160.442, 448.960 163.033, 447.119 170.136 C 440.475 195.772, 413.959 224.764, 387.385 235.447 C 378.068 239.193, 371.466 239.647, 359.422 237.373 C 346.437 234.922, 310.314 234.889, 289 237.309 C 281.025 238.214, 262.800 240.288, 248.500 241.916 C 191.106 248.453, 163.269 248.218, 134.829 240.956 C 118.419 236.766, 101.607 227.721, 93.124 218.518 C 90.831 216.031, 85.217 208.259, 80.649 201.248 C 71.348 186.975, 62.663 176.808, 60.484 177.644 C 58.653 178.347, 55.397 187.117, 53.850 195.510 C 52.543 202.604, 52.416 202.762, 42.223 209.894 C 35.417 214.656, 30.384 221.822, 28.949 228.792 C 26.888 238.807, 25.809 241.288, 21.498 245.944 C 15.488 252.435, 14.638 254.372, 15.996 258.486 C 18.549 266.222, 22.518 268.914, 39.641 274.523 C 63.796 282.436, 84.485 302.093, 94.706 326.839 C 102.057 344.638, 106.988 351.903, 122.986 368.500 C 134.207 380.141, 139.709 387.500, 144.917 397.829 C 149.106 406.136, 154.429 422.320, 156.559 433.224 C 158.147 441.350, 158.150 442.122, 156.609 444.474 L 154.954 447 160.368 447 C 165.730 447, 165.798 446.962, 167.346 443.094 C 170.435 435.374, 171.269 426.326, 170.711 406.614 C 170.103 385.116, 167.794 371.563, 161.604 353.159 C 157.776 341.780, 158.010 338.537, 162.745 337.349 C 167.431 336.173, 169.603 338.302, 172.455 346.866 L 175.121 354.871 180.793 355.580 C 183.912 355.970, 194.033 355.752, 203.284 355.096 C 220.002 353.910, 231.940 352.319, 275 345.536 C 287.375 343.587, 301.235 341.700, 305.799 341.345 C 312.448 340.826, 313.988 340.411, 313.545 339.256 C 311.086 332.848, 312.914 327.988, 317.773 328.015 C 321.680 328.037, 322.267 328.660, 326.258 337.015 C 331.018 346.978, 340.625 357.903, 357.391 372.424 C 368.981 382.462, 371.405 385.077, 373.999 390.347 C 375.670 393.741, 377.288 398.764, 377.595 401.509 C 378.346 408.227, 371.906 442.341, 369.355 445.161 C 367.606 447.093, 367.660 447.122, 372.473 446.813 C 377.241 446.508, 377.459 446.354, 380.649 441 C 385.714 432.502, 392.875 414.929, 395.645 404.201 C 398.558 392.918, 398.405 388.811, 394.484 372.974 C 390.997 358.885, 390.323 346.222, 392.380 333.381 C 394.438 320.529, 394.473 297.663, 392.456 284.500 C 389.923 267.974, 390.949 265.774, 406.252 254.913 C 418.413 246.282, 438.515 226.565, 445.924 216 C 461.985 193.100, 465.635 177.361, 463.086 142 C 460.817 110.508, 464.378 100.872, 482.107 90.536 C 491.816 84.876, 494.728 82.354, 495.998 78.505 C 496.977 75.540, 496.872 74.402, 495.330 71.252 C 494.323 69.197, 492.375 66.956, 491 66.273 C 486.930 64.249, 480.030 64.773, 474.041 67.561 M 36.319 229.346 C 31.402 233.852, 32.193 236, 38.769 236 C 44.080 236, 46 234.767, 46 231.357 C 46 229.329, 42.745 226, 40.763 226 C 40.327 226, 38.328 227.506, 36.319 229.346 M 314.500 352.683 C 307.917 353.107, 292.629 355.037, 292.164 355.503 C 291.963 355.704, 294.034 359.835, 296.767 364.684 C 299.499 369.533, 304.270 378.555, 307.368 384.733 C 312.768 395.503, 313 396.287, 312.993 403.733 C 312.983 414.428, 306.979 437.805, 302.477 444.676 C 300.988 446.948, 301.028 447, 304.296 447 C 307.269 447, 308.213 446.230, 312.830 440.041 C 320.084 430.316, 328.859 415.723, 332.179 407.861 C 333.721 404.209, 336.194 395.103, 337.675 387.625 L 340.366 374.029 333.379 366.765 C 329.536 362.769, 325.125 357.813, 323.577 355.750 C 322.029 353.688, 320.479 352.081, 320.131 352.180 C 319.784 352.279, 317.250 352.506, 314.500 352.683 M 94.159 373.524 C 92.187 402.566, 87.802 428.491, 83.359 437.376 C 82.500 439.094, 80.155 441.946, 78.148 443.712 L 74.500 446.925 81.268 446.962 L 88.037 447 94.127 437.750 C 104.639 421.782, 114.960 398.392, 117.524 384.724 C 118.206 381.090, 118.005 380.767, 109.546 371.878 C 104.774 366.863, 99.714 361.014, 98.302 358.880 C 96.890 356.746, 95.663 355, 95.575 355 C 95.488 355, 94.850 363.336, 94.159 373.524" stroke="none" fill="black" fill-rule="evenodd"/>
</svg>