<svg xmlns="http://www.w3.org/2000/svg" width="512" height="512" viewBox="0 0 512 512" version="1.1">
	<path d="M 419.500 1.222 C 409.187 4.878, 403.153 16.427, 406.011 27.040 C 407.563 32.804, 414.916 40.336, 420.500 41.882 C 422.700 42.491, 430.110 42.991, 436.967 42.994 L 449.434 43 429.770 62.754 C 407.545 85.081, 405.706 87.850, 405.706 99 C 405.706 110.128, 411.440 119.554, 421.410 124.814 L 426.500 127.500 460 127.817 C 482.784 128.032, 494.719 127.773, 497.312 127.008 C 502.527 125.468, 508.538 119.778, 510.571 114.454 C 513.717 106.215, 510.915 95.325, 504.361 90.326 C 498.728 86.029, 494.499 85.091, 480.552 85.044 L 467.604 85 488.195 64.250 C 507.186 45.111, 508.910 43.078, 510.392 38.068 C 513.793 26.578, 511.483 17.422, 503.040 8.926 C 494.289 0.120, 493.558 -0.014, 455.072 0.079 C 434.813 0.128, 421.366 0.560, 419.500 1.222 M 202.951 34.314 C 196.915 36.006, 191.798 39.265, 188.604 43.453 C 187.168 45.335, 181.562 56.641, 176.147 68.577 L 166.300 90.280 158.358 92.572 C 149.015 95.270, 141.948 97.980, 134.730 101.634 C 122.006 108.076, 104.336 122.058, 96.500 131.884 L 92.500 136.900 63.928 136.950 C 30.247 137.009, 28.521 137.349, 20.341 145.528 C 12.777 153.092, 10.362 162.240, 13.327 172.093 C 14.096 174.645, 24.897 191.877, 38.971 213.001 C 84.100 280.737, 93.868 294.691, 101.881 302.871 C 126.417 327.917, 157.510 341, 192.500 341 C 219.052 341, 240.675 334.411, 263.088 319.490 C 281.773 307.051, 296.719 289.732, 307.055 268.540 C 315.355 251.525, 319.987 232.873, 319.996 216.429 C 320.003 204.360, 325.730 195.959, 336.059 192.864 C 346.769 189.655, 359.344 197.308, 361.755 208.500 C 363.881 218.374, 359.271 250.060, 353.033 268.438 C 351.365 273.353, 350 277.439, 350 277.516 C 350 277.594, 358.887 277.622, 369.750 277.579 L 389.500 277.500 394.272 280.305 C 406.891 287.723, 408.755 305.062, 397.929 314.329 C 392.220 319.216, 388.331 320, 369.810 320 C 350.864 320, 338.904 321.675, 325.500 326.205 C 283.488 340.403, 249.272 376.181, 237.834 417.874 C 235.402 426.737, 234.997 426.113, 248.502 434.287 C 267.493 445.780, 290.627 456.253, 315.411 464.578 L 328.500 468.974 311 468.972 C 236.511 468.961, 188.914 455.455, 151.074 423.594 C 136.769 411.549, 121.947 393.194, 112.382 375.681 C 109.733 370.830, 105.076 364.110, 102.033 360.747 C 82.204 338.836, 50.769 335.033, 25.935 351.543 C 8.647 363.036, -1.021 382.747, 0.260 403.887 C 1.224 419.795, 6.944 430.229, 25.384 449.720 C 55.720 481.785, 97.443 500.355, 155 507.413 C 184.476 511.028, 196.897 511.452, 274 511.476 C 344.366 511.498, 351.299 511.351, 360.460 509.642 C 388.978 504.324, 412.833 494.365, 436.226 478.013 C 448.184 469.655, 469.546 448.284, 478.222 436 C 490.490 418.629, 500.546 397.151, 505.951 376.774 C 529.757 287.019, 481.067 193.229, 393.728 160.601 C 372.264 152.583, 356.611 149.989, 324.547 149.137 L 300.595 148.500 276.047 111.857 C 262.546 91.703, 247.125 68.289, 241.778 59.825 C 236.430 51.361, 230.580 42.919, 228.778 41.063 C 222.584 34.689, 211.730 31.853, 202.951 34.314" stroke="none" fill="black" fill-rule="evenodd"/>
</svg>