<svg xmlns="http://www.w3.org/2000/svg" width="1024" height="1024" viewBox="0 0 1024 1024" version="1.1">
	<path d="M 661.560 131.107 C 661.293 131.873, 658.558 141.050, 655.484 151.500 C 645.241 186.317, 643.111 190.199, 630.971 196.182 C 626.623 198.325, 614.303 202.444, 601.500 206.036 C 589.400 209.430, 579.149 212.534, 578.720 212.934 C 578.291 213.333, 588.414 216.679, 601.215 220.369 C 614.016 224.058, 626.967 228.209, 629.995 229.593 C 641.948 235.054, 645.342 240.938, 654.586 272.214 C 658.203 284.454, 661.505 295.080, 661.923 295.827 C 662.411 296.699, 663.322 294.909, 664.460 290.843 C 670.899 267.849, 676.531 250.498, 679.602 244.198 C 683.394 236.417, 687.340 232.712, 695.845 228.950 C 699.730 227.232, 743.841 214, 745.685 214 C 746.078 214, 745.972 213.582, 745.450 213.070 C 744.928 212.559, 735.050 209.451, 723.500 206.164 C 695.847 198.295, 691.559 196.603, 685.930 191.338 C 679.824 185.626, 677.538 180.300, 669.475 153 C 665.820 140.625, 662.654 130.323, 662.438 130.107 C 662.223 129.891, 661.828 130.341, 661.560 131.107 M 480 188.442 C 480 189.848, 461.642 250.906, 459.541 256.488 C 455.627 266.885, 452.144 272.573, 446.318 278.084 C 437.424 286.495, 431.600 288.670, 372.716 305.566 C 363.040 308.343, 356.484 310.691, 357.235 311.112 C 357.952 311.513, 369.780 315.046, 383.519 318.963 C 431.128 332.534, 440.515 336.330, 448.537 345.252 C 456.312 353.900, 459.781 362.950, 473.645 410.755 C 477.355 423.545, 480.718 433.670, 481.119 433.255 C 481.520 432.840, 485.747 419.254, 490.512 403.065 C 503.681 358.327, 506.477 351.569, 515.186 343.423 C 522.927 336.182, 533.446 331.966, 570.144 321.396 C 588.490 316.112, 604.073 311.475, 604.774 311.091 C 605.475 310.708, 592.200 306.420, 575.274 301.563 C 530.538 288.725, 522.490 285.543, 514.470 277.522 C 506.488 269.540, 502.580 259.605, 488.403 211.250 C 484.654 198.463, 481.229 188, 480.793 188 C 480.357 188, 480 188.199, 480 188.442 M 254.243 258.645 C 246.060 266.815, 235.993 277.550, 231.874 282.500 C 183.073 341.137, 154.394 407.267, 145.356 482 C 143.194 499.876, 142.923 542.840, 144.863 560 C 157.370 670.581, 212.440 764.699, 301.500 827.701 C 354.760 865.378, 417.027 888.643, 482.759 895.426 C 502.465 897.459, 539.304 897.489, 558.778 895.487 C 647.586 886.358, 727.591 848.579, 789.504 786.537 C 819.144 756.835, 841.453 726.112, 859.938 689.540 C 869.019 671.573, 883.247 636, 881.352 636 C 881.033 636, 878.235 638.178, 875.136 640.840 C 833.435 676.655, 777.050 705.062, 720.122 718.936 C 689.937 726.292, 663.189 729.384, 630 729.354 C 568.150 729.296, 512.974 715.926, 457 687.432 C 359.927 638.016, 290.169 549.881, 264.009 443.599 C 256.264 412.132, 253.550 389.076, 253.582 355 C 253.615 319.122, 257.469 290.213, 266.564 257.618 C 268.530 250.571, 269.910 244.577, 269.631 244.297 C 269.351 244.018, 262.427 250.474, 254.243 258.645 M 696.742 396.727 C 689.580 421.392, 687.695 426.360, 683.082 432.728 C 679.106 438.217, 669.917 442.590, 651 447.996 C 623.924 455.733, 619.582 457.187, 621.077 458.017 C 621.860 458.452, 632.175 461.607, 644 465.028 C 677.321 474.668, 680.881 476.687, 686.966 489.404 C 689.097 493.857, 693.653 507.301, 697.090 519.280 C 700.528 531.259, 703.653 540.709, 704.035 540.280 C 704.418 539.851, 707.724 529.375, 711.383 517 C 715.043 504.625, 719.393 491.715, 721.050 488.312 C 726.447 477.233, 731.932 474.255, 764.014 464.988 C 775.831 461.575, 786.151 458.426, 786.946 457.992 C 788.461 457.163, 788.664 457.231, 758.500 448.527 C 741.177 443.529, 732.324 439.862, 727.282 435.598 C 722.396 431.465, 718.681 422.681, 711.383 398 C 707.724 385.625, 704.421 375.152, 704.042 374.727 C 703.664 374.302, 700.379 384.202, 696.742 396.727 M 379.183 443.845 C 373.139 445.997, 367.811 450.650, 364.692 456.500 C 361.699 462.114, 361.713 472.896, 364.721 478.595 C 367.286 483.455, 372.686 488.424, 377.659 490.502 C 382.147 492.377, 392.999 492.445, 397.355 490.625 C 402.088 488.648, 407.782 483.334, 410.248 478.595 C 413.045 473.219, 413.216 462.112, 410.581 457 C 404.379 444.972, 391.350 439.514, 379.183 443.845 M 494.500 591.959 C 488.305 594.539, 484.225 603.299, 486.042 610.119 C 488.069 617.727, 493.708 622, 501.718 622 C 517.109 622, 522.925 601.022, 509.759 592.995 C 506.341 590.911, 498.325 590.367, 494.500 591.959" stroke="none" fill="black" fill-rule="evenodd"/>
</svg>