<svg xmlns="http://www.w3.org/2000/svg" width="512" height="512" viewBox="0 0 512 512" version="1.1">
	<path d="M 91 22.527 C 75.384 24.976, 61.023 30.586, 47.500 39.522 C 39.026 45.122, 25.915 57.972, 20.318 66.164 L 15.565 73.120 116.032 173.339 C 224.108 281.146, 221.103 278.404, 236.500 283.282 C 242.343 285.134, 245.730 285.491, 257 285.448 C 269.009 285.401, 271.245 285.111, 277.242 282.825 C 291.895 277.238, 290.396 278.620, 395.966 173.322 L 496.431 73.115 491.680 66.161 C 485.750 57.482, 472.225 44.399, 463.041 38.458 C 450.039 30.047, 436.236 24.914, 420 22.452 C 406.486 20.403, 104.106 20.471, 91 22.527 M 0.638 120.502 C 0.287 121.416, 0 183.043, 0 257.451 C 0 403.028, -0.071 400.839, 5.153 417 C 14.923 447.224, 40.601 473.699, 70.390 484.261 C 89.166 490.919, 76.731 490.500, 255.500 490.500 C 384.554 490.500, 418.822 490.235, 424 489.198 C 458.301 482.327, 485.461 461.855, 500.544 431.500 C 505.828 420.868, 511 404.261, 511 397.931 C 511 396.384, 511.450 394.840, 512 394.500 C 512.659 394.093, 513 347.137, 513 256.882 C 513 165.803, 512.665 120.089, 512 120.500 C 511.450 120.840, 511 120.541, 511 119.837 C 511 119.132, 469.037 160.418, 417.750 211.583 C 322.014 307.092, 318.765 310.111, 303.500 317.745 C 274.011 332.492, 237.546 332.303, 207.500 317.247 C 193.375 310.169, 188.805 305.905, 94.388 211.722 C 23.900 141.409, 1.120 119.244, 0.638 120.502 M 0.486 258 C 0.486 333.625, 0.605 364.563, 0.750 326.750 C 0.895 288.938, 0.895 227.063, 0.750 189.250 C 0.605 151.438, 0.486 182.375, 0.486 258" stroke="none" fill="black" fill-rule="evenodd"/>
</svg>