<svg xmlns="http://www.w3.org/2000/svg" width="512" height="512" viewBox="0 0 512 512" version="1.1">
	<path d="M 238.500 34.050 C 171.313 42.842, 118.677 75.370, 82.424 130.500 C 47.845 183.086, 35.752 250.393, 49.945 311.266 C 56.804 340.681, 71.705 371.224, 91.040 395.500 C 114.337 424.749, 150.239 450.408, 189.500 465.868 C 214.295 475.631, 235.917 479.497, 265.500 479.455 C 290.678 479.419, 305.129 477.437, 327.657 470.929 C 386.886 453.820, 437.242 412.274, 464.477 358.047 C 469.461 348.122, 469.688 345.688, 465.975 341.975 C 464.852 340.852, 462.653 340, 460.879 340 C 458.262 340, 455.870 341.817, 446.069 351.250 C 439.639 357.438, 430.131 365.541, 424.939 369.257 C 409.485 380.319, 382.022 393.047, 366.250 396.456 L 363 397.159 363 384.071 L 363 370.984 368.843 364.024 C 383.071 347.079, 389.156 326.042, 386.956 301.404 C 386.469 295.957, 386.055 290.554, 386.036 289.398 C 386.007 287.694, 388.324 286.147, 398.256 281.238 C 404.998 277.907, 412.666 273.285, 415.298 270.969 C 423.086 264.114, 426.289 255.500, 424.089 247.330 C 422.705 242.192, 415.630 235.396, 410.701 234.472 C 407.541 233.879, 406.968 233.211, 404.423 227.160 C 400.836 218.627, 390.224 207.620, 381.750 203.641 L 376 200.941 376 195.552 C 376 188.743, 375.413 187.265, 372.013 185.507 C 368.369 183.622, 364.124 184.828, 356.070 190.033 C 338.981 201.079, 322.534 224.498, 313.850 250.151 C 311.015 258.526, 310.194 260, 308.367 260 C 304.829 260, 287.107 264.892, 279.036 268.097 C 274.891 269.743, 268.393 272.875, 264.596 275.057 C 260.799 277.240, 257.644 278.907, 257.586 278.763 C 250.398 260.887, 239.443 250.896, 223.270 247.469 C 213.156 245.326, 190.506 245.498, 186.020 247.752 C 181.142 250.202, 178 255.274, 178 260.698 C 178 270.975, 185.653 277.631, 200.113 279.926 C 207.868 281.157, 211.377 284.356, 212.389 291.116 C 213.904 301.235, 207.528 317.453, 197.586 328.769 C 194.557 332.217, 191.637 335.817, 191.097 336.769 C 189.905 338.871, 190.003 338.981, 180.184 324.499 C 145.728 273.674, 141.036 207.073, 167.997 151.500 C 194.370 97.141, 245.049 61.315, 306 53.945 C 317.098 52.603, 318.304 52.094, 319.984 48.038 C 321.621 44.086, 319.904 39.610, 316.164 38.084 C 306.997 34.344, 256.355 31.713, 238.500 34.050 M 243.500 49.693 C 194.939 56.056, 153.598 75.549, 121.976 106.996 C 57.608 171.004, 41.791 274.389, 84.054 354.869 C 106.551 397.709, 144.021 430.500, 192.565 449.829 C 257.466 475.671, 333.491 464.724, 391.241 421.221 C 400.750 414.058, 424.646 391.313, 423.679 390.345 C 423.443 390.109, 420.463 391.550, 417.056 393.547 C 376.820 417.128, 323.447 424.105, 276.293 411.947 C 182.805 387.842, 121.178 293.499, 136.539 198 C 146.839 133.960, 188.134 79.841, 246.932 53.324 L 256.500 49.010 251.500 49.155 C 248.750 49.234, 245.150 49.477, 243.500 49.693 M 354.261 212.805 C 342.741 224.471, 334.499 238.994, 327.942 259.179 C 325.744 265.946, 323.337 272.092, 322.593 272.835 C 321.850 273.579, 317.475 274.822, 312.871 275.598 C 282.011 280.800, 255.325 296.289, 247.322 313.644 C 242.255 324.633, 232.525 371.715, 234.343 376.450 C 235.054 378.305, 256.256 388.441, 267.592 392.346 C 279.585 396.477, 294.330 399.800, 304.480 400.658 L 311.825 401.279 314.301 396.389 C 319.713 385.702, 321.588 372.953, 318.595 367.200 C 315.286 360.841, 309.291 357.601, 297.822 355.975 C 289.340 354.772, 286 352.391, 286 347.548 C 286 340.061, 291.402 337.875, 303.706 340.383 C 319.263 343.555, 330.881 352.103, 334.518 363.053 C 337.444 371.863, 336.498 384.404, 332.019 396.191 C 330.935 399.046, 330.149 401.477, 330.274 401.595 C 330.398 401.713, 334.100 401.515, 338.500 401.155 L 346.500 400.500 347 381.868 L 347.500 363.236 352.030 358.368 C 361.529 348.161, 366.903 338.752, 369.482 327.812 C 371.254 320.295, 371.426 305.956, 369.887 293.957 C 368.906 286.309, 368.980 284.845, 370.506 281.629 C 372.904 276.574, 377.596 273.155, 391.221 266.529 C 401.869 261.351, 409 255.960, 409 253.088 C 409 251.558, 406.570 250.278, 401.333 249.051 C 394.945 247.554, 393.596 246.103, 391.023 237.955 C 388.786 230.870, 384.906 225.125, 379.808 221.348 L 376.500 218.897 376.226 221.699 C 375.645 227.633, 374.888 229.086, 371.545 230.680 C 368.727 232.024, 367.639 232.093, 365.205 231.085 C 361.036 229.358, 360.052 226.725, 359.759 216.500 L 359.500 207.500 354.261 212.805 M 196.144 262.434 C 196.498 262.812, 199.780 263.545, 203.438 264.063 C 214.698 265.657, 221.714 270.727, 226.185 280.500 C 228.099 284.683, 228.464 287.133, 228.420 295.500 C 228.339 310.935, 223.358 323.017, 210.954 337.862 C 207.903 341.513, 204.528 346.010, 203.454 347.855 L 201.500 351.210 207.500 356.702 C 210.800 359.722, 214.681 363.040, 216.123 364.074 L 218.747 365.956 219.445 359.728 C 220.643 349.048, 224.973 328.887, 228.028 319.763 C 231.629 309.008, 235.053 302.063, 240.060 295.360 C 243.693 290.496, 243.842 290.012, 242.836 286.360 C 239.902 275.704, 232.988 267.609, 224.133 264.462 C 219.527 262.825, 194.833 261.036, 196.144 262.434" stroke="none" fill="black" fill-rule="evenodd"/>
</svg>