<svg xmlns="http://www.w3.org/2000/svg" width="512" height="512" viewBox="0 0 512 512" version="1.1">
	<path d="M 155.072 1.591 C 144.934 4.316, 136.956 9.030, 129 16.993 C 113.376 32.632, 107 50.156, 107 77.457 C 107 98.860, 110.502 113.853, 119.416 130.609 C 124.925 140.965, 130.963 148.899, 138.993 156.333 C 159.535 175.352, 187.557 175.507, 207.648 156.713 C 227.345 138.287, 237.232 107.755, 234.174 74.800 C 231.884 50.131, 224.070 32.410, 208.587 16.774 C 194.745 2.795, 173.263 -3.300, 155.072 1.591 M 330.217 1.449 C 312.071 5.843, 296.173 20.500, 286.063 42.156 C 280.947 53.114, 279.239 59.928, 277.885 74.776 C 275.857 97.011, 279.457 117.333, 288.729 136 C 294.844 148.309, 306.930 161.041, 317 165.781 C 336.035 174.741, 356.932 171.216, 373.007 156.333 C 381.037 148.899, 387.075 140.965, 392.584 130.609 C 401.498 113.853, 405 98.860, 405 77.457 C 405 50.156, 398.624 32.632, 383 16.993 C 368.631 2.609, 349.135 -3.131, 330.217 1.449 M 44.251 129.545 C 19.353 136.250, 2.296 162.650, 0.347 197.500 C -1.332 227.525, 6.056 254.454, 21.770 275.586 C 29.237 285.627, 34.642 290.470, 42.475 294.135 C 53.987 299.522, 64.877 300.040, 75.157 295.690 C 80.584 293.393, 90.188 285.546, 94.674 279.743 C 108.437 261.943, 115.121 239.773, 115.100 212 C 115.080 185.479, 109.295 166.928, 95.425 148.902 C 82.279 131.818, 62.954 124.509, 44.251 129.545 M 442.348 129.420 C 429.923 132.434, 418.151 141.371, 409.315 154.500 C 397.451 172.128, 393 188.632, 393 215 C 393 242.526, 398.574 262.924, 410.393 278.646 C 428.731 303.040, 460.751 305.472, 482.068 284.089 C 501.833 264.264, 511.963 237.109, 511.992 203.881 C 512.023 166.889, 493.453 136.562, 466.465 129.533 C 459.515 127.723, 449.538 127.676, 442.348 129.420 M 243.472 214.042 C 217.224 217.474, 187.105 232.430, 160.367 255.308 C 108.958 299.295, 79.685 364.976, 85.925 422.340 C 90.630 465.599, 112.595 495.978, 148 508.194 C 157.309 511.406, 157.842 511.471, 174.500 511.433 C 190.084 511.398, 192.233 511.169, 200.300 508.687 C 205.140 507.198, 214.140 503.541, 220.300 500.560 C 235.541 493.184, 241.875 491.589, 256 491.571 C 270.012 491.554, 275.959 493.023, 291.877 500.436 C 305.539 506.799, 313.661 509.402, 325.031 511.065 C 336.525 512.746, 354.520 511.769, 363.500 508.977 C 392.748 499.883, 414.206 475.022, 422.560 440.549 C 431.351 404.268, 426.056 365.249, 407.081 326.500 C 389.901 291.418, 359.604 257.540, 326.598 236.506 C 299.383 219.161, 268.384 210.784, 243.472 214.042" stroke="none" fill="black" fill-rule="evenodd"/>
</svg>