<svg xmlns="http://www.w3.org/2000/svg" width="512" height="512" viewBox="0 0 512 512" version="1.1">
	<path d="M 198.123 35.750 C 196.626 37.263, 191.204 46.075, 186.075 55.334 C 177.756 70.348, 176.519 72.098, 174.624 71.525 C 170.106 70.159, 155.320 69.790, 149.935 70.909 C 141.724 72.615, 133.410 76.940, 125.331 83.708 C 121.388 87.011, 111.156 93.636, 102.595 98.431 C 94.034 103.225, 86.122 108.300, 85.014 109.709 C 82.476 112.936, 82.482 116.226, 85.055 131.389 C 88.582 152.178, 92.746 158.050, 111.538 168.731 C 117.567 172.157, 123.098 175.356, 123.829 175.838 C 124.846 176.510, 123.229 179.620, 116.932 189.108 C 97.538 218.325, 88.642 245.093, 87.329 278.181 L 86.706 293.861 59.103 294.208 C 33.352 294.531, 31.131 294.703, 26 296.775 C 9.134 303.584, -0.611 319.479, 0.151 338.935 C 0.537 348.793, 1.823 351.553, 7.990 355.750 L 11.296 358 57.548 358 L 103.801 358 104.918 362.750 C 107.072 371.908, 107.939 382.657, 107.969 400.586 L 108 418.672 101.750 420.409 C 91.491 423.261, 83.820 428.945, 77.997 438.010 C 74.777 443.022, 72 452.391, 72 458.242 C 72 465.850, 76.851 473.306, 84.288 477.131 C 87.846 478.961, 89.999 479.062, 119.788 478.790 C 151.258 478.502, 151.537 478.481, 156.330 476.033 C 158.986 474.676, 162.742 471.814, 164.677 469.672 C 171.500 462.120, 171.447 462.473, 172 421.157 L 172.500 383.815 180.500 390.504 C 197.850 405.012, 224.043 419.928, 244.618 427.017 L 253.735 430.158 248.839 435.266 C 242.813 441.551, 238.469 450.173, 236.462 459.831 C 234.573 468.927, 235.287 473.222, 239.240 476.549 L 242.256 479.086 302.878 478.769 L 363.500 478.452 373 475.823 C 410.301 465.501, 438.154 437.476, 448.184 400.175 C 449.707 394.512, 450.373 388.305, 450.726 376.500 L 451.205 360.500 460.892 350.500 C 472.915 338.089, 477.249 332.802, 484.252 322 C 503.562 292.214, 513.253 257.243, 511.688 223 C 510.348 193.701, 499.766 170.146, 477.624 147.175 C 468.202 137.400, 467.118 135.885, 466.011 130.941 C 463.775 120.947, 468.661 111.739, 478.977 106.512 C 488.603 101.634, 496 89.742, 496 79.144 C 496 64.495, 486.940 52.655, 472.524 48.464 C 464.822 46.225, 458.616 47.011, 449.388 51.393 C 432.295 59.510, 417.262 75.051, 409.471 92.658 C 400.005 114.053, 400.202 139.609, 409.998 160.673 C 415.224 171.913, 418.769 176.809, 430.567 189.085 C 444.765 203.857, 449 213.354, 449 230.418 C 449 253.533, 439.178 279.985, 423.814 298.251 L 421.500 301.001 414.525 295.058 C 404.585 286.587, 395.761 281.721, 368.278 269.552 C 345.409 259.426, 343.865 258.889, 340.649 259.951 C 335.614 261.613, 333.500 264.459, 333.500 269.577 C 333.500 272.616, 334.109 274.549, 335.500 275.931 C 336.600 277.024, 348.463 282.862, 361.862 288.905 C 390.015 301.601, 394.617 304.210, 404.037 312.807 C 428.938 335.533, 437.601 372.463, 425.548 404.500 C 415.306 431.725, 390.249 452.459, 361.539 457.465 C 349.293 459.601, 258 459.764, 258 457.650 C 258 456.039, 262.762 449.388, 266.127 446.299 C 267.446 445.088, 270.769 443.070, 273.512 441.814 C 277.969 439.773, 280.524 439.472, 297.500 438.981 C 307.950 438.679, 317.304 438.055, 318.287 437.595 C 319.270 437.134, 320.732 435.485, 321.537 433.928 C 324.324 428.539, 323.517 426.482, 315.120 417.567 C 306.184 408.080, 302.585 401.449, 300.836 391.252 C 298.559 377.973, 302.943 363.918, 312.860 352.699 C 315.680 349.508, 318.276 345.748, 318.629 344.343 C 320.195 338.102, 312.709 331.036, 306.242 332.650 C 301.575 333.815, 292.325 344.545, 287.404 354.500 C 278.023 373.480, 277.671 393.938, 286.412 412.202 C 287.786 415.074, 288.818 417.498, 288.705 417.589 C 288.592 417.680, 283.775 416.697, 278 415.405 C 239.312 406.747, 208.990 390.679, 182.255 364.668 L 172 354.690 172 345.930 L 172 337.170 177.030 333.478 C 182.453 329.497, 185 325.653, 185 321.450 C 185 317.762, 179.111 311.998, 175.350 312.005 C 172.405 312.011, 171.488 312.513, 160.986 319.874 C 152.449 325.857, 138.125 332.482, 127.956 335.151 C 119.877 337.272, 117.284 337.388, 69.750 337.745 L 20 338.119 20.006 335.309 C 20.023 326.306, 26.853 317.282, 35.249 315.168 C 38.329 314.392, 51.402 313.995, 74.193 313.985 C 112.602 313.969, 116.202 313.530, 128.765 307.331 C 136.443 303.543, 148.355 293.398, 151.945 287.590 C 155.761 281.415, 153.924 275.120, 147.527 272.447 C 142.696 270.428, 140.170 271.595, 132.500 279.388 C 125.280 286.723, 117.113 291.621, 110.241 292.736 L 106.677 293.314 107.288 279.815 C 108.651 249.656, 116.345 226.644, 133.974 200 C 138.522 193.125, 142.346 187.381, 142.470 187.236 C 142.594 187.090, 145.208 188.122, 148.279 189.528 C 153.478 191.908, 154.100 191.985, 157.301 190.648 C 163.802 187.931, 166.035 180.857, 162.008 175.737 C 160.912 174.344, 150 167.465, 137.758 160.450 C 113.657 146.640, 109.593 143.976, 107.956 140.918 C 106.602 138.387, 103.743 122.225, 104.448 121.084 C 104.738 120.615, 111.168 116.755, 118.738 112.506 C 126.526 108.134, 134.779 102.634, 137.749 99.835 C 147.510 90.637, 159.195 87.838, 170.500 91.989 C 178.725 95.010, 183.520 95.544, 186.263 93.747 C 187.493 92.941, 192.742 84.740, 197.927 75.523 L 207.354 58.765 209.427 61.503 C 214.293 67.928, 219.210 76.919, 221.176 82.985 C 224.957 94.653, 224.713 104.860, 219.594 149.199 C 216.410 176.776, 215.293 189.640, 215.934 191.327 C 217.354 195.062, 231.921 212.611, 240.668 221.123 C 258.622 238.597, 263.642 240.972, 270.211 235.102 C 272.904 232.696, 273.455 231.485, 273.455 227.961 C 273.455 223.932, 273.077 223.387, 265.977 217.168 C 256.828 209.153, 245.290 197.278, 239.868 190.295 L 235.826 185.090 240.084 148.795 C 244.648 109.890, 245.180 96.937, 242.692 85.370 C 240.748 76.335, 235.983 64.852, 230.828 56.780 C 226.375 49.807, 213.988 36.639, 209.800 34.427 C 205.486 32.147, 201.211 32.632, 198.123 35.750 M 460.767 68.469 C 446.338 73.430, 432.057 88.864, 425.733 106.333 C 423.812 111.638, 423.506 114.457, 423.541 126.500 C 423.577 139.089, 423.841 141.180, 426.163 147.242 C 430.178 157.723, 434.827 164.681, 443.316 172.917 C 462.047 191.090, 469.003 206.528, 468.997 229.910 C 468.989 259.811, 458.105 289.280, 438.728 311.868 L 434.124 317.236 436.735 321.368 C 438.172 323.641, 440.664 328.402, 442.273 331.948 L 445.200 338.396 451.350 331.565 C 471.280 309.428, 484.044 283.754, 489.660 254.500 C 492.271 240.903, 492.009 216.089, 489.144 205.500 C 484.545 188.500, 475.672 173.633, 461.977 159.977 C 451.924 149.952, 448.738 145.039, 446.414 135.975 C 441.726 117.687, 450.876 98.177, 468.279 89.359 C 471.851 87.548, 473.549 85.931, 474.655 83.284 C 478.517 74.039, 470.242 65.212, 460.767 68.469 M 154.025 109.752 C 151.687 110.928, 150.096 112.707, 149.163 115.188 C 147.920 118.492, 147.970 119.270, 149.638 122.669 C 150.954 125.350, 152.580 126.866, 155.188 127.843 C 158.488 129.079, 159.277 129.028, 162.688 127.362 C 170.385 123.603, 170.312 112.699, 162.568 109.464 C 158.196 107.637, 158.229 107.636, 154.025 109.752 M 295.400 244.400 C 288.814 250.986, 292.966 260.923, 302.327 260.978 C 312.696 261.038, 315.685 246.908, 306.316 242.117 C 302.374 240.101, 298.991 240.809, 295.400 244.400 M 144 351.059 C 139.875 352.605, 133.912 354.408, 130.750 355.066 C 127.586 355.723, 125 356.803, 125 357.467 C 125 358.131, 125.672 363.135, 126.494 368.587 C 127.540 375.525, 127.990 386.701, 127.994 405.827 L 128 433.154 125.077 436.077 C 122.453 438.701, 121.497 439, 115.726 439 C 102.382 439, 95.008 444.328, 92.543 455.750 L 91.841 459 118.997 459 L 146.154 459 149.077 456.077 L 152 453.154 152 400.577 C 152 371.660, 151.887 348.055, 151.750 348.123 C 151.613 348.191, 148.125 349.512, 144 351.059" stroke="none" fill="black" fill-rule="evenodd"/>
</svg>