<svg xmlns="http://www.w3.org/2000/svg" width="512" height="512" viewBox="0 0 512 512" version="1.1">
	<path d="M 154.909 65.554 C 149.434 67.240, 141.915 73.583, 138.516 79.382 C 127.943 97.423, 129.765 125.327, 142.252 136.609 C 147.824 141.642, 152.391 143.343, 158.615 142.700 C 165.446 141.995, 170.575 139.231, 176.190 133.227 C 192.189 116.124, 193.356 86.167, 178.596 71.497 C 171.289 64.235, 164.621 62.562, 154.909 65.554 M 159 76.722 C 154.910 78.259, 151.480 81.888, 148.901 87.408 C 141.568 103.106, 143.992 124.607, 153.734 130.282 C 158.125 132.839, 162.509 131.342, 167.968 125.419 C 177.877 114.669, 180.491 96.724, 174.001 84.003 C 170.835 77.797, 164.422 74.684, 159 76.722 M 69 85.240 C 60.454 89.824, 56.126 103.655, 58.962 117.315 C 61.832 131.143, 75.167 149.998, 85.673 155.084 C 98.582 161.333, 112.029 154.524, 116.569 139.438 C 122.074 121.144, 110.235 95.315, 92.323 86.545 C 83.996 82.467, 75.097 81.970, 69 85.240 M 73.736 96.250 C 68.255 100.412, 68.963 116.142, 75.181 128.349 C 78.201 134.278, 84.980 141.061, 90.411 143.589 C 94.684 145.577, 95.714 145.715, 98.335 144.645 C 103.901 142.374, 105.494 138.935, 105.497 129.181 C 105.500 121.542, 105.128 119.714, 102.397 113.953 C 100.691 110.352, 97.769 105.668, 95.905 103.544 C 89.991 96.809, 78.137 92.908, 73.736 96.250 M 212.291 121.899 C 198.505 128.339, 189.087 149, 191.846 166.748 C 194.362 182.930, 204.281 194.017, 216.218 193.990 C 224.995 193.970, 235.825 186.144, 240.934 176.130 C 248.197 161.893, 247.361 143.437, 238.873 130.622 C 232.526 121.040, 221.720 117.494, 212.291 121.899 M 217.404 132.974 C 216.252 133.440, 213.689 135.714, 211.709 138.027 C 202.439 148.856, 201.660 168.848, 210.130 178.496 C 214.042 182.950, 218.382 183.233, 223.016 179.333 C 233.182 170.779, 236.562 154.150, 230.839 140.846 C 227.563 133.233, 223.155 130.649, 217.404 132.974 M 21 150.255 C 18.525 151.574, 15.150 154.570, 13.500 156.913 C 10.725 160.852, 10.500 161.823, 10.500 169.836 C 10.500 177.445, 10.876 179.294, 13.590 185.020 C 19.741 198, 33.010 208.779, 46.785 211.986 C 58.815 214.786, 70.138 209.693, 75.507 199.065 C 76.838 196.430, 77.128 194.034, 76.752 188.771 C 75.723 174.398, 64.902 159.783, 49.527 152 C 43.516 148.957, 41.494 148.458, 34.056 148.178 C 26.576 147.896, 24.934 148.157, 21 150.255 M 24.750 161.966 C 22.422 163.811, 22 164.896, 22 169.035 C 22 184.669, 38.065 201.269, 53.081 201.153 C 59.879 201.100, 61.771 200.343, 63.511 196.979 C 65.920 192.321, 65.371 186.061, 61.953 179.222 C 58.382 172.076, 54.248 168.164, 45.719 163.858 C 37.344 159.630, 28.683 158.849, 24.750 161.966 M 132.487 170.799 C 111.321 178.118, 91.304 203.343, 80.551 236.249 C 73.248 258.598, 70.809 282.260, 74.522 294.762 C 76.504 301.437, 84.266 310.037, 91.310 313.361 C 102.057 318.434, 108.958 317.790, 127.634 309.969 C 142.607 303.700, 153.265 301.944, 182 301.013 C 209.264 300.129, 214.080 299.191, 220.778 293.458 C 226.286 288.743, 230.146 281.050, 230.745 273.594 C 231.741 261.182, 221.867 236.194, 207.659 215.169 C 190.103 189.192, 176.736 176.930, 159.514 171.005 C 152.064 168.442, 139.578 168.347, 132.487 170.799 M 131.500 181.804 C 116.316 189.146, 99.846 211.162, 91.702 235 C 85.564 252.965, 83.602 262.834, 83.550 276 C 83.502 287.987, 83.617 288.699, 86.352 293.352 C 88.624 297.217, 90.325 298.717, 94.716 300.728 C 101.791 303.966, 106.037 303.511, 119.811 298.037 C 139.698 290.134, 146.917 288.900, 178 288.094 C 203.135 287.442, 205.845 287.202, 209.508 285.294 C 214.568 282.658, 218 276.819, 218 270.844 C 218 247.056, 183.860 193.911, 161.525 182.929 C 155.518 179.976, 153.367 179.459, 146.025 179.201 C 138.328 178.931, 136.917 179.184, 131.500 181.804 M 371.327 192.458 C 359.720 197.508, 349.930 218.972, 351.287 236.397 C 352.884 256.909, 361.741 269.032, 375.088 268.978 C 389.138 268.921, 400.801 256.417, 404.717 237.211 C 409.159 215.433, 395.809 190.914, 379.579 191.039 C 376.785 191.061, 373.072 191.699, 371.327 192.458 M 372.210 205.477 C 366.385 210.378, 361.300 227.615, 362.534 238.275 C 363.943 250.447, 371.260 259.200, 378.048 256.834 C 381.583 255.601, 387.450 249.253, 389.428 244.519 C 395.136 230.856, 393.008 215.075, 384.280 206.347 C 380.188 202.255, 376.366 201.980, 372.210 205.477 M 444.178 222.043 C 432.741 227.805, 422.170 240.301, 417.474 253.607 C 408.062 280.281, 427.767 297.315, 453.387 284.653 C 463.096 279.855, 471.733 270.863, 476.762 260.320 C 480.211 253.089, 480.492 251.823, 480.496 243.500 C 480.499 235.750, 480.153 233.881, 478 230.044 C 476.625 227.594, 473.549 224.219, 471.165 222.544 C 467.339 219.858, 465.870 219.462, 458.665 219.179 C 451.147 218.883, 449.999 219.110, 444.178 222.043 M 296.500 224.013 C 288.349 226.536, 281.920 236.053, 279.981 248.467 C 276.280 272.157, 294.344 298.259, 314.569 298.444 C 319.576 298.490, 321.369 298.017, 324.811 295.741 C 341.450 284.740, 340.823 253.116, 323.592 234.248 C 315.793 225.708, 304.637 221.494, 296.500 224.013 M 451.500 230.227 C 438.999 234.683, 427 251.910, 427 265.403 C 427 271.230, 429.360 275.426, 433.529 277.011 C 436.196 278.025, 443.577 276.288, 449.525 273.247 C 458.819 268.495, 467.807 255.215, 468.748 244.847 C 469.878 232.376, 462.654 226.251, 451.500 230.227 M 297.713 237.011 C 291.482 241.913, 289.635 257.154, 293.926 268.262 C 296.818 275.746, 304.152 283.425, 309.883 284.968 C 315.439 286.465, 318.711 284.847, 321.967 278.994 C 324.052 275.247, 324.468 273.170, 324.466 266.500 C 324.465 259.645, 324.023 257.563, 321.380 251.953 C 314.623 237.613, 304.818 231.422, 297.713 237.011 M 368 297.522 C 345.224 302.196, 322.354 316.353, 299.976 339.633 C 284.572 355.657, 277 369.408, 277 381.359 C 277 389.856, 279.296 396.001, 284.729 402.044 C 291.684 409.779, 297.382 412.003, 315.233 413.953 C 324.832 415.001, 341.180 420.056, 351.171 425.064 C 354.652 426.809, 364.025 431.965, 372 436.520 C 388.438 445.911, 395.843 448.551, 402.816 447.505 C 409.320 446.530, 415.887 442.931, 420.707 437.702 C 425.400 432.611, 429.834 420.482, 432.113 406.500 C 434.953 389.079, 432.754 353.204, 427.867 337.247 C 418.238 305.807, 396.834 291.605, 368 297.522 M 471.844 297.394 C 461.214 301.191, 450.453 311.272, 444.824 322.706 C 441.758 328.933, 441.500 330.204, 441.500 339.057 C 441.500 347.976, 441.714 349.006, 444.512 353.578 C 448.908 360.763, 454.266 363.309, 463.630 362.664 C 473.244 362.001, 480.642 358.400, 488.424 350.596 C 495.251 343.748, 500.152 334.753, 501.986 325.705 C 504.457 313.514, 499.402 301.279, 490.282 297.377 C 486.264 295.657, 476.680 295.666, 471.844 297.394 M 472.500 309.351 C 463.209 313.684, 454.346 325.136, 452.652 335 C 451.306 342.834, 455.831 351, 461.518 351 C 470.150 351, 482.281 342.267, 486.889 332.736 C 489.323 327.700, 490.705 317.946, 489.605 313.564 C 487.910 306.808, 481.395 305.203, 472.500 309.351 M 366.566 310.399 C 355.735 313.338, 339.986 321.080, 330.500 328.130 C 326.650 330.991, 317.875 338.998, 311 345.923 C 301.594 355.398, 297.386 360.490, 294 366.497 C 289.841 373.874, 289.500 375.017, 289.500 381.563 C 289.500 387.464, 289.917 389.265, 292 392.350 C 295.705 397.839, 302.419 400.712, 315.599 402.449 C 334.536 404.944, 355.621 412.903, 373.979 424.487 C 385.417 431.704, 395.048 436.004, 399.728 435.984 C 404.444 435.963, 410.777 432.454, 413.566 428.317 C 419.540 419.451, 422.475 387.715, 419.559 363.500 C 417.524 346.599, 415.854 339.713, 411.557 330.500 C 402.545 311.177, 387.870 304.620, 366.566 310.399" stroke="none" fill="black" fill-rule="evenodd"/>
</svg>