<svg xmlns="http://www.w3.org/2000/svg" width="512" height="512" viewBox="0 0 512 512" version="1.1">
	<path d="M 168.272 53.437 C 158.589 55.783, 150.052 60.822, 142.007 68.939 C 133.687 77.335, 128.516 85.477, 123.879 97.483 C 118.532 111.325, 117.525 117.662, 117.598 137 C 117.657 152.656, 117.944 155.546, 120.320 164.429 C 128.916 196.567, 150.317 218.331, 175.651 220.696 C 196.946 222.685, 218.852 208.661, 230.752 185.421 C 235.720 175.717, 238.783 166.655, 241.032 155 C 242.784 145.920, 242.299 123.767, 240.120 113.373 C 231.392 71.741, 200.182 45.705, 168.272 53.437 M 320.112 53.581 C 302.078 58.431, 285.054 75.316, 276.866 96.475 C 271.989 109.079, 269.974 120.541, 269.918 136 C 269.844 156.291, 272.635 168.398, 281.314 185.435 C 292.980 208.335, 314.472 222.325, 335.500 220.709 C 361.299 218.727, 382.961 197.026, 391.680 164.429 C 394.056 155.546, 394.343 152.656, 394.402 137 C 394.475 117.662, 393.468 111.325, 388.121 97.483 C 386.426 93.093, 383.342 86.578, 381.269 83.007 C 376.298 74.445, 364.141 62.346, 356.407 58.265 C 345.175 52.338, 331.361 50.555, 320.112 53.581 M 54.459 181.395 C 46.814 183.252, 40.522 186.672, 34.288 192.357 C 26.944 199.054, 21.623 207.398, 18.302 217.422 C 15.928 224.589, 15.621 227.079, 15.577 239.500 C 15.517 256.347, 16.993 263.003, 24.004 277.500 C 34.548 299.300, 51.449 312.972, 71.824 316.183 C 96.672 320.099, 120.755 300.535, 126.468 271.792 C 133.204 237.904, 115.989 199.974, 87.500 185.931 C 75.695 180.112, 65.500 178.712, 54.459 181.395 M 437 181.086 C 430.103 182.416, 417.149 189.293, 410.732 195.033 C 403.397 201.594, 397.006 210.551, 392.093 221.156 C 381.706 243.579, 381.379 267.854, 391.193 288 C 402.650 311.520, 426.341 321.968, 449.865 313.875 C 478.592 303.991, 498.735 270.182, 496.730 235.212 C 494.651 198.962, 468.273 175.059, 437 181.086 M 244.582 233.110 C 187.812 238.677, 137.876 287.623, 120.098 355.125 C 115.840 371.290, 114.799 378.122, 114.860 389.500 C 114.991 414.071, 127.235 436.685, 147.624 450.012 C 158.506 457.125, 166.986 459.516, 181 459.426 C 191.049 459.361, 193.699 458.959, 202 456.239 C 215.639 451.770, 222.936 450.043, 234.924 448.447 C 259.878 445.125, 282.583 447.444, 309.894 456.106 C 321.184 459.686, 332.112 460.708, 341.542 459.066 C 366.158 454.779, 388.363 433.300, 395.071 407.287 C 400.886 384.737, 394.005 350.069, 376.934 315.910 C 361.048 284.118, 333.599 256.273, 305.542 243.487 C 286.635 234.871, 264.701 231.137, 244.582 233.110" stroke="none" fill="black" fill-rule="evenodd"/>
</svg>