<svg xmlns="http://www.w3.org/2000/svg" width="512" height="512" viewBox="0 0 512 512" version="1.1">
	<path d="M 57.500 1.460 C 32.343 6.979, 12.178 25.226, 3.308 50.500 L 0.500 58.500 0.237 285.252 L -0.026 512.004 256.237 511.752 L 512.500 511.500 512.752 286.690 C 512.920 136.679, 512.671 62.085, 512.002 62.499 C 511.430 62.853, 511 61.990, 511 60.485 C 511 56.112, 506.142 42.940, 501.785 35.500 C 496.922 27.195, 484.753 14.881, 476.719 10.135 C 473.586 8.284, 467.080 5.359, 462.261 3.635 L 453.500 0.500 258.500 0.322 C 100.464 0.178, 62.363 0.393, 57.500 1.460 M 0.491 287.500 C 0.491 411.250, 0.608 461.726, 0.750 399.670 C 0.892 337.613, 0.892 236.363, 0.750 174.670 C 0.608 112.976, 0.491 163.750, 0.491 287.500 M 69.020 65.280 C 67.656 65.973, 65.975 67.656, 65.284 69.020 C 64.298 70.969, 64.026 98.040, 64.015 195.469 L 64 319.437 115.250 268.356 C 175.829 207.976, 172.482 210.500, 192 210.500 C 212.458 210.500, 199.572 199.344, 332.758 332.368 L 448.015 447.487 447.758 258.271 L 447.500 69.055 445.222 66.778 L 442.945 64.500 257.222 64.260 C 109.512 64.070, 70.992 64.279, 69.020 65.280 M 324.500 107.077 C 295.522 109.898, 273.323 138.656, 277.816 167.555 C 280.922 187.531, 296.007 205.215, 314.928 211.060 C 323.173 213.607, 337.085 213.782, 345 211.438 C 368.135 204.587, 384 183.662, 384 160 C 384 151.577, 382.323 144.536, 378.404 136.500 C 368.456 116.102, 347.772 104.811, 324.500 107.077" stroke="none" fill="black" fill-rule="evenodd"/>
</svg>