<svg xmlns="http://www.w3.org/2000/svg" width="512" height="512" viewBox="0 0 512 512" version="1.1">
	<path d="M 49 1.571 C 31.123 6.249, 14.910 19.218, 7.165 35.034 C -0.624 50.941, -0 29.287, -0 283.712 L 0 512.004 256.250 511.752 L 512.500 511.500 512.752 282.081 C 512.891 155.901, 512.691 52.975, 512.309 53.358 C 511.927 53.740, 511.023 51.679, 510.302 48.776 C 505.989 31.431, 492.735 14.887, 476.966 7.165 C 461.103 -0.602, 479.649 -0.008, 255.540 0.066 C 83.967 0.122, 53.694 0.343, 49 1.571 M 0.491 283 C 0.491 409.225, 0.608 460.862, 0.750 397.750 C 0.892 334.637, 0.892 231.362, 0.750 168.250 C 0.608 105.137, 0.491 156.775, 0.491 283 M 278 256 L 278 405 299 405 L 320 405 320 256 L 320 107 299 107 L 278 107 278 256 M 192 288 L 192 405 213 405 L 234 405 234 288 L 234 171 213 171 L 192 171 192 288 M 107 320 L 107 405 128 405 L 149 405 149 320 L 149 235 128 235 L 107 235 107 320 M 363 362.500 L 363 405 384 405 L 405 405 405 362.500 L 405 320 384 320 L 363 320 363 362.500" stroke="none" fill="black" fill-rule="evenodd"/>
</svg>