<svg xmlns="http://www.w3.org/2000/svg" width="512" height="512" viewBox="0 0 512 512" version="1.1">
	<path d="M 227.885 86.380 C 221.869 88.530, 218.261 91.768, 215.426 97.562 C 213.134 102.246, 212.815 103.915, 213.303 108.647 C 214.002 115.415, 217.360 120.885, 223.183 124.741 L 227.349 127.500 279.425 128.055 C 337.144 128.670, 334.943 128.428, 349.498 135.744 C 358.880 140.460, 371.199 152.800, 376.209 162.500 C 383.814 177.222, 383.367 170.470, 383.742 276.440 L 384.077 371.380 381.852 369.440 C 380.628 368.373, 369.023 357.641, 356.063 345.591 C 329.889 321.255, 327.282 319.522, 317.852 320.204 C 303.041 321.276, 293.890 337.460, 300.709 350.524 C 302.535 354.020, 343.360 393.291, 363.406 410.832 C 384.732 429.494, 417.122 431.687, 440.166 416.029 C 448.436 410.410, 503.331 359.504, 507.693 353.409 C 513.014 345.974, 513.140 337.550, 508.054 329.290 C 503.074 321.202, 490.439 317.631, 481.836 321.880 C 479.379 323.094, 466.666 334.138, 452.500 347.366 L 427.500 370.709 426.915 274.605 C 426.414 192.458, 426.102 177.483, 424.761 171.500 C 414.395 125.235, 378.351 91.746, 332.769 86.030 C 320.222 84.457, 232.447 84.749, 227.885 86.380 M 92.026 87.496 C 79.535 90.332, 70.595 95.609, 56.945 108.205 C 1.529 159.344, -0 161.021, 0 170.646 C 0 185.352, 14.905 195.764, 28.949 190.868 C 30.870 190.198, 42.872 179.818, 58.348 165.441 L 84.500 141.146 85.024 238.323 L 85.548 335.500 88.172 345.074 C 94.101 366.711, 102.917 381.852, 118.136 396.535 C 132.643 410.532, 146.472 418.263, 166.867 423.780 L 176.500 426.386 227.627 426.765 C 264.765 427.040, 279.950 426.821, 283.125 425.966 C 289.065 424.367, 296.374 417.037, 297.981 411.069 C 300.353 402.260, 296.177 391.759, 288.371 386.907 L 284.500 384.500 232.500 383.993 L 180.500 383.487 172.510 380.670 C 162.053 376.983, 154.409 372.249, 147.080 364.920 C 139.756 357.596, 135.021 349.954, 131.324 339.490 L 128.500 331.500 128.221 236.069 L 127.942 140.637 130.157 142.569 C 131.376 143.631, 142.977 154.357, 155.937 166.405 C 169.317 178.845, 181.229 189.098, 183.500 190.133 C 188.603 192.459, 195.392 192.459, 200.509 190.135 C 204.812 188.180, 210.548 182.318, 212.067 178.324 C 213.673 174.101, 213.158 165.231, 211.071 161.139 C 208.668 156.429, 148.405 100.037, 140.822 95.403 C 137.895 93.614, 131.900 90.937, 127.500 89.454 C 117.509 86.087, 102.004 85.232, 92.026 87.496" stroke="none" fill="black" fill-rule="evenodd"/>
</svg>