<svg xmlns="http://www.w3.org/2000/svg" width="512" height="512" viewBox="0 0 512 512" version="1.1">
	<path d="M 109 1.576 C 71.190 8.428, 38.862 36.508, 26.769 73 C 21.254 89.644, 21.500 80.224, 21.500 274.500 C 21.500 446.431, 21.582 454.769, 23.340 460.500 C 26.203 469.839, 31.928 479.850, 38.301 486.663 C 59.770 509.613, 93.395 514.075, 119.697 497.465 C 123.538 495.039, 147.562 471.777, 190.750 428.668 L 256 363.535 321.250 428.668 C 364.438 471.777, 388.462 495.039, 392.303 497.465 C 412.523 510.234, 437.734 510.714, 459 498.735 C 467.366 494.023, 479.051 481.850, 483.282 473.440 C 491.168 457.764, 490.500 476.177, 490.500 274.500 C 490.500 81.055, 490.738 90.286, 485.308 73.500 C 475.002 41.644, 448.686 15.321, 417 5.172 C 400.413 -0.140, 404.628 -0.008, 255.140 0.108 C 142.994 0.196, 115.067 0.476, 109 1.576" stroke="none" fill="black" fill-rule="evenodd"/>
</svg>