<svg xmlns="http://www.w3.org/2000/svg" width="512" height="512" viewBox="0 0 512 512" version="1.1">
	<path d="M 45.656 1.515 C 36.200 3.912, 24.523 10.582, 17.634 17.523 C 6.622 28.617, 1.116 40.522, 0.250 55.113 C -0.744 71.839, -1.765 69.566, 45.812 156.500 L 88.500 234.500 299.952 234.752 C 431.448 234.909, 511.045 234.650, 510.452 234.068 C 508.191 231.843, 83.918 4.814, 78.500 2.930 C 70.531 0.158, 53.846 -0.561, 45.656 1.515 M 85.712 283.250 C 69.861 311.879, 7.047 429.777, 5.130 434.499 C 2.163 441.806, 1.128 456.483, 2.958 465.299 C 6.953 484.540, 22.818 501.925, 42.374 508.490 C 56.672 513.289, 72.897 512.592, 86.324 506.599 C 92.718 503.746, 509.132 279.245, 510.450 277.940 C 511.043 277.353, 432.071 277, 300.286 277 L 89.172 277 85.712 283.250" stroke="none" fill="black" fill-rule="evenodd"/>
</svg>