<svg xmlns="http://www.w3.org/2000/svg" width="512" height="512" viewBox="0 0 512 512" version="1.1">
	<path d="M 240.216 2.019 C 228.867 4.992, 219.579 10.380, 210.980 18.980 C 198.236 31.723, 192 47.038, 192 65.588 L 192 74.856 186.620 76.869 C 172.370 82.201, 155.238 91.811, 140.773 102.586 L 131.047 109.832 123.273 105.390 C 107.574 96.417, 91.027 93.843, 74.958 97.874 C 61.803 101.174, 54.756 105.181, 44.904 114.964 C 31.547 128.228, 26 141.442, 26 160 C 26 171.334, 27.716 178.794, 32.671 189 C 37.246 198.422, 49.224 210.760, 59.500 216.634 C 64.519 219.503, 66.474 221.182, 66.408 222.568 C 66.358 223.631, 65.796 229.130, 65.158 234.789 C 64.521 240.448, 64 249.993, 64 256 C 64 262.007, 64.521 271.552, 65.158 277.211 C 65.796 282.870, 66.358 288.369, 66.408 289.432 C 66.474 290.818, 64.519 292.497, 59.500 295.366 C 49.297 301.199, 37.349 313.536, 32.738 323 C 23.500 341.963, 23.698 364.121, 33.272 382.493 C 37.763 391.112, 51.540 404.544, 60.243 408.789 C 80.826 418.829, 101.708 418.274, 122.334 407.138 L 131.332 402.281 139.416 408.509 C 152.586 418.655, 172.264 429.759, 186.535 435.099 L 192 437.144 192 446.412 C 192 464.962, 198.236 480.277, 210.980 493.020 C 236.313 518.354, 275.687 518.354, 301.020 493.020 C 313.717 480.324, 320 464.950, 320 446.579 L 320 437.478 330.250 433.091 C 346.936 425.950, 360.671 417.857, 374.666 406.918 L 380.832 402.099 388.666 406.576 C 404.372 415.552, 420.994 418.167, 436.853 414.157 C 450.063 410.816, 457.304 406.713, 467.106 397.015 C 476.584 387.638, 481.580 379.076, 484.605 367.026 C 486.874 357.990, 486.085 339.910, 483.047 331.317 C 477.991 317.012, 467.370 304.383, 453.193 295.816 C 445.567 291.209, 444.931 290.579, 445.435 288.148 C 448.050 275.541, 448.691 251.216, 446.842 234.789 C 446.204 229.130, 445.642 223.631, 445.592 222.568 C 445.526 221.182, 447.481 219.503, 452.500 216.634 C 462.885 210.697, 474.811 198.392, 479.283 189 C 484.910 177.184, 486.283 170.386, 485.747 157 C 485.385 147.964, 484.747 144.056, 482.770 138.758 C 473.402 113.658, 451.830 97.532, 425.873 96.228 C 412.729 95.568, 403.437 97.728, 390.514 104.450 L 380.500 109.659 372.678 103.449 C 362.113 95.061, 345.177 85.175, 331.380 79.341 L 320 74.530 320 65.425 C 320 47.050, 313.718 31.677, 301.020 18.980 C 284.805 2.764, 261.831 -3.645, 240.216 2.019 M 238.500 172.656 C 199.148 181.048, 171 215.802, 171 256 C 171 303.022, 208.978 341, 256 341 C 284.461 341, 310.925 326.950, 326.471 303.587 C 360.248 252.822, 332.387 184.902, 272.730 172.579 C 263.306 170.633, 247.825 170.667, 238.500 172.656" stroke="none" fill="black" fill-rule="evenodd"/>
</svg>