<svg xmlns="http://www.w3.org/2000/svg" width="512" height="512" viewBox="0 0 512 512" version="1.1">
	<path d="M 180 23.871 C 140.675 36.960, 105.575 49.149, 102 50.958 C 74.082 65.087, 53.461 90.385, 45.934 119.737 C 42.385 133.580, 41.760 149.615, 42.271 213.819 C 42.795 279.826, 43.059 283.468, 48.997 306.481 C 68.324 381.393, 136.140 452.905, 237.844 505.620 C 248.649 511.221, 249.528 511.498, 256.344 511.454 C 262.847 511.412, 264.686 510.880, 276.500 505.623 C 303.491 493.611, 325.299 481.853, 344.500 468.958 C 404.968 428.350, 444.978 376.977, 460.949 319.435 C 468.344 292.792, 468.288 293.576, 468.741 211.500 C 469.038 157.755, 468.827 135.447, 467.971 130 C 462.719 96.609, 441.500 67.256, 411.522 51.915 C 399.192 45.605, 262.354 -0.017, 255.919 0.037 C 252.893 0.062, 228.958 7.576, 180 23.871 M 170.500 129.343 C 161.146 132.431, 155.617 137.209, 151.801 145.500 C 149.513 150.472, 149.498 150.773, 149.191 200 C 148.748 270.697, 149.949 281.241, 160.974 303.500 C 192.462 367.069, 276.680 382.155, 328.828 333.569 C 342.170 321.138, 353.388 302.603, 358.527 284.500 C 362.362 270.991, 363.155 255.332, 362.809 200 C 362.502 150.786, 362.487 150.471, 360.201 145.500 C 355.268 134.774, 345.621 128.555, 334 128.611 C 322.857 128.665, 320.142 130.408, 302.658 148.738 L 294.816 156.959 288.658 154.884 C 269.012 148.264, 242.988 148.264, 223.342 154.884 L 217.184 156.959 209.342 148.738 C 196.222 134.983, 193.784 132.792, 189.482 130.889 C 183.851 128.398, 175.437 127.713, 170.500 129.343 M 246 192.621 C 240.196 193.735, 230.502 197.279, 224.390 200.522 C 213.613 206.239, 204.730 205.047, 196.250 196.744 L 192 192.584 192 228.132 C 192 260.239, 192.191 264.427, 193.972 271.391 C 199.835 294.316, 217.684 312.165, 240.609 318.028 C 274.361 326.660, 309.271 305.631, 318.028 271.391 C 319.809 264.427, 320 260.239, 320 228.132 L 320 192.584 315.750 196.744 C 307.286 205.031, 298.383 206.237, 287.664 200.550 C 277.081 194.936, 269.668 192.888, 258.500 192.494 C 253 192.300, 247.375 192.357, 246 192.621 M 242.270 257.483 C 235.008 260.639, 232.706 271.801, 238.106 277.664 C 241.343 281.178, 251.692 285.998, 256 285.998 C 260.308 285.998, 270.657 281.178, 273.894 277.664 C 279.379 271.708, 276.962 260.553, 269.510 257.440 C 264.913 255.519, 246.721 255.547, 242.270 257.483" stroke="none" fill="black" fill-rule="evenodd"/>
</svg>