<svg xmlns="http://www.w3.org/2000/svg" width="512" height="512" viewBox="0 0 512 512" version="1.1">
	<path d="M 215.875 1.521 C 175.386 9.054, 142.772 39.091, 131.475 79.250 L 129.858 85 85.179 85.006 C 55.597 85.009, 39.148 85.385, 36.500 86.118 C 30.931 87.660, 23.563 95.197, 22.019 100.931 C 19.647 109.740, 23.823 120.241, 31.629 125.093 C 35.085 127.242, 36.867 127.538, 48.250 127.850 C 55.263 128.043, 61 128.493, 61 128.850 C 60.999 129.208, 67.315 195.200, 75.035 275.500 C 84.379 372.691, 89.729 424.288, 91.038 429.840 C 100.307 469.143, 129.427 498.570, 169.500 509.129 L 178.500 511.500 256 511.500 C 332.029 511.500, 333.652 511.459, 341.500 509.360 C 360.908 504.169, 376.968 495.510, 390.275 483.062 C 406.445 467.935, 418.149 446.308, 421.966 424.500 C 422.640 420.650, 429.338 352.475, 436.851 273 L 450.510 128.500 463.005 128 C 477.909 127.404, 481.799 125.869, 486.693 118.653 C 492.936 109.447, 492.011 99.721, 484.145 91.865 C 481.274 88.998, 477.972 86.803, 475.500 86.118 C 472.852 85.386, 456.430 85.009, 426.924 85.006 L 382.347 85 378.548 73.451 C 368.977 44.354, 347.571 20.846, 319.635 8.752 C 302.053 1.141, 298.911 0.708, 259 0.388 C 231.605 0.168, 221.759 0.427, 215.875 1.521 M 223.500 43.660 C 217.346 44.975, 205.835 49.705, 200.340 53.175 C 192.257 58.280, 183.213 68.163, 178.612 76.918 C 176.626 80.699, 175 84.064, 175 84.396 C 175 84.728, 211.450 85, 256 85 C 300.550 85, 337 84.728, 337 84.396 C 337 84.064, 335.324 80.577, 333.275 76.646 C 327.912 66.359, 315.951 54.631, 305.823 49.727 C 292.959 43.500, 289.274 43.017, 255.500 43.131 C 239 43.186, 224.600 43.424, 223.500 43.660 M 187.691 214.020 C 174.931 216.311, 167.307 231.527, 172.919 243.500 C 174.115 246.052, 184.060 256.726, 200.388 272.984 L 225.983 298.468 200.041 324.484 C 183.083 341.490, 173.563 351.788, 172.550 354.218 C 170.480 359.184, 170.626 366.579, 172.893 371.571 C 175.984 378.377, 184.629 384, 192 384 C 199.686 384, 201.697 382.440, 229.250 355.113 L 256 328.583 282.750 355.113 C 310.303 382.440, 312.314 384, 320 384 C 327.371 384, 336.016 378.377, 339.107 371.571 C 341.374 366.579, 341.520 359.184, 339.450 354.218 C 338.437 351.788, 328.917 341.490, 311.959 324.484 L 286.017 298.468 312.019 272.484 C 340.615 243.908, 341.622 242.513, 340.799 232.586 C 339.894 221.671, 331.236 213.800, 320.135 213.800 C 316.604 213.800, 312.943 214.478, 310.894 215.512 C 309.027 216.453, 295.913 228.749, 281.750 242.836 L 256 268.449 230.250 242.836 C 216.088 228.749, 203.150 216.562, 201.500 215.753 C 197.559 213.821, 192.404 213.174, 187.691 214.020" stroke="none" fill="black" fill-rule="evenodd"/>
</svg>