<svg xmlns="http://www.w3.org/2000/svg" width="512" height="512" viewBox="0 0 512 512" version="1.1">
	<path d="M 241 0.605 C 220.356 4.393, 211.821 7.022, 198.500 13.697 C 163.945 31.013, 138.850 63.614, 130.527 102 C 128.267 112.423, 127.451 133.762, 128.917 144.105 C 134.958 186.718, 160.803 223.333, 198.026 242.013 C 215.897 250.981, 230.532 254.787, 250.605 255.686 C 272.854 256.682, 291.680 252.785, 311.540 243.071 C 338.644 229.815, 357.859 210.594, 371.055 183.540 C 385.095 154.757, 387.767 123.863, 378.972 92 C 375.994 81.210, 366.325 61.868, 358.984 52.017 C 340.112 26.691, 313.145 9.348, 282 2.506 C 274.746 0.912, 246.471 -0.398, 241 0.605 M 228 300.624 C 173.964 308.745, 125.010 340.295, 94.751 386.500 C 75.846 415.368, 63.929 454.619, 64.022 487.711 C 64.047 496.508, 65.937 501.802, 70.624 506.197 C 77.254 512.415, 64.015 512.002, 256.218 511.978 C 424.697 511.957, 431.655 511.884, 435.500 510.104 C 447.101 504.733, 449.709 495.642, 446.945 470.211 C 442.325 427.706, 423.854 388.373, 394.097 357.677 C 363.421 326.031, 326.237 306.937, 282.872 300.562 C 269.612 298.613, 241.167 298.645, 228 300.624" stroke="none" fill="black" fill-rule="evenodd"/>
</svg>