<svg xmlns="http://www.w3.org/2000/svg" width="512" height="512" viewBox="0 0 512 512" version="1.1">
	<path d="M 93.208 86.071 C 47 92.072, 9.511 127.955, 1.468 173.881 C -0.695 186.228, -0.695 325.772, 1.468 338.119 C 9.146 381.964, 43.080 416.275, 87.500 425.108 C 97.819 427.160, 286.181 427.160, 296.500 425.108 C 329.632 418.520, 357.087 398.091, 371.906 369 C 377.505 358.009, 380.286 349.874, 382.455 338.140 C 384.691 326.039, 384.757 186.585, 382.532 173.881 C 374.409 127.495, 337.161 92.132, 290 86.032 C 280.897 84.854, 102.303 84.890, 93.208 86.071 M 456.996 136.812 C 449.236 139.377, 446.716 141.149, 436.250 151.400 L 427 160.460 427 255.546 L 427 350.632 436.250 359.684 C 449.442 372.595, 459.205 376.860, 472.930 375.709 C 490.098 374.270, 505.004 362.441, 509.989 346.299 C 511.936 339.996, 512 337.114, 512 255.500 C 512 174.356, 511.926 170.972, 510.023 164.808 C 506.268 152.654, 496.776 142.426, 485 137.847 C 477.309 134.857, 464.359 134.378, 456.996 136.812" stroke="none" fill="black" fill-rule="evenodd"/>
</svg>