<svg xmlns="http://www.w3.org/2000/svg" width="512" height="512" viewBox="0 0 512 512" version="1.1">
	<path d="M 229.500 1.173 C 209.491 3.183, 174.330 12.047, 159.725 18.764 L 155.950 20.500 165.225 27.456 C 177.321 36.527, 206.501 65.779, 216.144 78.500 C 241.169 111.512, 258.290 146.654, 268.031 185 C 271.628 199.157, 274.796 217.405, 275.648 228.869 C 276.609 241.794, 276.235 241.329, 288.984 245.451 C 314.859 253.816, 331.994 256.452, 360.665 256.479 C 372.856 256.491, 383.123 256.209, 383.479 255.853 C 384.320 255.014, 381.452 228.883, 378.890 214.038 C 369.431 159.219, 347.494 104.212, 316.661 58 C 303.391 38.110, 282.870 12.536, 273.094 3.704 L 268.994 0 253.747 0.135 C 245.361 0.209, 234.450 0.676, 229.500 1.173 M 337 13.672 C 337 13.993, 339.169 17.235, 341.820 20.878 C 374.413 65.654, 397.745 114.171, 411.609 166 C 418.521 191.839, 422.192 212.210, 425.513 243.151 L 426.119 248.801 434.310 246.309 C 454.443 240.182, 479.823 228.690, 497.856 217.535 C 502.847 214.448, 507.146 211.573, 507.409 211.146 C 507.673 210.720, 506.827 205.670, 505.528 199.926 C 487.266 119.127, 429.943 51.083, 353.500 19.463 C 341.898 14.664, 337 12.945, 337 13.672 M 102.376 51.394 C 52.192 88.969, 17.283 144.335, 5.060 205.737 C -1.800 240.202, -1.803 272.074, 5.051 306 C 7.863 319.919, 10.865 331.495, 11.488 330.821 C 11.650 330.644, 14.352 323.975, 17.490 316 C 36.546 267.583, 64.402 221.902, 98.592 183 C 120.084 158.547, 155.603 126.472, 177.218 111.999 C 180.913 109.524, 183.951 107.180, 183.968 106.788 C 183.986 106.396, 180.683 102.121, 176.629 97.288 C 167.942 86.930, 151.363 70.644, 141.500 62.778 C 132.736 55.790, 115.155 44, 113.496 44 C 112.812 44, 107.808 47.327, 102.376 51.394 M 199 148.688 C 172.117 168.203, 138.303 200.277, 118.848 224.715 C 94.381 255.450, 75.133 287.896, 59.950 324 C 54.141 337.813, 44.249 367.333, 41.518 379 C 40.553 383.125, 39.154 386.990, 38.409 387.590 C 37.318 388.469, 38.487 390.791, 44.449 399.590 C 54.203 413.983, 65.314 427.130, 78.630 440.034 C 89.037 450.120, 105.844 464.001, 107.644 463.999 C 108.115 463.998, 109.310 459.004, 110.300 452.901 C 114.290 428.305, 122.959 399.589, 134.033 374.286 C 153.548 329.698, 185.811 286.451, 223.110 254.883 L 234.197 245.500 233.521 236.500 C 231.480 209.320, 222.926 176.962, 211.677 153.872 L 206.500 143.244 199 148.688 M 497.500 266.506 C 466.281 282.478, 433.626 292.597, 397 297.649 C 381.779 299.749, 344.177 300.046, 330 298.179 C 312.066 295.817, 290.496 290.902, 274.671 285.571 L 258.827 280.234 251.187 286.367 C 240.287 295.116, 221.869 313.763, 212.170 325.869 C 202.547 337.879, 196.448 346.781, 197.274 347.608 C 198.820 349.153, 225.204 359.747, 238.500 364.160 C 263.286 372.388, 287.839 377.899, 316.500 381.667 C 335.251 384.132, 384.028 384.148, 404 381.696 C 430.234 378.476, 462.932 371.072, 482.922 363.827 L 489.343 361.500 494.225 349.156 C 499.883 334.847, 505.233 316.053, 507.985 300.812 C 510.091 289.147, 512.383 266.027, 511.840 261.919 L 511.500 259.343 497.500 266.506 M 171.756 392.750 C 159.950 418.723, 151.696 451.023, 149.458 480 L 148.802 488.500 158.151 492.422 C 187.159 504.590, 216.572 510.761, 250 511.689 C 310.955 513.383, 368.705 493.825, 416.500 455.301 C 426.556 447.196, 449.451 424.446, 453.954 418.085 L 456.371 414.670 453.936 415.341 C 447.846 417.021, 418.178 422.013, 405.674 423.462 C 374.697 427.052, 331.470 427.063, 303.411 423.489 C 262.667 418.298, 222.733 406.734, 184.650 389.098 C 179.783 386.844, 175.683 385, 175.540 385 C 175.396 385, 173.693 388.488, 171.756 392.750" stroke="none" fill="black" fill-rule="evenodd"/>
</svg>