<svg xmlns="http://www.w3.org/2000/svg" width="512" height="512" viewBox="0 0 512 512" version="1.1">
	<path d="M 430.409 48.922 C 427.623 50.116, 425.307 55.676, 426.684 57.868 C 427.490 59.152, 430.034 59.619, 438.604 60.058 C 446.706 60.473, 450.729 61.169, 454.294 62.772 C 460.267 65.457, 464.701 68.573, 465.999 70.999 C 466.873 72.631, 466.298 73.119, 461.308 74.986 C 458.180 76.156, 445.919 79.546, 434.061 82.519 C 422.202 85.492, 409.173 89.062, 405.106 90.452 C 381.149 98.640, 378.435 109.304, 397.203 121.500 C 414.058 132.453, 427.627 140.426, 430.023 140.784 C 432.899 141.213, 435.403 138.887, 436.344 134.912 C 437.237 131.141, 435.599 129.711, 425 125.004 C 409.122 117.953, 397 110.185, 397 107.060 C 397 105.052, 404.633 101.047, 415 97.615 C 420.775 95.703, 436.300 91.819, 449.500 88.984 C 473.217 83.890, 478.912 81.901, 481.013 77.976 C 484.220 71.983, 479.301 65.925, 465.459 58.820 C 449.620 50.691, 435.555 46.719, 430.409 48.922 M 322.575 55.918 C 321.620 56.972, 320.988 58.885, 321.170 60.168 C 321.481 62.366, 322.025 62.533, 330.615 63.077 C 338.293 63.563, 340.578 64.133, 345.115 66.694 C 354.792 72.158, 353.196 73.409, 328.994 79.330 C 294.599 87.744, 286.607 92.336, 290.430 101.487 C 291.897 104.997, 293.519 106.210, 312.354 117.890 C 323.381 124.727, 326.512 125.413, 328.066 121.328 C 328.624 119.858, 328.858 118.073, 328.586 117.362 C 328.313 116.651, 323.457 113.845, 317.795 111.126 C 306.248 105.581, 299 100.718, 299 98.514 C 299 95.177, 312.460 90.496, 337.829 85.010 C 347.770 82.860, 357.269 80.395, 358.937 79.532 C 362.712 77.581, 363.874 73.677, 361.732 70.147 C 359.593 66.621, 349.572 60.758, 339.386 57.072 C 329.516 53.501, 325.040 53.193, 322.575 55.918 M 190.940 83.750 C 173.714 103.097, 153.366 149.153, 144.620 188.593 C 143.170 195.131, 142.542 196.209, 136.567 202.393 C 124.447 214.938, 114.145 233.561, 109.279 251.723 C 107.004 260.214, 106.649 263.572, 106.580 277.249 C 106.536 285.911, 106.500 292.993, 106.500 292.987 C 106.500 292.944, 95.446 290.021, 95.250 290.012 C 95.112 290.005, 95 290.432, 95 290.960 C 95 291.488, 97.908 293.626, 101.463 295.710 C 107.778 299.414, 107.972 299.653, 109.982 306.217 C 111.113 309.912, 112.287 313.585, 112.592 314.380 C 113.029 315.518, 111.699 315.963, 106.323 316.473 C 96.854 317.373, 93.893 318.018, 94.526 319.043 C 94.825 319.527, 96.634 320.216, 98.546 320.575 C 100.458 320.933, 102.208 321.528, 102.436 321.896 C 102.663 322.264, 100.418 323.838, 97.446 325.394 C 90.249 329.162, 79.439 340.694, 74.851 349.500 C 70.579 357.696, 66.270 370.849, 65.383 378.399 L 64.757 383.723 55.129 384.283 C 42.331 385.027, 36.887 387.128, 29.941 394 C 25.384 398.508, 24.077 400.594, 22.691 405.566 C 18.610 420.204, 22.911 440.091, 34.394 459.684 C 41.512 471.829, 56.406 483.962, 72.905 491.055 C 86.919 497.079, 96.530 499.158, 113 499.725 C 134.852 500.477, 149.033 497.267, 168.252 487.219 C 178.250 481.992, 193 470.775, 193 468.399 C 193 467.521, 190.732 462.950, 187.961 458.240 C 185.189 453.531, 183.277 449.356, 183.711 448.962 C 184.145 448.568, 186.892 447.470, 189.816 446.521 C 194.177 445.105, 195.917 444.993, 199.508 445.898 C 205.778 447.477, 210.980 447.258, 214.980 445.248 C 219.130 443.163, 223 437.748, 223 434.026 C 223 432.407, 224.047 430.390, 225.648 428.924 L 228.296 426.500 227.513 429 C 227.083 430.375, 226.547 433.750, 226.324 436.500 C 225.399 447.882, 236.429 455.190, 247.532 450.551 C 252.963 448.282, 257.374 444.467, 262.122 437.933 C 265.590 433.160, 266.916 432.027, 268.500 432.483 C 277.452 435.057, 296.453 439.166, 305.502 440.483 C 317.209 442.187, 349.001 443.929, 349 442.866 C 349 442.518, 352.038 441.911, 355.750 441.518 C 375.621 439.413, 398.626 430.526, 413.694 419.132 C 433.009 404.526, 447.310 381.573, 451.539 358.389 C 452.431 353.500, 455.567 342.075, 458.508 333 C 472.465 289.937, 477.295 256.502, 473.925 226.282 C 470.753 197.836, 458.048 171.852, 441.858 160.702 L 436.352 156.910 428.773 158.475 C 407.003 162.972, 392.750 171.561, 369.005 194.493 L 356.500 206.570 348.500 202.316 C 336.869 196.132, 320.586 189.308, 303.670 183.529 L 288.841 178.462 285.058 167.481 C 271.674 128.632, 250.229 102.423, 219.222 87.020 C 211.996 83.431, 199.433 79, 196.480 79 C 195.759 79, 193.267 81.138, 190.940 83.750 M 190.613 91.687 C 179.575 107.270, 165.466 139.316, 157.596 166.675 C 154.183 178.539, 152.290 188, 153.329 188 C 153.635 188, 155.480 187.059, 157.429 185.910 C 160.104 184.331, 161.232 182.801, 162.034 179.660 C 171.973 140.738, 183.917 112.830, 200.147 90.599 C 201.071 89.333, 211.229 95.225, 219.312 101.716 C 234.713 114.084, 248.638 136.860, 256.655 162.798 C 258.135 167.584, 259.749 171.771, 260.243 172.102 C 261.758 173.119, 275.089 175.245, 275.757 174.576 C 276.890 173.443, 271.976 158.711, 266.921 148.086 C 259.935 133.402, 251.981 121.940, 241.520 111.482 C 228.442 98.406, 210.427 86.907, 199.323 84.548 C 196.263 83.898, 195.944 84.160, 190.613 91.687 M 351.200 136.200 C 350.540 136.860, 350 138.151, 350 139.068 C 350 140.430, 351.333 140.823, 357.250 141.203 C 367.890 141.886, 375.697 146.270, 370.250 148.503 C 369.288 148.898, 362.045 151.403, 354.155 154.071 C 333.422 161.081, 327.834 164.802, 329.896 170.226 C 331.078 173.335, 331.619 173.712, 344.809 180.597 C 355.836 186.353, 356.155 186.451, 357.588 184.519 C 358.396 183.430, 358.932 181.902, 358.779 181.123 C 358.626 180.345, 354.325 178.032, 349.223 175.984 C 344.120 173.936, 339.054 171.454, 337.965 170.468 C 336.167 168.841, 336.127 168.517, 337.531 166.966 C 339.462 164.832, 352.071 160.033, 366.500 155.939 C 372.550 154.223, 378.288 152.115, 379.250 151.254 C 384.138 146.885, 379.046 141.708, 365.698 137.475 C 357.085 134.743, 353.015 134.385, 351.200 136.200 M 425.500 164.113 C 409.971 167.652, 392.819 180.349, 371.408 204.152 L 360.927 215.804 354.097 211.850 L 347.267 207.896 338.267 216.895 C 329.693 225.470, 325.534 228.066, 322.942 226.464 C 320.758 225.114, 322.519 216.768, 326.765 208.346 C 329.023 203.868, 330.600 199.933, 330.269 199.602 C 328.779 198.113, 326.939 199.400, 322.911 204.750 C 309.781 222.191, 294.580 233.216, 289.489 228.991 C 285.127 225.371, 291.124 204.595, 300.268 191.647 C 301.936 189.285, 302.044 188.641, 300.892 187.912 C 299.038 186.738, 297.244 186.771, 296.833 187.987 C 296.650 188.530, 293.200 192.316, 289.167 196.400 C 281.663 204, 277.302 206.714, 274.390 205.596 C 271.957 204.663, 273.045 197.639, 276.896 189.408 C 278.634 185.695, 279.706 182.312, 279.278 181.891 C 278.350 180.978, 261.905 177.606, 250 175.887 C 237.366 174.063, 210.416 174.315, 199.263 176.362 C 174.584 180.891, 155.020 190.812, 140.432 206.194 C 131.965 215.122, 127.198 222.204, 121.361 234.525 C 113.548 251.020, 109.406 274.248, 111.667 288.891 L 112.500 294.282 118.230 296.328 C 123.998 298.387, 132.999 304.428, 133.758 306.750 C 134.546 309.161, 124.874 307.889, 116.750 304.513 C 114.494 303.576, 114.533 304.682, 116.986 311.212 C 118.739 315.883, 119.498 316.716, 123.486 318.349 C 128.574 320.433, 129.162 321.670, 125.500 322.589 C 124.125 322.934, 123 323.774, 123 324.454 C 123 325.135, 126.237 330.598, 130.193 336.596 C 138.800 349.643, 156.648 368.033, 171 378.643 C 208.651 406.476, 257.470 427.038, 301 433.399 C 312.406 435.065, 333 436.604, 333 435.789 C 333 435.512, 330.299 433.617, 326.998 431.580 C 321.681 428.298, 314 420.188, 314 417.856 C 314 416.350, 317.355 416.952, 322.617 419.402 C 325.432 420.713, 330.952 424.820, 334.884 428.529 L 342.033 435.273 349.298 434.615 C 364.840 433.206, 382.672 427.477, 396 419.610 C 412.372 409.946, 424.655 396.501, 433.559 378.500 C 439.288 366.919, 441.648 359.411, 442.674 349.500 C 443.016 346.200, 444.338 341.119, 445.611 338.208 C 451.816 324.029, 459.589 295.249, 462.683 275 C 465.391 257.273, 465.122 225.854, 462.145 212.077 C 457.908 192.477, 451.105 178.811, 440.363 168.323 C 434.560 162.658, 433.366 162.320, 425.500 164.113 M 419.607 173.474 C 407.805 177.639, 395.870 186.575, 385.514 199 C 378.857 206.988, 370.780 218.908, 371.229 220.082 C 371.378 220.472, 375.272 223.579, 379.882 226.989 C 401.684 243.111, 421.539 266.958, 430.636 287.943 L 433.429 294.387 436.163 288.443 C 448.876 260.807, 452.032 230.435, 444.926 204.116 C 441.038 189.715, 431.556 170.979, 428.178 171.021 C 427.255 171.033, 423.398 172.137, 419.607 173.474 M 142.171 292.013 C 143.052 294.655, 152.837 299.175, 158.860 299.721 C 166.122 300.380, 176.412 298.663, 182.725 295.739 L 187.500 293.528 176 292.884 C 169.675 292.530, 159.378 291.894, 153.117 291.472 C 143.927 290.852, 141.819 290.956, 142.171 292.013 M 252.431 324.489 C 258.703 339.501, 279.021 356, 291.234 356 L 294.392 356 290.946 352.416 C 289.051 350.445, 282.329 345.382, 276.009 341.166 C 269.690 336.950, 261.732 330.688, 258.325 327.250 C 254.919 323.813, 251.871 321, 251.553 321 C 251.234 321, 251.629 322.570, 252.431 324.489 M 104.164 327.076 C 90.981 333.663, 79.959 349.247, 74.863 368.500 C 70.781 383.921, 71.282 420, 75.577 420 C 76.367 420, 81.471 419.330, 86.920 418.512 C 130.167 412.016, 151.212 416.426, 171.343 436.200 C 175.150 439.940, 178.626 443, 179.068 443 C 179.509 443, 181.102 442.532, 182.607 441.959 L 185.344 440.919 181.594 438.370 C 179.532 436.969, 178.065 435.602, 178.334 435.333 C 178.603 435.064, 182.126 436.048, 186.162 437.521 C 190.812 439.218, 196.430 440.386, 201.500 440.711 C 208.659 441.170, 209.789 440.994, 212.250 439.039 C 214.402 437.330, 215 436.011, 215 432.976 C 215 427.788, 210.667 423.624, 197.522 416.177 C 188.410 411.015, 187.772 410.469, 190.500 410.153 C 198.107 409.274, 210.827 413.956, 217.473 420.082 L 222.007 424.261 226.253 421.449 L 230.500 418.638 221.053 414.264 C 190.260 400.010, 161.392 379.902, 141.722 359.006 C 133.539 350.314, 123.298 336.486, 119.498 329 C 118.520 327.075, 117.221 325.169, 116.610 324.765 C 114.380 323.290, 110.181 324.069, 104.164 327.076 M 183.989 345.250 C 181.536 349.273, 181.304 357.161, 183.571 359.429 C 184.436 360.293, 186.438 361, 188.021 361 C 191.881 361, 196.073 355.534, 196.738 349.631 C 197.159 345.894, 196.896 345.041, 194.892 343.637 C 193.607 342.737, 191.074 342, 189.263 342 C 186.622 342, 185.579 342.643, 183.989 345.250 M 186.627 348.250 C 183.359 353.433, 183.507 359, 186.912 359 C 189.076 359, 191.494 356.462, 192.931 352.683 C 195.048 347.114, 189.710 343.361, 186.627 348.250 M 50.527 387.114 C 38.286 388.897, 29.691 395.393, 26.379 405.364 C 24.071 412.314, 24.969 426.077, 28.366 435.804 C 33.128 449.437, 38.798 458.829, 47.504 467.500 C 59.656 479.605, 74.228 487.089, 93.500 491.123 C 102.992 493.109, 119.440 493.745, 129.218 492.504 L 134.936 491.778 133.520 489.039 C 130.563 483.320, 122.658 476.882, 112.788 472.153 C 107.446 469.594, 103.059 467.170, 103.038 466.767 C 102.969 465.434, 112.403 461.254, 118.170 460.063 C 121.289 459.418, 127.025 458.803, 130.917 458.696 C 134.808 458.588, 137.994 458.198, 137.996 457.828 C 137.998 457.458, 135.863 455.306, 133.250 453.045 C 126.207 446.950, 115.524 441.949, 108.115 441.277 C 102.057 440.727, 101.978 440.682, 103.723 438.751 C 107.491 434.580, 120.020 429.672, 132.342 427.540 L 139.500 426.301 135.500 425.107 C 128.192 422.926, 110.509 422.654, 91.646 424.433 C 58.698 427.540, 54.819 427.114, 48.282 419.668 C 39.029 409.129, 46.947 394.042, 61.750 394.006 C 63.707 394.001, 64 393.480, 64 390 C 64 386.023, 63.979 386.001, 60.250 386.122 C 58.188 386.189, 53.812 386.635, 50.527 387.114 M 54.198 398.673 C 42.936 404.223, 48.527 420.984, 61.644 420.996 L 65.787 421 64.947 417.250 C 64.484 415.188, 63.997 409.788, 63.863 405.250 L 63.620 397 60.560 397.023 C 58.877 397.035, 56.014 397.778, 54.198 398.673 M 320 402.835 C 320 404.261, 326.524 409.721, 330.778 411.856 C 336.228 414.591, 359.848 422, 363.118 422 C 365.477 422, 361.989 419.483, 350.624 412.982 C 344.643 409.560, 337.443 405.967, 334.624 404.997 C 328.119 402.758, 320 401.558, 320 402.835 M 235.148 426.250 C 232.144 432.537, 231.623 435.676, 233.024 439.058 C 235.252 444.437, 239.468 445.328, 246.290 441.860 C 252.320 438.795, 262.460 430.643, 260.842 430.162 C 260.104 429.942, 254.807 428.016, 249.071 425.881 C 243.335 423.746, 238.312 422, 237.910 422 C 237.508 422, 236.265 423.913, 235.148 426.250" stroke="none" fill="black" fill-rule="evenodd"/>
</svg>