
<svg xmlns="http://www.w3.org/2000/svg" version="1.1" xmlns:xlink="http://www.w3.org/1999/xlink" xmlns:svgjs="http://svgjs.dev/svgjs" width="1440" height="560" preserveAspectRatio="none" viewBox="0 0 1440 560">
 
 
<style>
  @keyframes pawFloat {
            0% {
                transform: translate(100px, 450px) scale(0.02, -0.02) rotate(-25deg);
            }
            25% {
                transform: translate(200px, 350px) scale(0.02, -0.02) rotate(30deg);
            }
            50% {
                transform: translate(500px, 100px) scale(0.02, -0.02) rotate(-10deg);
            }
            75% {
                transform: translate(900px, 400px) scale(0.02, -0.02) rotate(10deg);
            }
            100% {
                transform: translate(100px, 450px) scale(0.02, -0.02) rotate(-25deg);
            }
        }

        /* Additional paw classes with different random positions */
        .paw1 { animation: pawFloat1 6.5s infinite ease-in-out; }
        .paw2 { animation: pawFloat2 5.5s infinite ease-in-out; }
        .paw3 { animation: pawFloat3 5.5s infinite ease-in-out; }
        .paw4 { animation: pawFloat4 5.1s infinite ease-in-out; }
        .paw5 { animation: pawFloat5 6.5s infinite ease-in-out; }
        .paw6 { animation: pawFloat6 5.5s infinite ease-in-out; }
        .paw7 { animation: pawFloat7 6.7s infinite ease-in-out; }
        .paw8 { animation: pawFloat8 4.7s infinite ease-in-out; }
        .paw9 { animation: pawFloat9 5s infinite ease-in-out; }
        .paw10 { animation: pawFloat10 6.2s infinite ease-in-out; }

        /* Different paw keyframes for each */
@keyframes pawFloat1 {
    0% { transform: translate(150px, 400px) rotate(15deg) scale(0.016, -0.016); }
    25% { transform: translate(155px, 405px) rotate(18deg) scale(0.016, -0.016); }
    50% { transform: translate(150px, 395px) rotate(20deg) scale(0.016, -0.016); }
    75% { transform: translate(145px, 398px) rotate(18deg) scale(0.016, -0.016); }
    100% { transform: translate(150px, 400px) rotate(15deg) scale(0.016, -0.016); }
}

@keyframes pawFloat2 {
    0% { transform: translate(500px, 200px) rotate(0deg) scale(0.017, -0.017); }
    25% { transform: translate(505px, 205px) rotate(3deg) scale(0.017, -0.017); }
    50% { transform: translate(500px, 198px) rotate(5deg) scale(0.017, -0.017); }
    75% { transform: translate(495px, 202px) rotate(3deg) scale(0.017, -0.017); }
    100% { transform: translate(500px, 200px) rotate(0deg) scale(0.017, -0.017); }
}

@keyframes pawFloat3 {
    0% { transform: translate(650px, 500px) rotate(10deg) scale(0.018, -0.018); }
    25% { transform: translate(652px, 502px) rotate(12deg) scale(0.018, -0.018); }
    50% { transform: translate(648px, 498px) rotate(15deg) scale(0.018, -0.018); }
    75% { transform: translate(645px, 500px) rotate(12deg) scale(0.018, -0.018); }
    100% { transform: translate(650px, 500px) rotate(10deg) scale(0.018, -0.018); }
}

@keyframes pawFloat4 {
    0% { transform: translate(200px, 600px) rotate(5deg) scale(0.019, -0.019); }
    25% { transform: translate(202px, 598px) rotate(7deg) scale(0.019, -0.019); }
    50% { transform: translate(200px, 602px) rotate(10deg) scale(0.019, -0.019); }
    75% { transform: translate(203px, 600px) rotate(7deg) scale(0.019, -0.019); }
    100% { transform: translate(200px, 600px) rotate(5deg) scale(0.019, -0.019); }
}

@keyframes pawFloat5 {
    0% { transform: translate(750px, 350px) rotate(20deg) scale(0.018, -0.018); }
    25% { transform: translate(752px, 352px) rotate(23deg) scale(0.018, -0.018); }
    50% { transform: translate(748px, 348px) rotate(25deg) scale(0.018, -0.018); }
    75% { transform: translate(750px, 350px) rotate(23deg) scale(0.018, -0.018); }
    100% { transform: translate(750px, 350px) rotate(20deg) scale(0.018, -0.018); }
}

@keyframes pawFloat6 {
    0% { transform: translate(900px, 200px) rotate(-5deg) scale(0.017, -0.017); }
    25% { transform: translate(902px, 198px) rotate(-3deg) scale(0.017, -0.017); }
    50% { transform: translate(898px, 202px) rotate(0deg) scale(0.017, -0.017); }
    75% { transform: translate(900px, 200px) rotate(-3deg) scale(0.017, -0.017); }
    100% { transform: translate(900px, 200px) rotate(-5deg) scale(0.017, -0.017); }
}

@keyframes pawFloat7 {
    0% { transform: translate(1100px, 250px) rotate(30deg) scale(0.016, -0.016); }
    25% { transform: translate(1105px, 255px) rotate(35deg) scale(0.016, -0.016); }
    50% { transform: translate(1098px, 245px) rotate(40deg) scale(0.016, -0.016); }
    75% { transform: translate(1100px, 250px) rotate(35deg) scale(0.016, -0.016); }
    100% { transform: translate(1100px, 250px) rotate(30deg) scale(0.016, -0.016); }
}

@keyframes pawFloat8 {
    0% { transform: translate(1200px, 350px) rotate(-10deg) scale(0.017, -0.017); }
    25% { transform: translate(1205px, 355px) rotate(-5deg) scale(0.017, -0.017); }
    50% { transform: translate(1198px, 345px) rotate(0deg) scale(0.017, -0.017); }
    75% { transform: translate(1200px, 350px) rotate(-5deg) scale(0.017, -0.017); }
    100% { transform: translate(1200px, 350px) rotate(-10deg) scale(0.017, -0.017); }
}

@keyframes pawFloat9 {
    0% { transform: translate(1300px, 450px) rotate(40deg) scale(0.019, -0.019); }
    25% { transform: translate(1305px, 455px) rotate(45deg) scale(0.019, -0.019); }
    50% { transform: translate(1298px, 445px) rotate(50deg) scale(0.019, -0.019); }
    75% { transform: translate(1300px, 450px) rotate(45deg) scale(0.019, -0.019); }
    100% { transform: translate(1300px, 450px) rotate(40deg) scale(0.019, -0.019); }
}

@keyframes pawFloat10 {
    0% { transform: translate(1400px, 550px) rotate(50deg) scale(0.018, -0.018); }
    25% { transform: translate(1405px, 555px) rotate(55deg) scale(0.018, -0.018); }
    50% { transform: translate(1398px, 545px) rotate(60deg) scale(0.018, -0.018); }
    75% { transform: translate(1400px, 550px) rotate(55deg) scale(0.018, -0.018); }
    100% { transform: translate(1400px, 550px) rotate(50deg) scale(0.018, -0.018); }
}



</style>
  <g mask="url(#SvgjsMask1234)" fill="none">
    <!-- Paws -->
    <path d="M300 300C320 300 340 280 340 260C340 240 320 220 300 220C280 220 260 240 260 260C260 280 280 300 300 300Z" fill="#1b2730" class="paw-float" transform="translate(50, 50)">
      <animateTransform attributeName="transform" type="translate" values="50,50; 60,60; 50,50" dur="3s" repeatCount="indefinite" />
    </path>
    <path d="M330 250C340 250 350 240 350 230C350 220 340 210 330 210C320 210 310 220 310 230C310 240 320 250 330 250Z" fill="#1b2730" class="paw-float" transform="translate(100, -30)">
      <animateTransform attributeName="transform" type="translate" values="100,-30; 110,-20; 100,-30" dur="2.5s" repeatCount="indefinite" />
    </path>
    <path d="M270 250C280 250 290 240 290 230C290 220 280 210 270 210C260 210 250 220 250 230C250 240 260 250 270 250Z" fill="#1b2730" class="paw-float" transform="translate(-70, 20)">
      <animateTransform attributeName="transform" type="translate" values="-70,20; -60,10; -70,20" dur="3.5s" repeatCount="indefinite" />
    </path>
    <path d="M300 200C310 200 320 190 320 180C320 170 310 160 300 160C290 160 280 170 280 180C280 190 290 200 300 200Z" fill="#1b2730" class="paw-float" transform="translate(-30, 70)">
      <animateTransform attributeName="transform" type="translate" values="-30,70; -40,60; -30,70" dur="2s" repeatCount="indefinite" />
    </path>

    <!-- Ball -->
    <circle cx="800" cy="400" r="50" fill="#1b2730" class="ball-float" transform="translate(150, -50)">
      <animateTransform attributeName="transform" type="translate" values="150,-50; 160,-40; 150,-50" dur="2.5s" repeatCount="indefinite" />
    </circle>

    <!-- Claws -->
    <path d="M100 100L110 90L120 100L110 110Z" fill="#1b2730" class="claw-float" transform="translate(50, 100)">
      <animateTransform attributeName="transform" type="translate" values="50,100; 55,110; 50,100" dur="2s" repeatCount="indefinite" />
    </path>
    <path d="M150 150L160 140L170 150L160 160Z" fill="#1b2730" class="claw-float" transform="translate(-100, -40)">
      <animateTransform attributeName="transform" type="translate" values="-100,-40; -90,-30; -100,-40" dur="2.5s" repeatCount="indefinite" />
    </path>
      <path d="M150 150L160 140L170 150L160 160Z" fill="#1b2730" class="claw-float" transform="translate(680, 70)">
      <animateTransform attributeName="transform" type="translate" values="680,70; 665,60; 680,70" dur="2.5s" repeatCount="indefinite" />
    </path>
    <path d="M200 200L210 190L220 200L210 210Z" fill="#1b2730" class="claw-float" transform="translate(200, -100)">
      <animateTransform attributeName="transform" type="translate" values="200,-100; 210,-90; 200,-100" dur="2s" repeatCount="indefinite" />
    </path>

    <!-- Existing Shapes -->

    <path d="M750 150L770 50L670 50L650 150Z" fill="#1b2730"  transform="translate(100, -100)">
      <animateTransform attributeName="transform" type="translate" values="100,-100; 110,-90; 100,-100" dur="3s" repeatCount="indefinite" />
    </path>
    <path d="M850 50L900 150L1000 100L950 0Z" fill="#1b2730"  transform="translate(-150, 50)">
      <animateTransform attributeName="transform" type="translate" values="-150,50; -140,60; -150,50" dur="2.5s" repeatCount="indefinite" />
    </path>
    <path d="M1200 70L1250 -10L1150 20L1180 110Z" fill="#1b2730"  transform="translate(50, 100)">
      <animateTransform attributeName="transform" type="translate" values="50,100; 60,110; 50,100" dur="2s" repeatCount="indefinite" />
    </path>
    <path d="M1400 10L1350 -20L1370 100Z" fill="#1b2730"  transform="translate(-50, 50)">
      <animateTransform attributeName="transform" type="translate" values="-50,50; -40,60; -50,50" dur="2.5s" repeatCount="indefinite" />
    </path>
    <path d="M600 550L700 500L650 400L550 450Z" fill="#1b2730"  transform="translate(200, 100)">
      <animateTransform attributeName="transform" type="translate" values="200,100; 210,110; 200,100" dur="3s" repeatCount="indefinite" />
    </path>

    <!-- Additional Shapes -->

    <path d="M834.2277023649968 66.59475152841235L891.50292933543 169.92199617708368 994.8301739841014 112.6467692066505 937.5549470136682 9.319524557979157z" fill="#1b2730"  transform="translate(100, -20)">
      <animateTransform attributeName="transform" type="translate" values="100,-20; 110,-10; 100,-20" dur="2.5s" repeatCount="indefinite" />
    </path>

  </g>
    <!-- Paw 1 -->
    <g class="paw1" transform="translate(100, 450) scale(0.02, -0.02) rotate(-25)" fill="#1b2730" stroke="none">
      <path class="claw" d="M1865 4785 c-250 -55 -456 -239 -554 -494 -80 -208 -85 -455 -12 -664 44 -128 101 -217 201 -317 104 -104 170 -148 282 -187 96 -34 261 -42 360 -19 288 67 510 310 585 639 26 117 22 318 -10 439 -110 418 -486 684 -852 603z"/>
    <path class="claw" d="M3504 4391 c-296 -47 -548 -292 -635 -616 -30 -111 -30 -307 -1 -416 85 -315 327 -512 626 -510 314 1 588 222 707 569 33 95 34 101 33 262 0 151 -2 172 -26 242 -75 223 -242 392 -447 452 -66 19 -189 27 -257 17z"/>
    <path class="claw" d="M468 3795 c-369 -90 -563 -517 -417 -919 83 -230 265 -409 484 -478 98 -31 251 -31 352 0 145 45 276 158 349 303 58 116 77 213 72 359 -4 106 -10 139 -37 219 -46 137 -99 222 -205 326 -73 73 -108 99 -177 133 -138 68 -289 89 -421 57z"/>
    <path class="claw" d="M4385 3074 c-38 -8 -116 -37 -171 -64 -265 -128 -444 -411 -444 -700 0 -188 56 -328 179 -450 128 -128 258 -176 446 -167 124 6 211 31 324 93 87 49 234 196 289 289 129 220 145 483 43 690 -50 100 -101 159 -188 219 -135 92 -315 126 -478 90z"/>
    <path class="claw" d="M2164 2961 c-218 -39 -408 -125 -579 -264 -134 -109 -203 -202 -527 -707 -171 -267 -324 -512 -339 -545 -94 -201 -94 -460 1 -662 102 -218 292 -374 530 -434 71 -18 104 -21 215 -17 113 4 141 9 215 35 385 139 426 148 695 147 168 0 216 -3 302 -22 98 -21 137 -34 373 -118 95 -34 117 -38 230 -42 180 -6 303 24 448 109 80 48 210 180 262 267 70 119 101 225 107 367 6 138 -9 235 -55 344 -26 60 -464 757 -633 1006 -61 90 -182 222 -264 288 -260 211 -643 307 -981 248z"/>
    </g>

    <!-- Paw 2 -->
    <g class="paw2" transform="translate(200, 450) scale(0.02, -0.02) rotate(-25)" fill="#1b2730" stroke="none">
      <path class="claw" d="M1865 4785 c-250 -55 -456 -239 -554 -494 -80 -208 -85 -455 -12 -664 44 -128 101 -217 201 -317 104 -104 170 -148 282 -187 96 -34 261 -42 360 -19 288 67 510 310 585 639 26 117 22 318 -10 439 -110 418 -486 684 -852 603z"/>
    <path class="claw" d="M3504 4391 c-296 -47 -548 -292 -635 -616 -30 -111 -30 -307 -1 -416 85 -315 327 -512 626 -510 314 1 588 222 707 569 33 95 34 101 33 262 0 151 -2 172 -26 242 -75 223 -242 392 -447 452 -66 19 -189 27 -257 17z"/>
    <path class="claw" d="M468 3795 c-369 -90 -563 -517 -417 -919 83 -230 265 -409 484 -478 98 -31 251 -31 352 0 145 45 276 158 349 303 58 116 77 213 72 359 -4 106 -10 139 -37 219 -46 137 -99 222 -205 326 -73 73 -108 99 -177 133 -138 68 -289 89 -421 57z"/>
    <path class="claw" d="M4385 3074 c-38 -8 -116 -37 -171 -64 -265 -128 -444 -411 -444 -700 0 -188 56 -328 179 -450 128 -128 258 -176 446 -167 124 6 211 31 324 93 87 49 234 196 289 289 129 220 145 483 43 690 -50 100 -101 159 -188 219 -135 92 -315 126 -478 90z"/>
    <path class="claw" d="M2164 2961 c-218 -39 -408 -125 -579 -264 -134 -109 -203 -202 -527 -707 -171 -267 -324 -512 -339 -545 -94 -201 -94 -460 1 -662 102 -218 292 -374 530 -434 71 -18 104 -21 215 -17 113 4 141 9 215 35 385 139 426 148 695 147 168 0 216 -3 302 -22 98 -21 137 -34 373 -118 95 -34 117 -38 230 -42 180 -6 303 24 448 109 80 48 210 180 262 267 70 119 101 225 107 367 6 138 -9 235 -55 344 -26 60 -464 757 -633 1006 -61 90 -182 222 -264 288 -260 211 -643 307 -981 248z"/>
    </g>

    <!-- Paw 3 -->
    <g class="paw3" transform="translate(300, 450) scale(0.02, -0.02) rotate(-25)" fill="#1b2730" stroke="none">
        <path class="claw" d="M1865 4785 c-250 -55 -456 -239 -554 -494 -80 -208 -85 -455 -12 -664 44 -128 101 -217 201 -317 104 -104 170 -148 282 -187 96 -34 261 -42 360 -19 288 67 510 310 585 639 26 117 22 318 -10 439 -110 418 -486 684 -852 603z"/>
    <path class="claw" d="M3504 4391 c-296 -47 -548 -292 -635 -616 -30 -111 -30 -307 -1 -416 85 -315 327 -512 626 -510 314 1 588 222 707 569 33 95 34 101 33 262 0 151 -2 172 -26 242 -75 223 -242 392 -447 452 -66 19 -189 27 -257 17z"/>
    <path class="claw" d="M468 3795 c-369 -90 -563 -517 -417 -919 83 -230 265 -409 484 -478 98 -31 251 -31 352 0 145 45 276 158 349 303 58 116 77 213 72 359 -4 106 -10 139 -37 219 -46 137 -99 222 -205 326 -73 73 -108 99 -177 133 -138 68 -289 89 -421 57z"/>
    <path class="claw" d="M4385 3074 c-38 -8 -116 -37 -171 -64 -265 -128 -444 -411 -444 -700 0 -188 56 -328 179 -450 128 -128 258 -176 446 -167 124 6 211 31 324 93 87 49 234 196 289 289 129 220 145 483 43 690 -50 100 -101 159 -188 219 -135 92 -315 126 -478 90z"/>
    <path class="claw" d="M2164 2961 c-218 -39 -408 -125 -579 -264 -134 -109 -203 -202 -527 -707 -171 -267 -324 -512 -339 -545 -94 -201 -94 -460 1 -662 102 -218 292 -374 530 -434 71 -18 104 -21 215 -17 113 4 141 9 215 35 385 139 426 148 695 147 168 0 216 -3 302 -22 98 -21 137 -34 373 -118 95 -34 117 -38 230 -42 180 -6 303 24 448 109 80 48 210 180 262 267 70 119 101 225 107 367 6 138 -9 235 -55 344 -26 60 -464 757 -633 1006 -61 90 -182 222 -264 288 -260 211 -643 307 -981 248z"/>
    </g>

    <!-- Paw 4 -->
    <g class="paw4" transform="translate(400, 450) scale(0.02, -0.02) rotate(-25)" fill="#1b2730" stroke="none">
       <path class="claw" d="M1865 4785 c-250 -55 -456 -239 -554 -494 -80 -208 -85 -455 -12 -664 44 -128 101 -217 201 -317 104 -104 170 -148 282 -187 96 -34 261 -42 360 -19 288 67 510 310 585 639 26 117 22 318 -10 439 -110 418 -486 684 -852 603z"/>
    <path class="claw" d="M3504 4391 c-296 -47 -548 -292 -635 -616 -30 -111 -30 -307 -1 -416 85 -315 327 -512 626 -510 314 1 588 222 707 569 33 95 34 101 33 262 0 151 -2 172 -26 242 -75 223 -242 392 -447 452 -66 19 -189 27 -257 17z"/>
    <path class="claw" d="M468 3795 c-369 -90 -563 -517 -417 -919 83 -230 265 -409 484 -478 98 -31 251 -31 352 0 145 45 276 158 349 303 58 116 77 213 72 359 -4 106 -10 139 -37 219 -46 137 -99 222 -205 326 -73 73 -108 99 -177 133 -138 68 -289 89 -421 57z"/>
    <path class="claw" d="M4385 3074 c-38 -8 -116 -37 -171 -64 -265 -128 -444 -411 -444 -700 0 -188 56 -328 179 -450 128 -128 258 -176 446 -167 124 6 211 31 324 93 87 49 234 196 289 289 129 220 145 483 43 690 -50 100 -101 159 -188 219 -135 92 -315 126 -478 90z"/>
    <path class="claw" d="M2164 2961 c-218 -39 -408 -125 -579 -264 -134 -109 -203 -202 -527 -707 -171 -267 -324 -512 -339 -545 -94 -201 -94 -460 1 -662 102 -218 292 -374 530 -434 71 -18 104 -21 215 -17 113 4 141 9 215 35 385 139 426 148 695 147 168 0 216 -3 302 -22 98 -21 137 -34 373 -118 95 -34 117 -38 230 -42 180 -6 303 24 448 109 80 48 210 180 262 267 70 119 101 225 107 367 6 138 -9 235 -55 344 -26 60 -464 757 -633 1006 -61 90 -182 222 -264 288 -260 211 -643 307 -981 248z"/>
    </g>

    <!-- Paw 5 -->
    <g class="paw5" transform="translate(500, 450) scale(0.02, -0.02) rotate(-25)" fill="#1b2730" stroke="none">
       <path class="claw" d="M1865 4785 c-250 -55 -456 -239 -554 -494 -80 -208 -85 -455 -12 -664 44 -128 101 -217 201 -317 104 -104 170 -148 282 -187 96 -34 261 -42 360 -19 288 67 510 310 585 639 26 117 22 318 -10 439 -110 418 -486 684 -852 603z"/>
    <path class="claw" d="M3504 4391 c-296 -47 -548 -292 -635 -616 -30 -111 -30 -307 -1 -416 85 -315 327 -512 626 -510 314 1 588 222 707 569 33 95 34 101 33 262 0 151 -2 172 -26 242 -75 223 -242 392 -447 452 -66 19 -189 27 -257 17z"/>
    <path class="claw" d="M468 3795 c-369 -90 -563 -517 -417 -919 83 -230 265 -409 484 -478 98 -31 251 -31 352 0 145 45 276 158 349 303 58 116 77 213 72 359 -4 106 -10 139 -37 219 -46 137 -99 222 -205 326 -73 73 -108 99 -177 133 -138 68 -289 89 -421 57z"/>
    <path class="claw" d="M4385 3074 c-38 -8 -116 -37 -171 -64 -265 -128 -444 -411 -444 -700 0 -188 56 -328 179 -450 128 -128 258 -176 446 -167 124 6 211 31 324 93 87 49 234 196 289 289 129 220 145 483 43 690 -50 100 -101 159 -188 219 -135 92 -315 126 -478 90z"/>
    <path class="claw" d="M2164 2961 c-218 -39 -408 -125 -579 -264 -134 -109 -203 -202 -527 -707 -171 -267 -324 -512 -339 -545 -94 -201 -94 -460 1 -662 102 -218 292 -374 530 -434 71 -18 104 -21 215 -17 113 4 141 9 215 35 385 139 426 148 695 147 168 0 216 -3 302 -22 98 -21 137 -34 373 -118 95 -34 117 -38 230 -42 180 -6 303 24 448 109 80 48 210 180 262 267 70 119 101 225 107 367 6 138 -9 235 -55 344 -26 60 -464 757 -633 1006 -61 90 -182 222 -264 288 -260 211 -643 307 -981 248z"/>
    </g>

    <!-- Paw 6 -->
    <g class="paw6" transform="translate(600, 450) scale(0.02, -0.02) rotate(-25)" fill="#1b2730" stroke="none">



 <path class="claw" d="M1865 4785 c-250 -55 -456 -239 -554 -494 -80 -208 -85 -455 -12 -664 44 -128 101 -217 201 -317 104 -104 170 -148 282 -187 96 -34 261 -42 360 -19 288 67 510 310 585 639 26 117 22 318 -10 439 -110 418 -486 684 -852 603z"/>
    <path class="claw" d="M3504 4391 c-296 -47 -548 -292 -635 -616 -30 -111 -30 -307 -1 -416 85 -315 327 -512 626 -510 314 1 588 222 707 569 33 95 34 101 33 262 0 151 -2 172 -26 242 -75 223 -242 392 -447 452 -66 19 -189 27 -257 17z"/>
    <path class="claw" d="M468 3795 c-369 -90 -563 -517 -417 -919 83 -230 265 -409 484 -478 98 -31 251 -31 352 0 145 45 276 158 349 303 58 116 77 213 72 359 -4 106 -10 139 -37 219 -46 137 -99 222 -205 326 -73 73 -108 99 -177 133 -138 68 -289 89 -421 57z"/>
    <path class="claw" d="M4385 3074 c-38 -8 -116 -37 -171 -64 -265 -128 -444 -411 -444 -700 0 -188 56 -328 179 -450 128 -128 258 -176 446 -167 124 6 211 31 324 93 87 49 234 196 289 289 129 220 145 483 43 690 -50 100 -101 159 -188 219 -135 92 -315 126 -478 90z"/>
    <path class="claw" d="M2164 2961 c-218 -39 -408 -125 -579 -264 -134 -109 -203 -202 -527 -707 -171 -267 -324 -512 -339 -545 -94 -201 -94 -460 1 -662 102 -218 292 -374 530 -434 71 -18 104 -21 215 -17 113 4 141 9 215 35 385 139 426 148 695 147 168 0 216 -3 302 -22 98 -21 137 -34 373 -118 95 -34 117 -38 230 -42 180 -6 303 24 448 109 80 48 210 180 262 267 70 119 101 225 107 367 6 138 -9 235 -55 344 -26 60 -464 757 -633 1006 -61 90 -182 222 -264 288 -260 211 -643 307 -981 248z"/>
    </g>

    <!-- Paw 7 -->
    <g class="paw7" transform="translate(700, 450) scale(0.02, -0.02) rotate(-25)" fill="#1b2730" stroke="none">
   <path class="claw" d="M1865 4785 c-250 -55 -456 -239 -554 -494 -80 -208 -85 -455 -12 -664 44 -128 101 -217 201 -317 104 -104 170 -148 282 -187 96 -34 261 -42 360 -19 288 67 510 310 585 639 26 117 22 318 -10 439 -110 418 -486 684 -852 603z"/>
    <path class="claw" d="M3504 4391 c-296 -47 -548 -292 -635 -616 -30 -111 -30 -307 -1 -416 85 -315 327 -512 626 -510 314 1 588 222 707 569 33 95 34 101 33 262 0 151 -2 172 -26 242 -75 223 -242 392 -447 452 -66 19 -189 27 -257 17z"/>
    <path class="claw" d="M468 3795 c-369 -90 -563 -517 -417 -919 83 -230 265 -409 484 -478 98 -31 251 -31 352 0 145 45 276 158 349 303 58 116 77 213 72 359 -4 106 -10 139 -37 219 -46 137 -99 222 -205 326 -73 73 -108 99 -177 133 -138 68 -289 89 -421 57z"/>
    <path class="claw" d="M4385 3074 c-38 -8 -116 -37 -171 -64 -265 -128 -444 -411 -444 -700 0 -188 56 -328 179 -450 128 -128 258 -176 446 -167 124 6 211 31 324 93 87 49 234 196 289 289 129 220 145 483 43 690 -50 100 -101 159 -188 219 -135 92 -315 126 -478 90z"/>
    <path class="claw" d="M2164 2961 c-218 -39 -408 -125 -579 -264 -134 -109 -203 -202 -527 -707 -171 -267 -324 -512 -339 -545 -94 -201 -94 -460 1 -662 102 -218 292 -374 530 -434 71 -18 104 -21 215 -17 113 4 141 9 215 35 385 139 426 148 695 147 168 0 216 -3 302 -22 98 -21 137 -34 373 -118 95 -34 117 -38 230 -42 180 -6 303 24 448 109 80 48 210 180 262 267 70 119 101 225 107 367 6 138 -9 235 -55 344 -26 60 -464 757 -633 1006 -61 90 -182 222 -264 288 -260 211 -643 307 -981 248z"/>
    </g>

    <!-- Paw 8 -->
    <g class="paw8" transform="translate(800, 450) scale(0.02, -0.02) rotate(-25)" fill="#1b2730" stroke="none">
     <path class="claw" d="M1865 4785 c-250 -55 -456 -239 -554 -494 -80 -208 -85 -455 -12 -664 44 -128 101 -217 201 -317 104 -104 170 -148 282 -187 96 -34 261 -42 360 -19 288 67 510 310 585 639 26 117 22 318 -10 439 -110 418 -486 684 -852 603z"/>
    <path class="claw" d="M3504 4391 c-296 -47 -548 -292 -635 -616 -30 -111 -30 -307 -1 -416 85 -315 327 -512 626 -510 314 1 588 222 707 569 33 95 34 101 33 262 0 151 -2 172 -26 242 -75 223 -242 392 -447 452 -66 19 -189 27 -257 17z"/>
    <path class="claw" d="M468 3795 c-369 -90 -563 -517 -417 -919 83 -230 265 -409 484 -478 98 -31 251 -31 352 0 145 45 276 158 349 303 58 116 77 213 72 359 -4 106 -10 139 -37 219 -46 137 -99 222 -205 326 -73 73 -108 99 -177 133 -138 68 -289 89 -421 57z"/>
    <path class="claw" d="M4385 3074 c-38 -8 -116 -37 -171 -64 -265 -128 -444 -411 -444 -700 0 -188 56 -328 179 -450 128 -128 258 -176 446 -167 124 6 211 31 324 93 87 49 234 196 289 289 129 220 145 483 43 690 -50 100 -101 159 -188 219 -135 92 -315 126 -478 90z"/>
    <path class="claw" d="M2164 2961 c-218 -39 -408 -125 -579 -264 -134 -109 -203 -202 -527 -707 -171 -267 -324 -512 -339 -545 -94 -201 -94 -460 1 -662 102 -218 292 -374 530 -434 71 -18 104 -21 215 -17 113 4 141 9 215 35 385 139 426 148 695 147 168 0 216 -3 302 -22 98 -21 137 -34 373 -118 95 -34 117 -38 230 -42 180 -6 303 24 448 109 80 48 210 180 262 267 70 119 101 225 107 367 6 138 -9 235 -55 344 -26 60 -464 757 -633 1006 -61 90 -182 222 -264 288 -260 211 -643 307 -981 248z"/>
    </g>

    <!-- Paw 9 -->
    <g class="paw9" transform="translate(900, 450) scale(0.02, -0.02) rotate(-25)" fill="#1b2730" stroke="none">
 <path class="claw" d="M1865 4785 c-250 -55 -456 -239 -554 -494 -80 -208 -85 -455 -12 -664 44 -128 101 -217 201 -317 104 -104 170 -148 282 -187 96 -34 261 -42 360 -19 288 67 510 310 585 639 26 117 22 318 -10 439 -110 418 -486 684 -852 603z"/>
    <path class="claw" d="M3504 4391 c-296 -47 -548 -292 -635 -616 -30 -111 -30 -307 -1 -416 85 -315 327 -512 626 -510 314 1 588 222 707 569 33 95 34 101 33 262 0 151 -2 172 -26 242 -75 223 -242 392 -447 452 -66 19 -189 27 -257 17z"/>
    <path class="claw" d="M468 3795 c-369 -90 -563 -517 -417 -919 83 -230 265 -409 484 -478 98 -31 251 -31 352 0 145 45 276 158 349 303 58 116 77 213 72 359 -4 106 -10 139 -37 219 -46 137 -99 222 -205 326 -73 73 -108 99 -177 133 -138 68 -289 89 -421 57z"/>
    <path class="claw" d="M4385 3074 c-38 -8 -116 -37 -171 -64 -265 -128 -444 -411 -444 -700 0 -188 56 -328 179 -450 128 -128 258 -176 446 -167 124 6 211 31 324 93 87 49 234 196 289 289 129 220 145 483 43 690 -50 100 -101 159 -188 219 -135 92 -315 126 -478 90z"/>
    <path class="claw" d="M2164 2961 c-218 -39 -408 -125 -579 -264 -134 -109 -203 -202 -527 -707 -171 -267 -324 -512 -339 -545 -94 -201 -94 -460 1 -662 102 -218 292 -374 530 -434 71 -18 104 -21 215 -17 113 4 141 9 215 35 385 139 426 148 695 147 168 0 216 -3 302 -22 98 -21 137 -34 373 -118 95 -34 117 -38 230 -42 180 -6 303 24 448 109 80 48 210 180 262 267 70 119 101 225 107 367 6 138 -9 235 -55 344 -26 60 -464 757 -633 1006 -61 90 -182 222 -264 288 -260 211 -643 307 -981 248z"/>
    </g>

    <!-- Paw 10 -->
    <g class="paw10" transform="translate(1000, 450) scale(0.02, -0.02) rotate(-25)" fill="#1b2730" stroke="none">
    <path class="claw" d="M1865 4785 c-250 -55 -456 -239 -554 -494 -80 -208 -85 -455 -12 -664 44 -128 101 -217 201 -317 104 -104 170 -148 282 -187 96 -34 261 -42 360 -19 288 67 510 310 585 639 26 117 22 318 -10 439 -110 418 -486 684 -852 603z"/>
    <path class="claw" d="M3504 4391 c-296 -47 -548 -292 -635 -616 -30 -111 -30 -307 -1 -416 85 -315 327 -512 626 -510 314 1 588 222 707 569 33 95 34 101 33 262 0 151 -2 172 -26 242 -75 223 -242 392 -447 452 -66 19 -189 27 -257 17z"/>
    <path class="claw" d="M468 3795 c-369 -90 -563 -517 -417 -919 83 -230 265 -409 484 -478 98 -31 251 -31 352 0 145 45 276 158 349 303 58 116 77 213 72 359 -4 106 -10 139 -37 219 -46 137 -99 222 -205 326 -73 73 -108 99 -177 133 -138 68 -289 89 -421 57z"/>
    <path class="claw" d="M4385 3074 c-38 -8 -116 -37 -171 -64 -265 -128 -444 -411 -444 -700 0 -188 56 -328 179 -450 128 -128 258 -176 446 -167 124 6 211 31 324 93 87 49 234 196 289 289 129 220 145 483 43 690 -50 100 -101 159 -188 219 -135 92 -315 126 -478 90z"/>
    <path class="claw" d="M2164 2961 c-218 -39 -408 -125 -579 -264 -134 -109 -203 -202 -527 -707 -171 -267 -324 -512 -339 -545 -94 -201 -94 -460 1 -662 102 -218 292 -374 530 -434 71 -18 104 -21 215 -17 113 4 141 9 215 35 385 139 426 148 695 147 168 0 216 -3 302 -22 98 -21 137 -34 373 -118 95 -34 117 -38 230 -42 180 -6 303 24 448 109 80 48 210 180 262 267 70 119 101 225 107 367 6 138 -9 235 -55 344 -26 60 -464 757 -633 1006 -61 90 -182 222 -264 288 -260 211 -643 307 -981 248z"/>
    </g>
</svg>
