<svg xmlns="http://www.w3.org/2000/svg" version="1.1">
    <style>
        /* Claw Animation - Slow Wiggle */
        @keyframes clawWiggle {
            0% { transform: rotate(0deg); }
            50% { transform: rotate(3deg); }
            100% { transform: rotate(0deg); }
        }
        .claw {
            animation: clawWiggle 3s ease-in-out infinite;
            transform-origin: center;
        }

        /* Paw Pad Animation - Slow Pulse */
        @keyframes padPulse {
            0% { transform: scale(1); }
            50% { transform: scale(1.05); }
            100% { transform: scale(1); }
        }
        .pad {
            animation: padPulse 4s ease-in-out infinite;
        }
    </style>
    <!-- First Shape -->
    <g transform="translate(100, 100) scale(0.1, -0.1)" fill="#000000" stroke="none">
        <path class="claw" d="M1865 4785 c-250 -55 -456 -239 -554 -494 -80 -208 -85 -455 -12 -664 44 -128 101 -217 201 -317 104 -104 170 -148 282 -187 96 -34 261 -42 360 -19 288 67 510 310 585 639 26 117 22 318 -10 439 -110 418 -486 684 -852 603z"/>
        <path class="claw" d="M3504 4391 c-296 -47 -548 -292 -635 -616 -30 -111 -30 -307 -1 -416 85 -315 327 -512 626 -510 314 1 588 222 707 569 33 95 34 101 33 262 0 151 -2 172 -26 242 -75 223 -242 392 -447 452 -66 19 -189 27 -257 17z"/>
        <path class="claw" d="M468 3795 c-369 -90 -563 -517 -417 -919 83 -230 265 -409 484 -478 98 -31 251 -31 352 0 145 45 276 158 349 303 58 116 77 213 72 359 -4 106 -10 139 -37 219 -46 137 -99 222 -205 326 -73 73 -108 99 -177 133 -138 68 -289 89 -421 57z"/>
        <path class="claw" d="M4385 3074 c-38 -8 -116 -37 -171 -64 -265 -128 -444 -411 -444 -700 0 -188 56 -328 179 -450 128 -128 258 -176 446 -167 124 6 211 31 324 93 87 49 234 196 289 289 129 220 145 483 43 690 -50 100 -101 159 -188 219 -135 92 -315 126 -478 90z"/>
        <path class="claw" d="M2164 2961 c-218 -39 -408 -125 -579 -264 -134 -109 -203 -202 -527 -707 -171 -267 -324 -512 -339 -545 -94 -201 -94 -460 1 -662 102 -218 292 -374 530 -434 71 -18 104 -21 215 -17 113 4 141 9 215 35 385 139 426 148 695 147 168 0 216 -3 302 -22 98 -21 137 -34 373 -118 95 -34 117 -38 230 -42 180 -6 303 24 448 109 80 48 210 180 262 267 70 119 101 225 107 367 6 138 -9 235 -55 344 -26 60 -464 757 -633 1006 -61 90 -182 222 -264 288 -260 211 -643 307 -981 248z"/>
     
    </g>
    
    <!-- Second Shape -->
    <g transform="translate(420, 800) scale(0.05, -0.05) rotate(45)" fill="#000000" stroke="none">
        <path class="claw" d="M1865 4785 c-250 -55 -456 -239 -554 -494 -80 -208 -85 -455 -12 -664 44 -128 101 -217 201 -317 104 -104 170 -148 282 -187 96 -34 261 -42 360 -19 288 67 510 310 585 639 26 117 22 318 -10 439 -110 418 -486 684 -852 603z"/>
        <path class="claw" d="M3504 4391 c-296 -47 -548 -292 -635 -616 -30 -111 -30 -307 -1 -416 85 -315 327 -512 626 -510 314 1 588 222 707 569 33 95 34 101 33 262 0 151 -2 172 -26 242 -75 223 -242 392 -447 452 -66 19 -189 27 -257 17z"/>
        <path class="claw" d="M468 3795 c-369 -90 -563 -517 -417 -919 83 -230 265 -409 484 -478 98 -31 251 -31 352 0 145 45 276 158 349 303 58 116 77 213 72 359 -4 106 -10 139 -37 219 -46 137 -99 222 -205 326 -73 73 -108 99 -177 133 -138 68 -289 89 -421 57z"/>
        <path class="claw" d="M4385 3074 c-38 -8 -116 -37 -171 -64 -265 -128 -444 -411 -444 -700 0 -188 56 -328 179 -450 128 -128 258 -176 446 -167 124 6 211 31 324 93 87 49 234 196 289 289 129 220 145 483 43 690 -50 100 -101 159 -188 219 -135 92 -315 126 -478 90z"/>
        <path class="claw" d="M2164 2961 c-218 -39 -408 -125 -579 -264 -134 -109 -203 -202 -527 -707 -171 -267 -324 -512 -339 -545 -94 -201 -94 -460 1 -662 102 -218 292 -374 530 -434 71 -18 104 -21 215 -17 113 4 141 9 215 35 385 139 426 148 695 147 168 0 216 -3 302 -22 98 -21 137 -34 373 -118 95 -34 117 -38 230 -42 180 -6 303 24 448 109 80 48 210 180 262 267 70 119 101 225 107 367 6 138 -9 235 -55 344 -26 60 -464 757 -633 1006 -61 90 -182 222 -264 288 -260 211 -643 307 -981 248z"/>
    
    </g>

    <!-- Third Shape -->
    <g transform="translate(1300, 450) scale(0.075, -0.075) rotate(-25)" fill="#ffffff" stroke="none">
        <path class="claw" d="M1865 4785 c-250 -55 -456 -239 -554 -494 -80 -208 -85 -455 -12 -664 44 -128 101 -217 201 -317 104 -104 170 -148 282 -187 96 -34 261 -42 360 -19 288 67 510 310 585 639 26 117 22 318 -10 439 -110 418 -486 684 -852 603z"/>
        <path class="claw" d="M3504 4391 c-296 -47 -548 -292 -635 -616 -30 -111 -30 -307 -1 -416 85 -315 327 -512 626 -510 314 1 588 222 707 569 33 95 34 101 33 262 0 151 -2 172 -26 242 -75 223 -242 392 -447 452 -66 19 -189 27 -257 17z"/>
        <path class="claw" d="M468 3795 c-369 -90 -563 -517 -417 -919 83 -230 265 -409 484 -478 98 -31 251 -31 352 0 145 45 276 158 349 303 58 116 77 213 72 359 -4 106 -10 139 -37 219 -46 137 -99 222 -205 326 -73 73 -108 99 -177 133 -138 68 -289 89 -421 57z"/>
        <path class="claw" d="M4385 3074 c-38 -8 -116 -37 -171 -64 -265 -128 -444 -411 -444 -700 0 -188 56 -328 179 -450 128 -128 258 -176 446 -167 124 6 211 31 324 93 87 49 234 196 289 289 129 220 145 483 43 690 -50 100 -101 159 -188 219 -135 92 -315 126 -478 90z"/>
        <path class="claw" d="M2164 2961 c-218 -39 -408 -125 -579 -264 -134 -109 -203 -202 -527 -707 -171 -267 -324 -512 -339 -545 -94 -201 -94 -460 1 -662 102 -218 292 -374 530 -434 71 -18 104 -21 215 -17 113 4 141 9 215 35 385 139 426 148 695 147 168 0 216 -3 302 -22 98 -21 137 -34 373 -118 95 -34 117 -38 230 -42 180 -6 303 24 448 109 80 48 210 180 262 267 70 119 101 225 107 367 6 138 -9 235 -55 344 -26 60 -464 757 -633 1006 -61 90 -182 222 -264 288 -260 211 -643 307 -981 248z"/>
    
    </g>
    <g transform="translate(1300, 250) scale(10, -10) " fill="#ffffff" stroke="none">
        <path class='pad' xmlns="http://www.w3.org/2000/svg" d="m.931.116c6.569,4.384,16.069,12.384,22.956,22.945.387.593-.366,1.258-.881.772C14.995,16.284,7.391,8.658.166.998-.319.483.342-.277.931.116Zm10.239.946c3.83,4.438,7.33,7.938,11.767,11.77.555.479,1.355-.192.957-.808C19.841,5.753,15.033,2.029,11.959.102c-.618-.387-1.266.408-.789.96ZM.156,9.931c4.434,4.793,9.078,9.426,13.911,13.913.488.453,1.225-.164.878-.732C10.341,15.576,5,11.5.872,9.046c-.566-.336-1.163.402-.715.885Z"/>
    </g>
</svg>
